<?xml version="1.0" standalone="no"?>
<!DOCTYPE svg PUBLIC "-//W3C//DTD SVG 1.1//EN" "http://www.w3.org/Graphics/SVG/1.1/DTD/svg11.dtd" >
<svg>
<metadata>
Created by FontForge 20090914 at Fri Aug  4 18:57:51 2017
 By www-data
</metadata>
<defs>
<font id="AcneDemo-Regular" horiz-adv-x="860" >
  <font-face 
    font-family="Acne Demo"
    font-weight="400"
    font-stretch="normal"
    units-per-em="1000"
    panose-1="0 0 0 0 0 0 0 0 0 0"
    ascent="686"
    descent="-314"
    x-height="310"
    cap-height="314"
    bbox="-17 -144.001 706.002 535.001"
    underline-thickness="50"
    underline-position="-50"
    unicode-range="U+000D-U+007E"
  />
<missing-glyph horiz-adv-x="250" 
 />
    <glyph glyph-name=".notdef" horiz-adv-x="250" 
 />
    <glyph glyph-name="NULL" horiz-adv-x="0" 
 />
    <glyph glyph-name="NULL" horiz-adv-x="0" 
 />
    <glyph glyph-name="nonmarkingreturn" unicode="&#xd;" horiz-adv-x="250" 
 />
    <glyph glyph-name="space" unicode=" " horiz-adv-x="250" 
 />
    <glyph glyph-name="exclam" unicode="!" 
d="M585 396l-436 0.000976562v7c0 8.66699 2.33301 18 7 28s9 18 13 24c12 16 26.333 29.167 43 39.5s34 18.5 52 24.5s36 10.167 54 12.5s34.333 3.5 49 3.5c22 0 44.333 -2.33301 67 -7s44.667 -12 66 -22c10 -4.66699 20.167 -10.834 30.5 -18.501s19.5 -16 27.5 -25
s14.5 -18.5 19.5 -28.5s7.5 -19.333 7.5 -28v-10zM618 330.001c0 -3.33301 -0.998047 -7.50098 -2.99805 -12.501s-4.5 -9.66699 -7.5 -14s-6.66699 -8 -11 -11s-8.83301 -4.5 -13.5 -4.5h-435c-9.33301 0 -17.5 5 -24.5 15s-10.5 19 -10.5 27s3.66699 16.833 11 26.5
s17 14.5 29 14.5h254c3.33301 0 7.83301 -0.5 13.5 -1.5s11.5 -2.16699 17.5 -3.5s11.333 -2.66602 16 -3.99902s7.66699 -2.33301 9 -3c3.33301 -1.33301 7 -3.83301 11 -7.5s6.66699 -7.16699 8 -10.5l4 -8l2.5 -5c1 -2 2.16699 -3.66699 3.5 -5
c7.33301 16 19.166 28 35.499 36s31.166 12 44.499 12c11.333 0 21.833 -3.33301 31.5 -10s14.5 -17 14.5 -31zM584.002 254c0 -8.66699 -2.5 -17.8311 -7.5 -27.498s-11.5 -18.667 -19.5 -27s-16.833 -15.166 -26.5 -20.499s-19.167 -8 -28.5 -8h-271
c-10 0 -19.833 2.66699 -29.5 8s-18.5 12.166 -26.5 20.499s-14.333 17.666 -19 27.999s-7 20.166 -7 29.499v7h435v-10zM706.002 -56.9971c0 -8.66699 -2.16211 -13.666 -6.49512 -14.999s-6.5 -2.66602 -6.5 -3.99902s0.666992 -2.5 2 -3.5s2 -3.5 2 -7.5
c0 -6.66699 -1.83301 -11 -5.5 -13s-7.83398 -3 -12.501 -3c-12 0 -18 5.33301 -18 16c0 3.33301 1 6.66602 3 9.99902l-298 106l-298 -106c0.666992 -1.33301 1.33398 -3 2.00098 -5s1 -3.66699 1 -5c0 -6.66699 -1.83301 -11 -5.5 -13s-7.83398 -3 -12.501 -3
c-12 0 -18 5.33301 -18 16c0 2.66699 1.33301 6.66699 4 12c-4.66699 1.33301 -8.33398 3.66602 -11.001 6.99902s-4 7 -4 11c0 5.33301 1.66699 9.5 5 12.5s7.66602 4.5 12.999 4.5c8.66699 0 15 -5.33301 19 -16l271 97l-271 96c-4 -10.667 -10.333 -16 -19 -16
c-5.33301 0 -9.66602 1.66699 -12.999 5s-5 7.66602 -5 12.999c0 7.33301 2.5 11.833 7.5 13.5s7.5 3.16699 7.5 4.5s-0.666992 2.5 -2 3.5s-2 3.5 -2 7.5s1.66699 8 5 12s7.66602 6 12.999 6c6.66699 0 11.667 -2.83301 15 -8.5s3.33301 -11.5 0 -17.5l149 -54.5l149 -52.5
l297 106c-1.33301 4 -2 7 -2 9c0 5.33301 1.66699 9.66602 5 12.999s7.66602 5 12.999 5s9.66602 -1.66699 12.999 -5s5 -7.66602 5 -12.999c0 -1.33301 -0.5 -3.16602 -1.5 -5.49902s-1.83301 -4.5 -2.5 -6.5c6 -2 9.66699 -4.33301 11 -7s2 -6 2 -10
c0 -12 -5.66699 -18 -17 -18c-8.66699 0 -15 5.33301 -19 16l-270 -96l271 -97c4 10.667 10 16 18 16c11.333 0 17 -5.66699 17 -17z" />
    <glyph glyph-name="quotedbl" unicode="&#x22;" 
d="M585 396l-436 0.000976562v7c0 8.66699 2.33301 18 7 28s9 18 13 24c12 16 26.333 29.167 43 39.5s34 18.5 52 24.5s36 10.167 54 12.5s34.333 3.5 49 3.5c22 0 44.333 -2.33301 67 -7s44.667 -12 66 -22c10 -4.66699 20.167 -10.834 30.5 -18.501s19.5 -16 27.5 -25
s14.5 -18.5 19.5 -28.5s7.5 -19.333 7.5 -28v-10zM618 330.001c0 -3.33301 -0.998047 -7.50098 -2.99805 -12.501s-4.5 -9.66699 -7.5 -14s-6.66699 -8 -11 -11s-8.83301 -4.5 -13.5 -4.5h-435c-9.33301 0 -17.5 5 -24.5 15s-10.5 19 -10.5 27s3.66699 16.833 11 26.5
s17 14.5 29 14.5h254c3.33301 0 7.83301 -0.5 13.5 -1.5s11.5 -2.16699 17.5 -3.5s11.333 -2.66602 16 -3.99902s7.66699 -2.33301 9 -3c3.33301 -1.33301 7 -3.83301 11 -7.5s6.66699 -7.16699 8 -10.5l4 -8l2.5 -5c1 -2 2.16699 -3.66699 3.5 -5
c7.33301 16 19.166 28 35.499 36s31.166 12 44.499 12c11.333 0 21.833 -3.33301 31.5 -10s14.5 -17 14.5 -31zM584.002 254c0 -8.66699 -2.5 -17.8311 -7.5 -27.498s-11.5 -18.667 -19.5 -27s-16.833 -15.166 -26.5 -20.499s-19.167 -8 -28.5 -8h-271
c-10 0 -19.833 2.66699 -29.5 8s-18.5 12.166 -26.5 20.499s-14.333 17.666 -19 27.999s-7 20.166 -7 29.499v7h435v-10zM706.002 -56.9971c0 -8.66699 -2.16211 -13.666 -6.49512 -14.999s-6.5 -2.66602 -6.5 -3.99902s0.666992 -2.5 2 -3.5s2 -3.5 2 -7.5
c0 -6.66699 -1.83301 -11 -5.5 -13s-7.83398 -3 -12.501 -3c-12 0 -18 5.33301 -18 16c0 3.33301 1 6.66602 3 9.99902l-298 106l-298 -106c0.666992 -1.33301 1.33398 -3 2.00098 -5s1 -3.66699 1 -5c0 -6.66699 -1.83301 -11 -5.5 -13s-7.83398 -3 -12.501 -3
c-12 0 -18 5.33301 -18 16c0 2.66699 1.33301 6.66699 4 12c-4.66699 1.33301 -8.33398 3.66602 -11.001 6.99902s-4 7 -4 11c0 5.33301 1.66699 9.5 5 12.5s7.66602 4.5 12.999 4.5c8.66699 0 15 -5.33301 19 -16l271 97l-271 96c-4 -10.667 -10.333 -16 -19 -16
c-5.33301 0 -9.66602 1.66699 -12.999 5s-5 7.66602 -5 12.999c0 7.33301 2.5 11.833 7.5 13.5s7.5 3.16699 7.5 4.5s-0.666992 2.5 -2 3.5s-2 3.5 -2 7.5s1.66699 8 5 12s7.66602 6 12.999 6c6.66699 0 11.667 -2.83301 15 -8.5s3.33301 -11.5 0 -17.5l149 -54.5l149 -52.5
l297 106c-1.33301 4 -2 7 -2 9c0 5.33301 1.66699 9.66602 5 12.999s7.66602 5 12.999 5s9.66602 -1.66699 12.999 -5s5 -7.66602 5 -12.999c0 -1.33301 -0.5 -3.16602 -1.5 -5.49902s-1.83301 -4.5 -2.5 -6.5c6 -2 9.66699 -4.33301 11 -7s2 -6 2 -10
c0 -12 -5.66699 -18 -17 -18c-8.66699 0 -15 5.33301 -19 16l-270 -96l271 -97c4 10.667 10 16 18 16c11.333 0 17 -5.66699 17 -17z" />
    <glyph glyph-name="numbersign" unicode="#" 
d="M585 396l-436 0.000976562v7c0 8.66699 2.33301 18 7 28s9 18 13 24c12 16 26.333 29.167 43 39.5s34 18.5 52 24.5s36 10.167 54 12.5s34.333 3.5 49 3.5c22 0 44.333 -2.33301 67 -7s44.667 -12 66 -22c10 -4.66699 20.167 -10.834 30.5 -18.501s19.5 -16 27.5 -25
s14.5 -18.5 19.5 -28.5s7.5 -19.333 7.5 -28v-10zM618 330.001c0 -3.33301 -0.998047 -7.50098 -2.99805 -12.501s-4.5 -9.66699 -7.5 -14s-6.66699 -8 -11 -11s-8.83301 -4.5 -13.5 -4.5h-435c-9.33301 0 -17.5 5 -24.5 15s-10.5 19 -10.5 27s3.66699 16.833 11 26.5
s17 14.5 29 14.5h254c3.33301 0 7.83301 -0.5 13.5 -1.5s11.5 -2.16699 17.5 -3.5s11.333 -2.66602 16 -3.99902s7.66699 -2.33301 9 -3c3.33301 -1.33301 7 -3.83301 11 -7.5s6.66699 -7.16699 8 -10.5l4 -8l2.5 -5c1 -2 2.16699 -3.66699 3.5 -5
c7.33301 16 19.166 28 35.499 36s31.166 12 44.499 12c11.333 0 21.833 -3.33301 31.5 -10s14.5 -17 14.5 -31zM584.002 254c0 -8.66699 -2.5 -17.8311 -7.5 -27.498s-11.5 -18.667 -19.5 -27s-16.833 -15.166 -26.5 -20.499s-19.167 -8 -28.5 -8h-271
c-10 0 -19.833 2.66699 -29.5 8s-18.5 12.166 -26.5 20.499s-14.333 17.666 -19 27.999s-7 20.166 -7 29.499v7h435v-10zM706.002 -56.9971c0 -8.66699 -2.16211 -13.666 -6.49512 -14.999s-6.5 -2.66602 -6.5 -3.99902s0.666992 -2.5 2 -3.5s2 -3.5 2 -7.5
c0 -6.66699 -1.83301 -11 -5.5 -13s-7.83398 -3 -12.501 -3c-12 0 -18 5.33301 -18 16c0 3.33301 1 6.66602 3 9.99902l-298 106l-298 -106c0.666992 -1.33301 1.33398 -3 2.00098 -5s1 -3.66699 1 -5c0 -6.66699 -1.83301 -11 -5.5 -13s-7.83398 -3 -12.501 -3
c-12 0 -18 5.33301 -18 16c0 2.66699 1.33301 6.66699 4 12c-4.66699 1.33301 -8.33398 3.66602 -11.001 6.99902s-4 7 -4 11c0 5.33301 1.66699 9.5 5 12.5s7.66602 4.5 12.999 4.5c8.66699 0 15 -5.33301 19 -16l271 97l-271 96c-4 -10.667 -10.333 -16 -19 -16
c-5.33301 0 -9.66602 1.66699 -12.999 5s-5 7.66602 -5 12.999c0 7.33301 2.5 11.833 7.5 13.5s7.5 3.16699 7.5 4.5s-0.666992 2.5 -2 3.5s-2 3.5 -2 7.5s1.66699 8 5 12s7.66602 6 12.999 6c6.66699 0 11.667 -2.83301 15 -8.5s3.33301 -11.5 0 -17.5l149 -54.5l149 -52.5
l297 106c-1.33301 4 -2 7 -2 9c0 5.33301 1.66699 9.66602 5 12.999s7.66602 5 12.999 5s9.66602 -1.66699 12.999 -5s5 -7.66602 5 -12.999c0 -1.33301 -0.5 -3.16602 -1.5 -5.49902s-1.83301 -4.5 -2.5 -6.5c6 -2 9.66699 -4.33301 11 -7s2 -6 2 -10
c0 -12 -5.66699 -18 -17 -18c-8.66699 0 -15 5.33301 -19 16l-270 -96l271 -97c4 10.667 10 16 18 16c11.333 0 17 -5.66699 17 -17z" />
    <glyph glyph-name="dollar" unicode="$" 
d="M585 396l-436 0.000976562v7c0 8.66699 2.33301 18 7 28s9 18 13 24c12 16 26.333 29.167 43 39.5s34 18.5 52 24.5s36 10.167 54 12.5s34.333 3.5 49 3.5c22 0 44.333 -2.33301 67 -7s44.667 -12 66 -22c10 -4.66699 20.167 -10.834 30.5 -18.501s19.5 -16 27.5 -25
s14.5 -18.5 19.5 -28.5s7.5 -19.333 7.5 -28v-10zM618 330.001c0 -3.33301 -0.998047 -7.50098 -2.99805 -12.501s-4.5 -9.66699 -7.5 -14s-6.66699 -8 -11 -11s-8.83301 -4.5 -13.5 -4.5h-435c-9.33301 0 -17.5 5 -24.5 15s-10.5 19 -10.5 27s3.66699 16.833 11 26.5
s17 14.5 29 14.5h254c3.33301 0 7.83301 -0.5 13.5 -1.5s11.5 -2.16699 17.5 -3.5s11.333 -2.66602 16 -3.99902s7.66699 -2.33301 9 -3c3.33301 -1.33301 7 -3.83301 11 -7.5s6.66699 -7.16699 8 -10.5l4 -8l2.5 -5c1 -2 2.16699 -3.66699 3.5 -5
c7.33301 16 19.166 28 35.499 36s31.166 12 44.499 12c11.333 0 21.833 -3.33301 31.5 -10s14.5 -17 14.5 -31zM584.002 254c0 -8.66699 -2.5 -17.8311 -7.5 -27.498s-11.5 -18.667 -19.5 -27s-16.833 -15.166 -26.5 -20.499s-19.167 -8 -28.5 -8h-271
c-10 0 -19.833 2.66699 -29.5 8s-18.5 12.166 -26.5 20.499s-14.333 17.666 -19 27.999s-7 20.166 -7 29.499v7h435v-10zM706.002 -56.9971c0 -8.66699 -2.16211 -13.666 -6.49512 -14.999s-6.5 -2.66602 -6.5 -3.99902s0.666992 -2.5 2 -3.5s2 -3.5 2 -7.5
c0 -6.66699 -1.83301 -11 -5.5 -13s-7.83398 -3 -12.501 -3c-12 0 -18 5.33301 -18 16c0 3.33301 1 6.66602 3 9.99902l-298 106l-298 -106c0.666992 -1.33301 1.33398 -3 2.00098 -5s1 -3.66699 1 -5c0 -6.66699 -1.83301 -11 -5.5 -13s-7.83398 -3 -12.501 -3
c-12 0 -18 5.33301 -18 16c0 2.66699 1.33301 6.66699 4 12c-4.66699 1.33301 -8.33398 3.66602 -11.001 6.99902s-4 7 -4 11c0 5.33301 1.66699 9.5 5 12.5s7.66602 4.5 12.999 4.5c8.66699 0 15 -5.33301 19 -16l271 97l-271 96c-4 -10.667 -10.333 -16 -19 -16
c-5.33301 0 -9.66602 1.66699 -12.999 5s-5 7.66602 -5 12.999c0 7.33301 2.5 11.833 7.5 13.5s7.5 3.16699 7.5 4.5s-0.666992 2.5 -2 3.5s-2 3.5 -2 7.5s1.66699 8 5 12s7.66602 6 12.999 6c6.66699 0 11.667 -2.83301 15 -8.5s3.33301 -11.5 0 -17.5l149 -54.5l149 -52.5
l297 106c-1.33301 4 -2 7 -2 9c0 5.33301 1.66699 9.66602 5 12.999s7.66602 5 12.999 5s9.66602 -1.66699 12.999 -5s5 -7.66602 5 -12.999c0 -1.33301 -0.5 -3.16602 -1.5 -5.49902s-1.83301 -4.5 -2.5 -6.5c6 -2 9.66699 -4.33301 11 -7s2 -6 2 -10
c0 -12 -5.66699 -18 -17 -18c-8.66699 0 -15 5.33301 -19 16l-270 -96l271 -97c4 10.667 10 16 18 16c11.333 0 17 -5.66699 17 -17z" />
    <glyph glyph-name="percent" unicode="%" 
d="M585 396l-436 0.000976562v7c0 8.66699 2.33301 18 7 28s9 18 13 24c12 16 26.333 29.167 43 39.5s34 18.5 52 24.5s36 10.167 54 12.5s34.333 3.5 49 3.5c22 0 44.333 -2.33301 67 -7s44.667 -12 66 -22c10 -4.66699 20.167 -10.834 30.5 -18.501s19.5 -16 27.5 -25
s14.5 -18.5 19.5 -28.5s7.5 -19.333 7.5 -28v-10zM618 330.001c0 -3.33301 -0.998047 -7.50098 -2.99805 -12.501s-4.5 -9.66699 -7.5 -14s-6.66699 -8 -11 -11s-8.83301 -4.5 -13.5 -4.5h-435c-9.33301 0 -17.5 5 -24.5 15s-10.5 19 -10.5 27s3.66699 16.833 11 26.5
s17 14.5 29 14.5h254c3.33301 0 7.83301 -0.5 13.5 -1.5s11.5 -2.16699 17.5 -3.5s11.333 -2.66602 16 -3.99902s7.66699 -2.33301 9 -3c3.33301 -1.33301 7 -3.83301 11 -7.5s6.66699 -7.16699 8 -10.5l4 -8l2.5 -5c1 -2 2.16699 -3.66699 3.5 -5
c7.33301 16 19.166 28 35.499 36s31.166 12 44.499 12c11.333 0 21.833 -3.33301 31.5 -10s14.5 -17 14.5 -31zM584.002 254c0 -8.66699 -2.5 -17.8311 -7.5 -27.498s-11.5 -18.667 -19.5 -27s-16.833 -15.166 -26.5 -20.499s-19.167 -8 -28.5 -8h-271
c-10 0 -19.833 2.66699 -29.5 8s-18.5 12.166 -26.5 20.499s-14.333 17.666 -19 27.999s-7 20.166 -7 29.499v7h435v-10zM706.002 -56.9971c0 -8.66699 -2.16211 -13.666 -6.49512 -14.999s-6.5 -2.66602 -6.5 -3.99902s0.666992 -2.5 2 -3.5s2 -3.5 2 -7.5
c0 -6.66699 -1.83301 -11 -5.5 -13s-7.83398 -3 -12.501 -3c-12 0 -18 5.33301 -18 16c0 3.33301 1 6.66602 3 9.99902l-298 106l-298 -106c0.666992 -1.33301 1.33398 -3 2.00098 -5s1 -3.66699 1 -5c0 -6.66699 -1.83301 -11 -5.5 -13s-7.83398 -3 -12.501 -3
c-12 0 -18 5.33301 -18 16c0 2.66699 1.33301 6.66699 4 12c-4.66699 1.33301 -8.33398 3.66602 -11.001 6.99902s-4 7 -4 11c0 5.33301 1.66699 9.5 5 12.5s7.66602 4.5 12.999 4.5c8.66699 0 15 -5.33301 19 -16l271 97l-271 96c-4 -10.667 -10.333 -16 -19 -16
c-5.33301 0 -9.66602 1.66699 -12.999 5s-5 7.66602 -5 12.999c0 7.33301 2.5 11.833 7.5 13.5s7.5 3.16699 7.5 4.5s-0.666992 2.5 -2 3.5s-2 3.5 -2 7.5s1.66699 8 5 12s7.66602 6 12.999 6c6.66699 0 11.667 -2.83301 15 -8.5s3.33301 -11.5 0 -17.5l149 -54.5l149 -52.5
l297 106c-1.33301 4 -2 7 -2 9c0 5.33301 1.66699 9.66602 5 12.999s7.66602 5 12.999 5s9.66602 -1.66699 12.999 -5s5 -7.66602 5 -12.999c0 -1.33301 -0.5 -3.16602 -1.5 -5.49902s-1.83301 -4.5 -2.5 -6.5c6 -2 9.66699 -4.33301 11 -7s2 -6 2 -10
c0 -12 -5.66699 -18 -17 -18c-8.66699 0 -15 5.33301 -19 16l-270 -96l271 -97c4 10.667 10 16 18 16c11.333 0 17 -5.66699 17 -17z" />
    <glyph glyph-name="ampersand" unicode="&#x26;" 
d="M585 396l-436 0.000976562v7c0 8.66699 2.33301 18 7 28s9 18 13 24c12 16 26.333 29.167 43 39.5s34 18.5 52 24.5s36 10.167 54 12.5s34.333 3.5 49 3.5c22 0 44.333 -2.33301 67 -7s44.667 -12 66 -22c10 -4.66699 20.167 -10.834 30.5 -18.501s19.5 -16 27.5 -25
s14.5 -18.5 19.5 -28.5s7.5 -19.333 7.5 -28v-10zM618 330.001c0 -3.33301 -0.998047 -7.50098 -2.99805 -12.501s-4.5 -9.66699 -7.5 -14s-6.66699 -8 -11 -11s-8.83301 -4.5 -13.5 -4.5h-435c-9.33301 0 -17.5 5 -24.5 15s-10.5 19 -10.5 27s3.66699 16.833 11 26.5
s17 14.5 29 14.5h254c3.33301 0 7.83301 -0.5 13.5 -1.5s11.5 -2.16699 17.5 -3.5s11.333 -2.66602 16 -3.99902s7.66699 -2.33301 9 -3c3.33301 -1.33301 7 -3.83301 11 -7.5s6.66699 -7.16699 8 -10.5l4 -8l2.5 -5c1 -2 2.16699 -3.66699 3.5 -5
c7.33301 16 19.166 28 35.499 36s31.166 12 44.499 12c11.333 0 21.833 -3.33301 31.5 -10s14.5 -17 14.5 -31zM584.002 254c0 -8.66699 -2.5 -17.8311 -7.5 -27.498s-11.5 -18.667 -19.5 -27s-16.833 -15.166 -26.5 -20.499s-19.167 -8 -28.5 -8h-271
c-10 0 -19.833 2.66699 -29.5 8s-18.5 12.166 -26.5 20.499s-14.333 17.666 -19 27.999s-7 20.166 -7 29.499v7h435v-10zM706.002 -56.9971c0 -8.66699 -2.16211 -13.666 -6.49512 -14.999s-6.5 -2.66602 -6.5 -3.99902s0.666992 -2.5 2 -3.5s2 -3.5 2 -7.5
c0 -6.66699 -1.83301 -11 -5.5 -13s-7.83398 -3 -12.501 -3c-12 0 -18 5.33301 -18 16c0 3.33301 1 6.66602 3 9.99902l-298 106l-298 -106c0.666992 -1.33301 1.33398 -3 2.00098 -5s1 -3.66699 1 -5c0 -6.66699 -1.83301 -11 -5.5 -13s-7.83398 -3 -12.501 -3
c-12 0 -18 5.33301 -18 16c0 2.66699 1.33301 6.66699 4 12c-4.66699 1.33301 -8.33398 3.66602 -11.001 6.99902s-4 7 -4 11c0 5.33301 1.66699 9.5 5 12.5s7.66602 4.5 12.999 4.5c8.66699 0 15 -5.33301 19 -16l271 97l-271 96c-4 -10.667 -10.333 -16 -19 -16
c-5.33301 0 -9.66602 1.66699 -12.999 5s-5 7.66602 -5 12.999c0 7.33301 2.5 11.833 7.5 13.5s7.5 3.16699 7.5 4.5s-0.666992 2.5 -2 3.5s-2 3.5 -2 7.5s1.66699 8 5 12s7.66602 6 12.999 6c6.66699 0 11.667 -2.83301 15 -8.5s3.33301 -11.5 0 -17.5l149 -54.5l149 -52.5
l297 106c-1.33301 4 -2 7 -2 9c0 5.33301 1.66699 9.66602 5 12.999s7.66602 5 12.999 5s9.66602 -1.66699 12.999 -5s5 -7.66602 5 -12.999c0 -1.33301 -0.5 -3.16602 -1.5 -5.49902s-1.83301 -4.5 -2.5 -6.5c6 -2 9.66699 -4.33301 11 -7s2 -6 2 -10
c0 -12 -5.66699 -18 -17 -18c-8.66699 0 -15 5.33301 -19 16l-270 -96l271 -97c4 10.667 10 16 18 16c11.333 0 17 -5.66699 17 -17z" />
    <glyph glyph-name="quotesingle" unicode="'" 
d="M585 396l-436 0.000976562v7c0 8.66699 2.33301 18 7 28s9 18 13 24c12 16 26.333 29.167 43 39.5s34 18.5 52 24.5s36 10.167 54 12.5s34.333 3.5 49 3.5c22 0 44.333 -2.33301 67 -7s44.667 -12 66 -22c10 -4.66699 20.167 -10.834 30.5 -18.501s19.5 -16 27.5 -25
s14.5 -18.5 19.5 -28.5s7.5 -19.333 7.5 -28v-10zM618 330.001c0 -3.33301 -0.998047 -7.50098 -2.99805 -12.501s-4.5 -9.66699 -7.5 -14s-6.66699 -8 -11 -11s-8.83301 -4.5 -13.5 -4.5h-435c-9.33301 0 -17.5 5 -24.5 15s-10.5 19 -10.5 27s3.66699 16.833 11 26.5
s17 14.5 29 14.5h254c3.33301 0 7.83301 -0.5 13.5 -1.5s11.5 -2.16699 17.5 -3.5s11.333 -2.66602 16 -3.99902s7.66699 -2.33301 9 -3c3.33301 -1.33301 7 -3.83301 11 -7.5s6.66699 -7.16699 8 -10.5l4 -8l2.5 -5c1 -2 2.16699 -3.66699 3.5 -5
c7.33301 16 19.166 28 35.499 36s31.166 12 44.499 12c11.333 0 21.833 -3.33301 31.5 -10s14.5 -17 14.5 -31zM584.002 254c0 -8.66699 -2.5 -17.8311 -7.5 -27.498s-11.5 -18.667 -19.5 -27s-16.833 -15.166 -26.5 -20.499s-19.167 -8 -28.5 -8h-271
c-10 0 -19.833 2.66699 -29.5 8s-18.5 12.166 -26.5 20.499s-14.333 17.666 -19 27.999s-7 20.166 -7 29.499v7h435v-10zM706.002 -56.9971c0 -8.66699 -2.16211 -13.666 -6.49512 -14.999s-6.5 -2.66602 -6.5 -3.99902s0.666992 -2.5 2 -3.5s2 -3.5 2 -7.5
c0 -6.66699 -1.83301 -11 -5.5 -13s-7.83398 -3 -12.501 -3c-12 0 -18 5.33301 -18 16c0 3.33301 1 6.66602 3 9.99902l-298 106l-298 -106c0.666992 -1.33301 1.33398 -3 2.00098 -5s1 -3.66699 1 -5c0 -6.66699 -1.83301 -11 -5.5 -13s-7.83398 -3 -12.501 -3
c-12 0 -18 5.33301 -18 16c0 2.66699 1.33301 6.66699 4 12c-4.66699 1.33301 -8.33398 3.66602 -11.001 6.99902s-4 7 -4 11c0 5.33301 1.66699 9.5 5 12.5s7.66602 4.5 12.999 4.5c8.66699 0 15 -5.33301 19 -16l271 97l-271 96c-4 -10.667 -10.333 -16 -19 -16
c-5.33301 0 -9.66602 1.66699 -12.999 5s-5 7.66602 -5 12.999c0 7.33301 2.5 11.833 7.5 13.5s7.5 3.16699 7.5 4.5s-0.666992 2.5 -2 3.5s-2 3.5 -2 7.5s1.66699 8 5 12s7.66602 6 12.999 6c6.66699 0 11.667 -2.83301 15 -8.5s3.33301 -11.5 0 -17.5l149 -54.5l149 -52.5
l297 106c-1.33301 4 -2 7 -2 9c0 5.33301 1.66699 9.66602 5 12.999s7.66602 5 12.999 5s9.66602 -1.66699 12.999 -5s5 -7.66602 5 -12.999c0 -1.33301 -0.5 -3.16602 -1.5 -5.49902s-1.83301 -4.5 -2.5 -6.5c6 -2 9.66699 -4.33301 11 -7s2 -6 2 -10
c0 -12 -5.66699 -18 -17 -18c-8.66699 0 -15 5.33301 -19 16l-270 -96l271 -97c4 10.667 10 16 18 16c11.333 0 17 -5.66699 17 -17z" />
    <glyph glyph-name="parenleft" unicode="(" 
d="M585 396l-436 0.000976562v7c0 8.66699 2.33301 18 7 28s9 18 13 24c12 16 26.333 29.167 43 39.5s34 18.5 52 24.5s36 10.167 54 12.5s34.333 3.5 49 3.5c22 0 44.333 -2.33301 67 -7s44.667 -12 66 -22c10 -4.66699 20.167 -10.834 30.5 -18.501s19.5 -16 27.5 -25
s14.5 -18.5 19.5 -28.5s7.5 -19.333 7.5 -28v-10zM618 330.001c0 -3.33301 -0.998047 -7.50098 -2.99805 -12.501s-4.5 -9.66699 -7.5 -14s-6.66699 -8 -11 -11s-8.83301 -4.5 -13.5 -4.5h-435c-9.33301 0 -17.5 5 -24.5 15s-10.5 19 -10.5 27s3.66699 16.833 11 26.5
s17 14.5 29 14.5h254c3.33301 0 7.83301 -0.5 13.5 -1.5s11.5 -2.16699 17.5 -3.5s11.333 -2.66602 16 -3.99902s7.66699 -2.33301 9 -3c3.33301 -1.33301 7 -3.83301 11 -7.5s6.66699 -7.16699 8 -10.5l4 -8l2.5 -5c1 -2 2.16699 -3.66699 3.5 -5
c7.33301 16 19.166 28 35.499 36s31.166 12 44.499 12c11.333 0 21.833 -3.33301 31.5 -10s14.5 -17 14.5 -31zM584.002 254c0 -8.66699 -2.5 -17.8311 -7.5 -27.498s-11.5 -18.667 -19.5 -27s-16.833 -15.166 -26.5 -20.499s-19.167 -8 -28.5 -8h-271
c-10 0 -19.833 2.66699 -29.5 8s-18.5 12.166 -26.5 20.499s-14.333 17.666 -19 27.999s-7 20.166 -7 29.499v7h435v-10zM706.002 -56.9971c0 -8.66699 -2.16211 -13.666 -6.49512 -14.999s-6.5 -2.66602 -6.5 -3.99902s0.666992 -2.5 2 -3.5s2 -3.5 2 -7.5
c0 -6.66699 -1.83301 -11 -5.5 -13s-7.83398 -3 -12.501 -3c-12 0 -18 5.33301 -18 16c0 3.33301 1 6.66602 3 9.99902l-298 106l-298 -106c0.666992 -1.33301 1.33398 -3 2.00098 -5s1 -3.66699 1 -5c0 -6.66699 -1.83301 -11 -5.5 -13s-7.83398 -3 -12.501 -3
c-12 0 -18 5.33301 -18 16c0 2.66699 1.33301 6.66699 4 12c-4.66699 1.33301 -8.33398 3.66602 -11.001 6.99902s-4 7 -4 11c0 5.33301 1.66699 9.5 5 12.5s7.66602 4.5 12.999 4.5c8.66699 0 15 -5.33301 19 -16l271 97l-271 96c-4 -10.667 -10.333 -16 -19 -16
c-5.33301 0 -9.66602 1.66699 -12.999 5s-5 7.66602 -5 12.999c0 7.33301 2.5 11.833 7.5 13.5s7.5 3.16699 7.5 4.5s-0.666992 2.5 -2 3.5s-2 3.5 -2 7.5s1.66699 8 5 12s7.66602 6 12.999 6c6.66699 0 11.667 -2.83301 15 -8.5s3.33301 -11.5 0 -17.5l149 -54.5l149 -52.5
l297 106c-1.33301 4 -2 7 -2 9c0 5.33301 1.66699 9.66602 5 12.999s7.66602 5 12.999 5s9.66602 -1.66699 12.999 -5s5 -7.66602 5 -12.999c0 -1.33301 -0.5 -3.16602 -1.5 -5.49902s-1.83301 -4.5 -2.5 -6.5c6 -2 9.66699 -4.33301 11 -7s2 -6 2 -10
c0 -12 -5.66699 -18 -17 -18c-8.66699 0 -15 5.33301 -19 16l-270 -96l271 -97c4 10.667 10 16 18 16c11.333 0 17 -5.66699 17 -17z" />
    <glyph glyph-name="parenright" unicode=")" 
d="M585 396l-436 0.000976562v7c0 8.66699 2.33301 18 7 28s9 18 13 24c12 16 26.333 29.167 43 39.5s34 18.5 52 24.5s36 10.167 54 12.5s34.333 3.5 49 3.5c22 0 44.333 -2.33301 67 -7s44.667 -12 66 -22c10 -4.66699 20.167 -10.834 30.5 -18.501s19.5 -16 27.5 -25
s14.5 -18.5 19.5 -28.5s7.5 -19.333 7.5 -28v-10zM618 330.001c0 -3.33301 -0.998047 -7.50098 -2.99805 -12.501s-4.5 -9.66699 -7.5 -14s-6.66699 -8 -11 -11s-8.83301 -4.5 -13.5 -4.5h-435c-9.33301 0 -17.5 5 -24.5 15s-10.5 19 -10.5 27s3.66699 16.833 11 26.5
s17 14.5 29 14.5h254c3.33301 0 7.83301 -0.5 13.5 -1.5s11.5 -2.16699 17.5 -3.5s11.333 -2.66602 16 -3.99902s7.66699 -2.33301 9 -3c3.33301 -1.33301 7 -3.83301 11 -7.5s6.66699 -7.16699 8 -10.5l4 -8l2.5 -5c1 -2 2.16699 -3.66699 3.5 -5
c7.33301 16 19.166 28 35.499 36s31.166 12 44.499 12c11.333 0 21.833 -3.33301 31.5 -10s14.5 -17 14.5 -31zM584.002 254c0 -8.66699 -2.5 -17.8311 -7.5 -27.498s-11.5 -18.667 -19.5 -27s-16.833 -15.166 -26.5 -20.499s-19.167 -8 -28.5 -8h-271
c-10 0 -19.833 2.66699 -29.5 8s-18.5 12.166 -26.5 20.499s-14.333 17.666 -19 27.999s-7 20.166 -7 29.499v7h435v-10zM706.002 -56.9971c0 -8.66699 -2.16211 -13.666 -6.49512 -14.999s-6.5 -2.66602 -6.5 -3.99902s0.666992 -2.5 2 -3.5s2 -3.5 2 -7.5
c0 -6.66699 -1.83301 -11 -5.5 -13s-7.83398 -3 -12.501 -3c-12 0 -18 5.33301 -18 16c0 3.33301 1 6.66602 3 9.99902l-298 106l-298 -106c0.666992 -1.33301 1.33398 -3 2.00098 -5s1 -3.66699 1 -5c0 -6.66699 -1.83301 -11 -5.5 -13s-7.83398 -3 -12.501 -3
c-12 0 -18 5.33301 -18 16c0 2.66699 1.33301 6.66699 4 12c-4.66699 1.33301 -8.33398 3.66602 -11.001 6.99902s-4 7 -4 11c0 5.33301 1.66699 9.5 5 12.5s7.66602 4.5 12.999 4.5c8.66699 0 15 -5.33301 19 -16l271 97l-271 96c-4 -10.667 -10.333 -16 -19 -16
c-5.33301 0 -9.66602 1.66699 -12.999 5s-5 7.66602 -5 12.999c0 7.33301 2.5 11.833 7.5 13.5s7.5 3.16699 7.5 4.5s-0.666992 2.5 -2 3.5s-2 3.5 -2 7.5s1.66699 8 5 12s7.66602 6 12.999 6c6.66699 0 11.667 -2.83301 15 -8.5s3.33301 -11.5 0 -17.5l149 -54.5l149 -52.5
l297 106c-1.33301 4 -2 7 -2 9c0 5.33301 1.66699 9.66602 5 12.999s7.66602 5 12.999 5s9.66602 -1.66699 12.999 -5s5 -7.66602 5 -12.999c0 -1.33301 -0.5 -3.16602 -1.5 -5.49902s-1.83301 -4.5 -2.5 -6.5c6 -2 9.66699 -4.33301 11 -7s2 -6 2 -10
c0 -12 -5.66699 -18 -17 -18c-8.66699 0 -15 5.33301 -19 16l-270 -96l271 -97c4 10.667 10 16 18 16c11.333 0 17 -5.66699 17 -17z" />
    <glyph glyph-name="asterisk" unicode="*" 
d="M585 396l-436 0.000976562v7c0 8.66699 2.33301 18 7 28s9 18 13 24c12 16 26.333 29.167 43 39.5s34 18.5 52 24.5s36 10.167 54 12.5s34.333 3.5 49 3.5c22 0 44.333 -2.33301 67 -7s44.667 -12 66 -22c10 -4.66699 20.167 -10.834 30.5 -18.501s19.5 -16 27.5 -25
s14.5 -18.5 19.5 -28.5s7.5 -19.333 7.5 -28v-10zM618 330.001c0 -3.33301 -0.998047 -7.50098 -2.99805 -12.501s-4.5 -9.66699 -7.5 -14s-6.66699 -8 -11 -11s-8.83301 -4.5 -13.5 -4.5h-435c-9.33301 0 -17.5 5 -24.5 15s-10.5 19 -10.5 27s3.66699 16.833 11 26.5
s17 14.5 29 14.5h254c3.33301 0 7.83301 -0.5 13.5 -1.5s11.5 -2.16699 17.5 -3.5s11.333 -2.66602 16 -3.99902s7.66699 -2.33301 9 -3c3.33301 -1.33301 7 -3.83301 11 -7.5s6.66699 -7.16699 8 -10.5l4 -8l2.5 -5c1 -2 2.16699 -3.66699 3.5 -5
c7.33301 16 19.166 28 35.499 36s31.166 12 44.499 12c11.333 0 21.833 -3.33301 31.5 -10s14.5 -17 14.5 -31zM584.002 254c0 -8.66699 -2.5 -17.8311 -7.5 -27.498s-11.5 -18.667 -19.5 -27s-16.833 -15.166 -26.5 -20.499s-19.167 -8 -28.5 -8h-271
c-10 0 -19.833 2.66699 -29.5 8s-18.5 12.166 -26.5 20.499s-14.333 17.666 -19 27.999s-7 20.166 -7 29.499v7h435v-10zM706.002 -56.9971c0 -8.66699 -2.16211 -13.666 -6.49512 -14.999s-6.5 -2.66602 -6.5 -3.99902s0.666992 -2.5 2 -3.5s2 -3.5 2 -7.5
c0 -6.66699 -1.83301 -11 -5.5 -13s-7.83398 -3 -12.501 -3c-12 0 -18 5.33301 -18 16c0 3.33301 1 6.66602 3 9.99902l-298 106l-298 -106c0.666992 -1.33301 1.33398 -3 2.00098 -5s1 -3.66699 1 -5c0 -6.66699 -1.83301 -11 -5.5 -13s-7.83398 -3 -12.501 -3
c-12 0 -18 5.33301 -18 16c0 2.66699 1.33301 6.66699 4 12c-4.66699 1.33301 -8.33398 3.66602 -11.001 6.99902s-4 7 -4 11c0 5.33301 1.66699 9.5 5 12.5s7.66602 4.5 12.999 4.5c8.66699 0 15 -5.33301 19 -16l271 97l-271 96c-4 -10.667 -10.333 -16 -19 -16
c-5.33301 0 -9.66602 1.66699 -12.999 5s-5 7.66602 -5 12.999c0 7.33301 2.5 11.833 7.5 13.5s7.5 3.16699 7.5 4.5s-0.666992 2.5 -2 3.5s-2 3.5 -2 7.5s1.66699 8 5 12s7.66602 6 12.999 6c6.66699 0 11.667 -2.83301 15 -8.5s3.33301 -11.5 0 -17.5l149 -54.5l149 -52.5
l297 106c-1.33301 4 -2 7 -2 9c0 5.33301 1.66699 9.66602 5 12.999s7.66602 5 12.999 5s9.66602 -1.66699 12.999 -5s5 -7.66602 5 -12.999c0 -1.33301 -0.5 -3.16602 -1.5 -5.49902s-1.83301 -4.5 -2.5 -6.5c6 -2 9.66699 -4.33301 11 -7s2 -6 2 -10
c0 -12 -5.66699 -18 -17 -18c-8.66699 0 -15 5.33301 -19 16l-270 -96l271 -97c4 10.667 10 16 18 16c11.333 0 17 -5.66699 17 -17z" />
    <glyph glyph-name="plus" unicode="+" 
d="M585 396l-436 0.000976562v7c0 8.66699 2.33301 18 7 28s9 18 13 24c12 16 26.333 29.167 43 39.5s34 18.5 52 24.5s36 10.167 54 12.5s34.333 3.5 49 3.5c22 0 44.333 -2.33301 67 -7s44.667 -12 66 -22c10 -4.66699 20.167 -10.834 30.5 -18.501s19.5 -16 27.5 -25
s14.5 -18.5 19.5 -28.5s7.5 -19.333 7.5 -28v-10zM618 330.001c0 -3.33301 -0.998047 -7.50098 -2.99805 -12.501s-4.5 -9.66699 -7.5 -14s-6.66699 -8 -11 -11s-8.83301 -4.5 -13.5 -4.5h-435c-9.33301 0 -17.5 5 -24.5 15s-10.5 19 -10.5 27s3.66699 16.833 11 26.5
s17 14.5 29 14.5h254c3.33301 0 7.83301 -0.5 13.5 -1.5s11.5 -2.16699 17.5 -3.5s11.333 -2.66602 16 -3.99902s7.66699 -2.33301 9 -3c3.33301 -1.33301 7 -3.83301 11 -7.5s6.66699 -7.16699 8 -10.5l4 -8l2.5 -5c1 -2 2.16699 -3.66699 3.5 -5
c7.33301 16 19.166 28 35.499 36s31.166 12 44.499 12c11.333 0 21.833 -3.33301 31.5 -10s14.5 -17 14.5 -31zM584.002 254c0 -8.66699 -2.5 -17.8311 -7.5 -27.498s-11.5 -18.667 -19.5 -27s-16.833 -15.166 -26.5 -20.499s-19.167 -8 -28.5 -8h-271
c-10 0 -19.833 2.66699 -29.5 8s-18.5 12.166 -26.5 20.499s-14.333 17.666 -19 27.999s-7 20.166 -7 29.499v7h435v-10zM706.002 -56.9971c0 -8.66699 -2.16211 -13.666 -6.49512 -14.999s-6.5 -2.66602 -6.5 -3.99902s0.666992 -2.5 2 -3.5s2 -3.5 2 -7.5
c0 -6.66699 -1.83301 -11 -5.5 -13s-7.83398 -3 -12.501 -3c-12 0 -18 5.33301 -18 16c0 3.33301 1 6.66602 3 9.99902l-298 106l-298 -106c0.666992 -1.33301 1.33398 -3 2.00098 -5s1 -3.66699 1 -5c0 -6.66699 -1.83301 -11 -5.5 -13s-7.83398 -3 -12.501 -3
c-12 0 -18 5.33301 -18 16c0 2.66699 1.33301 6.66699 4 12c-4.66699 1.33301 -8.33398 3.66602 -11.001 6.99902s-4 7 -4 11c0 5.33301 1.66699 9.5 5 12.5s7.66602 4.5 12.999 4.5c8.66699 0 15 -5.33301 19 -16l271 97l-271 96c-4 -10.667 -10.333 -16 -19 -16
c-5.33301 0 -9.66602 1.66699 -12.999 5s-5 7.66602 -5 12.999c0 7.33301 2.5 11.833 7.5 13.5s7.5 3.16699 7.5 4.5s-0.666992 2.5 -2 3.5s-2 3.5 -2 7.5s1.66699 8 5 12s7.66602 6 12.999 6c6.66699 0 11.667 -2.83301 15 -8.5s3.33301 -11.5 0 -17.5l149 -54.5l149 -52.5
l297 106c-1.33301 4 -2 7 -2 9c0 5.33301 1.66699 9.66602 5 12.999s7.66602 5 12.999 5s9.66602 -1.66699 12.999 -5s5 -7.66602 5 -12.999c0 -1.33301 -0.5 -3.16602 -1.5 -5.49902s-1.83301 -4.5 -2.5 -6.5c6 -2 9.66699 -4.33301 11 -7s2 -6 2 -10
c0 -12 -5.66699 -18 -17 -18c-8.66699 0 -15 5.33301 -19 16l-270 -96l271 -97c4 10.667 10 16 18 16c11.333 0 17 -5.66699 17 -17z" />
    <glyph glyph-name="comma" unicode="," 
d="M585 396l-436 0.000976562v7c0 8.66699 2.33301 18 7 28s9 18 13 24c12 16 26.333 29.167 43 39.5s34 18.5 52 24.5s36 10.167 54 12.5s34.333 3.5 49 3.5c22 0 44.333 -2.33301 67 -7s44.667 -12 66 -22c10 -4.66699 20.167 -10.834 30.5 -18.501s19.5 -16 27.5 -25
s14.5 -18.5 19.5 -28.5s7.5 -19.333 7.5 -28v-10zM618 330.001c0 -3.33301 -0.998047 -7.50098 -2.99805 -12.501s-4.5 -9.66699 -7.5 -14s-6.66699 -8 -11 -11s-8.83301 -4.5 -13.5 -4.5h-435c-9.33301 0 -17.5 5 -24.5 15s-10.5 19 -10.5 27s3.66699 16.833 11 26.5
s17 14.5 29 14.5h254c3.33301 0 7.83301 -0.5 13.5 -1.5s11.5 -2.16699 17.5 -3.5s11.333 -2.66602 16 -3.99902s7.66699 -2.33301 9 -3c3.33301 -1.33301 7 -3.83301 11 -7.5s6.66699 -7.16699 8 -10.5l4 -8l2.5 -5c1 -2 2.16699 -3.66699 3.5 -5
c7.33301 16 19.166 28 35.499 36s31.166 12 44.499 12c11.333 0 21.833 -3.33301 31.5 -10s14.5 -17 14.5 -31zM584.002 254c0 -8.66699 -2.5 -17.8311 -7.5 -27.498s-11.5 -18.667 -19.5 -27s-16.833 -15.166 -26.5 -20.499s-19.167 -8 -28.5 -8h-271
c-10 0 -19.833 2.66699 -29.5 8s-18.5 12.166 -26.5 20.499s-14.333 17.666 -19 27.999s-7 20.166 -7 29.499v7h435v-10zM706.002 -56.9971c0 -8.66699 -2.16211 -13.666 -6.49512 -14.999s-6.5 -2.66602 -6.5 -3.99902s0.666992 -2.5 2 -3.5s2 -3.5 2 -7.5
c0 -6.66699 -1.83301 -11 -5.5 -13s-7.83398 -3 -12.501 -3c-12 0 -18 5.33301 -18 16c0 3.33301 1 6.66602 3 9.99902l-298 106l-298 -106c0.666992 -1.33301 1.33398 -3 2.00098 -5s1 -3.66699 1 -5c0 -6.66699 -1.83301 -11 -5.5 -13s-7.83398 -3 -12.501 -3
c-12 0 -18 5.33301 -18 16c0 2.66699 1.33301 6.66699 4 12c-4.66699 1.33301 -8.33398 3.66602 -11.001 6.99902s-4 7 -4 11c0 5.33301 1.66699 9.5 5 12.5s7.66602 4.5 12.999 4.5c8.66699 0 15 -5.33301 19 -16l271 97l-271 96c-4 -10.667 -10.333 -16 -19 -16
c-5.33301 0 -9.66602 1.66699 -12.999 5s-5 7.66602 -5 12.999c0 7.33301 2.5 11.833 7.5 13.5s7.5 3.16699 7.5 4.5s-0.666992 2.5 -2 3.5s-2 3.5 -2 7.5s1.66699 8 5 12s7.66602 6 12.999 6c6.66699 0 11.667 -2.83301 15 -8.5s3.33301 -11.5 0 -17.5l149 -54.5l149 -52.5
l297 106c-1.33301 4 -2 7 -2 9c0 5.33301 1.66699 9.66602 5 12.999s7.66602 5 12.999 5s9.66602 -1.66699 12.999 -5s5 -7.66602 5 -12.999c0 -1.33301 -0.5 -3.16602 -1.5 -5.49902s-1.83301 -4.5 -2.5 -6.5c6 -2 9.66699 -4.33301 11 -7s2 -6 2 -10
c0 -12 -5.66699 -18 -17 -18c-8.66699 0 -15 5.33301 -19 16l-270 -96l271 -97c4 10.667 10 16 18 16c11.333 0 17 -5.66699 17 -17z" />
    <glyph glyph-name="hyphen" unicode="-" 
d="M585 396l-436 0.000976562v7c0 8.66699 2.33301 18 7 28s9 18 13 24c12 16 26.333 29.167 43 39.5s34 18.5 52 24.5s36 10.167 54 12.5s34.333 3.5 49 3.5c22 0 44.333 -2.33301 67 -7s44.667 -12 66 -22c10 -4.66699 20.167 -10.834 30.5 -18.501s19.5 -16 27.5 -25
s14.5 -18.5 19.5 -28.5s7.5 -19.333 7.5 -28v-10zM618 330.001c0 -3.33301 -0.998047 -7.50098 -2.99805 -12.501s-4.5 -9.66699 -7.5 -14s-6.66699 -8 -11 -11s-8.83301 -4.5 -13.5 -4.5h-435c-9.33301 0 -17.5 5 -24.5 15s-10.5 19 -10.5 27s3.66699 16.833 11 26.5
s17 14.5 29 14.5h254c3.33301 0 7.83301 -0.5 13.5 -1.5s11.5 -2.16699 17.5 -3.5s11.333 -2.66602 16 -3.99902s7.66699 -2.33301 9 -3c3.33301 -1.33301 7 -3.83301 11 -7.5s6.66699 -7.16699 8 -10.5l4 -8l2.5 -5c1 -2 2.16699 -3.66699 3.5 -5
c7.33301 16 19.166 28 35.499 36s31.166 12 44.499 12c11.333 0 21.833 -3.33301 31.5 -10s14.5 -17 14.5 -31zM584.002 254c0 -8.66699 -2.5 -17.8311 -7.5 -27.498s-11.5 -18.667 -19.5 -27s-16.833 -15.166 -26.5 -20.499s-19.167 -8 -28.5 -8h-271
c-10 0 -19.833 2.66699 -29.5 8s-18.5 12.166 -26.5 20.499s-14.333 17.666 -19 27.999s-7 20.166 -7 29.499v7h435v-10zM706.002 -56.9971c0 -8.66699 -2.16211 -13.666 -6.49512 -14.999s-6.5 -2.66602 -6.5 -3.99902s0.666992 -2.5 2 -3.5s2 -3.5 2 -7.5
c0 -6.66699 -1.83301 -11 -5.5 -13s-7.83398 -3 -12.501 -3c-12 0 -18 5.33301 -18 16c0 3.33301 1 6.66602 3 9.99902l-298 106l-298 -106c0.666992 -1.33301 1.33398 -3 2.00098 -5s1 -3.66699 1 -5c0 -6.66699 -1.83301 -11 -5.5 -13s-7.83398 -3 -12.501 -3
c-12 0 -18 5.33301 -18 16c0 2.66699 1.33301 6.66699 4 12c-4.66699 1.33301 -8.33398 3.66602 -11.001 6.99902s-4 7 -4 11c0 5.33301 1.66699 9.5 5 12.5s7.66602 4.5 12.999 4.5c8.66699 0 15 -5.33301 19 -16l271 97l-271 96c-4 -10.667 -10.333 -16 -19 -16
c-5.33301 0 -9.66602 1.66699 -12.999 5s-5 7.66602 -5 12.999c0 7.33301 2.5 11.833 7.5 13.5s7.5 3.16699 7.5 4.5s-0.666992 2.5 -2 3.5s-2 3.5 -2 7.5s1.66699 8 5 12s7.66602 6 12.999 6c6.66699 0 11.667 -2.83301 15 -8.5s3.33301 -11.5 0 -17.5l149 -54.5l149 -52.5
l297 106c-1.33301 4 -2 7 -2 9c0 5.33301 1.66699 9.66602 5 12.999s7.66602 5 12.999 5s9.66602 -1.66699 12.999 -5s5 -7.66602 5 -12.999c0 -1.33301 -0.5 -3.16602 -1.5 -5.49902s-1.83301 -4.5 -2.5 -6.5c6 -2 9.66699 -4.33301 11 -7s2 -6 2 -10
c0 -12 -5.66699 -18 -17 -18c-8.66699 0 -15 5.33301 -19 16l-270 -96l271 -97c4 10.667 10 16 18 16c11.333 0 17 -5.66699 17 -17z" />
    <glyph glyph-name="period" unicode="." 
d="M585 396l-436 0.000976562v7c0 8.66699 2.33301 18 7 28s9 18 13 24c12 16 26.333 29.167 43 39.5s34 18.5 52 24.5s36 10.167 54 12.5s34.333 3.5 49 3.5c22 0 44.333 -2.33301 67 -7s44.667 -12 66 -22c10 -4.66699 20.167 -10.834 30.5 -18.501s19.5 -16 27.5 -25
s14.5 -18.5 19.5 -28.5s7.5 -19.333 7.5 -28v-10zM618 330.001c0 -3.33301 -0.998047 -7.50098 -2.99805 -12.501s-4.5 -9.66699 -7.5 -14s-6.66699 -8 -11 -11s-8.83301 -4.5 -13.5 -4.5h-435c-9.33301 0 -17.5 5 -24.5 15s-10.5 19 -10.5 27s3.66699 16.833 11 26.5
s17 14.5 29 14.5h254c3.33301 0 7.83301 -0.5 13.5 -1.5s11.5 -2.16699 17.5 -3.5s11.333 -2.66602 16 -3.99902s7.66699 -2.33301 9 -3c3.33301 -1.33301 7 -3.83301 11 -7.5s6.66699 -7.16699 8 -10.5l4 -8l2.5 -5c1 -2 2.16699 -3.66699 3.5 -5
c7.33301 16 19.166 28 35.499 36s31.166 12 44.499 12c11.333 0 21.833 -3.33301 31.5 -10s14.5 -17 14.5 -31zM584.002 254c0 -8.66699 -2.5 -17.8311 -7.5 -27.498s-11.5 -18.667 -19.5 -27s-16.833 -15.166 -26.5 -20.499s-19.167 -8 -28.5 -8h-271
c-10 0 -19.833 2.66699 -29.5 8s-18.5 12.166 -26.5 20.499s-14.333 17.666 -19 27.999s-7 20.166 -7 29.499v7h435v-10zM706.002 -56.9971c0 -8.66699 -2.16211 -13.666 -6.49512 -14.999s-6.5 -2.66602 -6.5 -3.99902s0.666992 -2.5 2 -3.5s2 -3.5 2 -7.5
c0 -6.66699 -1.83301 -11 -5.5 -13s-7.83398 -3 -12.501 -3c-12 0 -18 5.33301 -18 16c0 3.33301 1 6.66602 3 9.99902l-298 106l-298 -106c0.666992 -1.33301 1.33398 -3 2.00098 -5s1 -3.66699 1 -5c0 -6.66699 -1.83301 -11 -5.5 -13s-7.83398 -3 -12.501 -3
c-12 0 -18 5.33301 -18 16c0 2.66699 1.33301 6.66699 4 12c-4.66699 1.33301 -8.33398 3.66602 -11.001 6.99902s-4 7 -4 11c0 5.33301 1.66699 9.5 5 12.5s7.66602 4.5 12.999 4.5c8.66699 0 15 -5.33301 19 -16l271 97l-271 96c-4 -10.667 -10.333 -16 -19 -16
c-5.33301 0 -9.66602 1.66699 -12.999 5s-5 7.66602 -5 12.999c0 7.33301 2.5 11.833 7.5 13.5s7.5 3.16699 7.5 4.5s-0.666992 2.5 -2 3.5s-2 3.5 -2 7.5s1.66699 8 5 12s7.66602 6 12.999 6c6.66699 0 11.667 -2.83301 15 -8.5s3.33301 -11.5 0 -17.5l149 -54.5l149 -52.5
l297 106c-1.33301 4 -2 7 -2 9c0 5.33301 1.66699 9.66602 5 12.999s7.66602 5 12.999 5s9.66602 -1.66699 12.999 -5s5 -7.66602 5 -12.999c0 -1.33301 -0.5 -3.16602 -1.5 -5.49902s-1.83301 -4.5 -2.5 -6.5c6 -2 9.66699 -4.33301 11 -7s2 -6 2 -10
c0 -12 -5.66699 -18 -17 -18c-8.66699 0 -15 5.33301 -19 16l-270 -96l271 -97c4 10.667 10 16 18 16c11.333 0 17 -5.66699 17 -17z" />
    <glyph glyph-name="slash" unicode="/" 
d="M585 396l-436 0.000976562v7c0 8.66699 2.33301 18 7 28s9 18 13 24c12 16 26.333 29.167 43 39.5s34 18.5 52 24.5s36 10.167 54 12.5s34.333 3.5 49 3.5c22 0 44.333 -2.33301 67 -7s44.667 -12 66 -22c10 -4.66699 20.167 -10.834 30.5 -18.501s19.5 -16 27.5 -25
s14.5 -18.5 19.5 -28.5s7.5 -19.333 7.5 -28v-10zM618 330.001c0 -3.33301 -0.998047 -7.50098 -2.99805 -12.501s-4.5 -9.66699 -7.5 -14s-6.66699 -8 -11 -11s-8.83301 -4.5 -13.5 -4.5h-435c-9.33301 0 -17.5 5 -24.5 15s-10.5 19 -10.5 27s3.66699 16.833 11 26.5
s17 14.5 29 14.5h254c3.33301 0 7.83301 -0.5 13.5 -1.5s11.5 -2.16699 17.5 -3.5s11.333 -2.66602 16 -3.99902s7.66699 -2.33301 9 -3c3.33301 -1.33301 7 -3.83301 11 -7.5s6.66699 -7.16699 8 -10.5l4 -8l2.5 -5c1 -2 2.16699 -3.66699 3.5 -5
c7.33301 16 19.166 28 35.499 36s31.166 12 44.499 12c11.333 0 21.833 -3.33301 31.5 -10s14.5 -17 14.5 -31zM584.002 254c0 -8.66699 -2.5 -17.8311 -7.5 -27.498s-11.5 -18.667 -19.5 -27s-16.833 -15.166 -26.5 -20.499s-19.167 -8 -28.5 -8h-271
c-10 0 -19.833 2.66699 -29.5 8s-18.5 12.166 -26.5 20.499s-14.333 17.666 -19 27.999s-7 20.166 -7 29.499v7h435v-10zM706.002 -56.9971c0 -8.66699 -2.16211 -13.666 -6.49512 -14.999s-6.5 -2.66602 -6.5 -3.99902s0.666992 -2.5 2 -3.5s2 -3.5 2 -7.5
c0 -6.66699 -1.83301 -11 -5.5 -13s-7.83398 -3 -12.501 -3c-12 0 -18 5.33301 -18 16c0 3.33301 1 6.66602 3 9.99902l-298 106l-298 -106c0.666992 -1.33301 1.33398 -3 2.00098 -5s1 -3.66699 1 -5c0 -6.66699 -1.83301 -11 -5.5 -13s-7.83398 -3 -12.501 -3
c-12 0 -18 5.33301 -18 16c0 2.66699 1.33301 6.66699 4 12c-4.66699 1.33301 -8.33398 3.66602 -11.001 6.99902s-4 7 -4 11c0 5.33301 1.66699 9.5 5 12.5s7.66602 4.5 12.999 4.5c8.66699 0 15 -5.33301 19 -16l271 97l-271 96c-4 -10.667 -10.333 -16 -19 -16
c-5.33301 0 -9.66602 1.66699 -12.999 5s-5 7.66602 -5 12.999c0 7.33301 2.5 11.833 7.5 13.5s7.5 3.16699 7.5 4.5s-0.666992 2.5 -2 3.5s-2 3.5 -2 7.5s1.66699 8 5 12s7.66602 6 12.999 6c6.66699 0 11.667 -2.83301 15 -8.5s3.33301 -11.5 0 -17.5l149 -54.5l149 -52.5
l297 106c-1.33301 4 -2 7 -2 9c0 5.33301 1.66699 9.66602 5 12.999s7.66602 5 12.999 5s9.66602 -1.66699 12.999 -5s5 -7.66602 5 -12.999c0 -1.33301 -0.5 -3.16602 -1.5 -5.49902s-1.83301 -4.5 -2.5 -6.5c6 -2 9.66699 -4.33301 11 -7s2 -6 2 -10
c0 -12 -5.66699 -18 -17 -18c-8.66699 0 -15 5.33301 -19 16l-270 -96l271 -97c4 10.667 10 16 18 16c11.333 0 17 -5.66699 17 -17z" />
    <glyph glyph-name="zero" unicode="0" 
d="M585 396l-436 0.000976562v7c0 8.66699 2.33301 18 7 28s9 18 13 24c12 16 26.333 29.167 43 39.5s34 18.5 52 24.5s36 10.167 54 12.5s34.333 3.5 49 3.5c22 0 44.333 -2.33301 67 -7s44.667 -12 66 -22c10 -4.66699 20.167 -10.834 30.5 -18.501s19.5 -16 27.5 -25
s14.5 -18.5 19.5 -28.5s7.5 -19.333 7.5 -28v-10zM618 330.001c0 -3.33301 -0.998047 -7.50098 -2.99805 -12.501s-4.5 -9.66699 -7.5 -14s-6.66699 -8 -11 -11s-8.83301 -4.5 -13.5 -4.5h-435c-9.33301 0 -17.5 5 -24.5 15s-10.5 19 -10.5 27s3.66699 16.833 11 26.5
s17 14.5 29 14.5h254c3.33301 0 7.83301 -0.5 13.5 -1.5s11.5 -2.16699 17.5 -3.5s11.333 -2.66602 16 -3.99902s7.66699 -2.33301 9 -3c3.33301 -1.33301 7 -3.83301 11 -7.5s6.66699 -7.16699 8 -10.5l4 -8l2.5 -5c1 -2 2.16699 -3.66699 3.5 -5
c7.33301 16 19.166 28 35.499 36s31.166 12 44.499 12c11.333 0 21.833 -3.33301 31.5 -10s14.5 -17 14.5 -31zM584.002 254c0 -8.66699 -2.5 -17.8311 -7.5 -27.498s-11.5 -18.667 -19.5 -27s-16.833 -15.166 -26.5 -20.499s-19.167 -8 -28.5 -8h-271
c-10 0 -19.833 2.66699 -29.5 8s-18.5 12.166 -26.5 20.499s-14.333 17.666 -19 27.999s-7 20.166 -7 29.499v7h435v-10zM706.002 -56.9971c0 -8.66699 -2.16211 -13.666 -6.49512 -14.999s-6.5 -2.66602 -6.5 -3.99902s0.666992 -2.5 2 -3.5s2 -3.5 2 -7.5
c0 -6.66699 -1.83301 -11 -5.5 -13s-7.83398 -3 -12.501 -3c-12 0 -18 5.33301 -18 16c0 3.33301 1 6.66602 3 9.99902l-298 106l-298 -106c0.666992 -1.33301 1.33398 -3 2.00098 -5s1 -3.66699 1 -5c0 -6.66699 -1.83301 -11 -5.5 -13s-7.83398 -3 -12.501 -3
c-12 0 -18 5.33301 -18 16c0 2.66699 1.33301 6.66699 4 12c-4.66699 1.33301 -8.33398 3.66602 -11.001 6.99902s-4 7 -4 11c0 5.33301 1.66699 9.5 5 12.5s7.66602 4.5 12.999 4.5c8.66699 0 15 -5.33301 19 -16l271 97l-271 96c-4 -10.667 -10.333 -16 -19 -16
c-5.33301 0 -9.66602 1.66699 -12.999 5s-5 7.66602 -5 12.999c0 7.33301 2.5 11.833 7.5 13.5s7.5 3.16699 7.5 4.5s-0.666992 2.5 -2 3.5s-2 3.5 -2 7.5s1.66699 8 5 12s7.66602 6 12.999 6c6.66699 0 11.667 -2.83301 15 -8.5s3.33301 -11.5 0 -17.5l149 -54.5l149 -52.5
l297 106c-1.33301 4 -2 7 -2 9c0 5.33301 1.66699 9.66602 5 12.999s7.66602 5 12.999 5s9.66602 -1.66699 12.999 -5s5 -7.66602 5 -12.999c0 -1.33301 -0.5 -3.16602 -1.5 -5.49902s-1.83301 -4.5 -2.5 -6.5c6 -2 9.66699 -4.33301 11 -7s2 -6 2 -10
c0 -12 -5.66699 -18 -17 -18c-8.66699 0 -15 5.33301 -19 16l-270 -96l271 -97c4 10.667 10 16 18 16c11.333 0 17 -5.66699 17 -17z" />
    <glyph glyph-name="one" unicode="1" 
d="M585 396l-436 0.000976562v7c0 8.66699 2.33301 18 7 28s9 18 13 24c12 16 26.333 29.167 43 39.5s34 18.5 52 24.5s36 10.167 54 12.5s34.333 3.5 49 3.5c22 0 44.333 -2.33301 67 -7s44.667 -12 66 -22c10 -4.66699 20.167 -10.834 30.5 -18.501s19.5 -16 27.5 -25
s14.5 -18.5 19.5 -28.5s7.5 -19.333 7.5 -28v-10zM618 330.001c0 -3.33301 -0.998047 -7.50098 -2.99805 -12.501s-4.5 -9.66699 -7.5 -14s-6.66699 -8 -11 -11s-8.83301 -4.5 -13.5 -4.5h-435c-9.33301 0 -17.5 5 -24.5 15s-10.5 19 -10.5 27s3.66699 16.833 11 26.5
s17 14.5 29 14.5h254c3.33301 0 7.83301 -0.5 13.5 -1.5s11.5 -2.16699 17.5 -3.5s11.333 -2.66602 16 -3.99902s7.66699 -2.33301 9 -3c3.33301 -1.33301 7 -3.83301 11 -7.5s6.66699 -7.16699 8 -10.5l4 -8l2.5 -5c1 -2 2.16699 -3.66699 3.5 -5
c7.33301 16 19.166 28 35.499 36s31.166 12 44.499 12c11.333 0 21.833 -3.33301 31.5 -10s14.5 -17 14.5 -31zM584.002 254c0 -8.66699 -2.5 -17.8311 -7.5 -27.498s-11.5 -18.667 -19.5 -27s-16.833 -15.166 -26.5 -20.499s-19.167 -8 -28.5 -8h-271
c-10 0 -19.833 2.66699 -29.5 8s-18.5 12.166 -26.5 20.499s-14.333 17.666 -19 27.999s-7 20.166 -7 29.499v7h435v-10zM706.002 -56.9971c0 -8.66699 -2.16211 -13.666 -6.49512 -14.999s-6.5 -2.66602 -6.5 -3.99902s0.666992 -2.5 2 -3.5s2 -3.5 2 -7.5
c0 -6.66699 -1.83301 -11 -5.5 -13s-7.83398 -3 -12.501 -3c-12 0 -18 5.33301 -18 16c0 3.33301 1 6.66602 3 9.99902l-298 106l-298 -106c0.666992 -1.33301 1.33398 -3 2.00098 -5s1 -3.66699 1 -5c0 -6.66699 -1.83301 -11 -5.5 -13s-7.83398 -3 -12.501 -3
c-12 0 -18 5.33301 -18 16c0 2.66699 1.33301 6.66699 4 12c-4.66699 1.33301 -8.33398 3.66602 -11.001 6.99902s-4 7 -4 11c0 5.33301 1.66699 9.5 5 12.5s7.66602 4.5 12.999 4.5c8.66699 0 15 -5.33301 19 -16l271 97l-271 96c-4 -10.667 -10.333 -16 -19 -16
c-5.33301 0 -9.66602 1.66699 -12.999 5s-5 7.66602 -5 12.999c0 7.33301 2.5 11.833 7.5 13.5s7.5 3.16699 7.5 4.5s-0.666992 2.5 -2 3.5s-2 3.5 -2 7.5s1.66699 8 5 12s7.66602 6 12.999 6c6.66699 0 11.667 -2.83301 15 -8.5s3.33301 -11.5 0 -17.5l149 -54.5l149 -52.5
l297 106c-1.33301 4 -2 7 -2 9c0 5.33301 1.66699 9.66602 5 12.999s7.66602 5 12.999 5s9.66602 -1.66699 12.999 -5s5 -7.66602 5 -12.999c0 -1.33301 -0.5 -3.16602 -1.5 -5.49902s-1.83301 -4.5 -2.5 -6.5c6 -2 9.66699 -4.33301 11 -7s2 -6 2 -10
c0 -12 -5.66699 -18 -17 -18c-8.66699 0 -15 5.33301 -19 16l-270 -96l271 -97c4 10.667 10 16 18 16c11.333 0 17 -5.66699 17 -17z" />
    <glyph glyph-name="two" unicode="2" 
d="M585 396l-436 0.000976562v7c0 8.66699 2.33301 18 7 28s9 18 13 24c12 16 26.333 29.167 43 39.5s34 18.5 52 24.5s36 10.167 54 12.5s34.333 3.5 49 3.5c22 0 44.333 -2.33301 67 -7s44.667 -12 66 -22c10 -4.66699 20.167 -10.834 30.5 -18.501s19.5 -16 27.5 -25
s14.5 -18.5 19.5 -28.5s7.5 -19.333 7.5 -28v-10zM618 330.001c0 -3.33301 -0.998047 -7.50098 -2.99805 -12.501s-4.5 -9.66699 -7.5 -14s-6.66699 -8 -11 -11s-8.83301 -4.5 -13.5 -4.5h-435c-9.33301 0 -17.5 5 -24.5 15s-10.5 19 -10.5 27s3.66699 16.833 11 26.5
s17 14.5 29 14.5h254c3.33301 0 7.83301 -0.5 13.5 -1.5s11.5 -2.16699 17.5 -3.5s11.333 -2.66602 16 -3.99902s7.66699 -2.33301 9 -3c3.33301 -1.33301 7 -3.83301 11 -7.5s6.66699 -7.16699 8 -10.5l4 -8l2.5 -5c1 -2 2.16699 -3.66699 3.5 -5
c7.33301 16 19.166 28 35.499 36s31.166 12 44.499 12c11.333 0 21.833 -3.33301 31.5 -10s14.5 -17 14.5 -31zM584.002 254c0 -8.66699 -2.5 -17.8311 -7.5 -27.498s-11.5 -18.667 -19.5 -27s-16.833 -15.166 -26.5 -20.499s-19.167 -8 -28.5 -8h-271
c-10 0 -19.833 2.66699 -29.5 8s-18.5 12.166 -26.5 20.499s-14.333 17.666 -19 27.999s-7 20.166 -7 29.499v7h435v-10zM706.002 -56.9971c0 -8.66699 -2.16211 -13.666 -6.49512 -14.999s-6.5 -2.66602 -6.5 -3.99902s0.666992 -2.5 2 -3.5s2 -3.5 2 -7.5
c0 -6.66699 -1.83301 -11 -5.5 -13s-7.83398 -3 -12.501 -3c-12 0 -18 5.33301 -18 16c0 3.33301 1 6.66602 3 9.99902l-298 106l-298 -106c0.666992 -1.33301 1.33398 -3 2.00098 -5s1 -3.66699 1 -5c0 -6.66699 -1.83301 -11 -5.5 -13s-7.83398 -3 -12.501 -3
c-12 0 -18 5.33301 -18 16c0 2.66699 1.33301 6.66699 4 12c-4.66699 1.33301 -8.33398 3.66602 -11.001 6.99902s-4 7 -4 11c0 5.33301 1.66699 9.5 5 12.5s7.66602 4.5 12.999 4.5c8.66699 0 15 -5.33301 19 -16l271 97l-271 96c-4 -10.667 -10.333 -16 -19 -16
c-5.33301 0 -9.66602 1.66699 -12.999 5s-5 7.66602 -5 12.999c0 7.33301 2.5 11.833 7.5 13.5s7.5 3.16699 7.5 4.5s-0.666992 2.5 -2 3.5s-2 3.5 -2 7.5s1.66699 8 5 12s7.66602 6 12.999 6c6.66699 0 11.667 -2.83301 15 -8.5s3.33301 -11.5 0 -17.5l149 -54.5l149 -52.5
l297 106c-1.33301 4 -2 7 -2 9c0 5.33301 1.66699 9.66602 5 12.999s7.66602 5 12.999 5s9.66602 -1.66699 12.999 -5s5 -7.66602 5 -12.999c0 -1.33301 -0.5 -3.16602 -1.5 -5.49902s-1.83301 -4.5 -2.5 -6.5c6 -2 9.66699 -4.33301 11 -7s2 -6 2 -10
c0 -12 -5.66699 -18 -17 -18c-8.66699 0 -15 5.33301 -19 16l-270 -96l271 -97c4 10.667 10 16 18 16c11.333 0 17 -5.66699 17 -17z" />
    <glyph glyph-name="three" unicode="3" 
d="M585 396l-436 0.000976562v7c0 8.66699 2.33301 18 7 28s9 18 13 24c12 16 26.333 29.167 43 39.5s34 18.5 52 24.5s36 10.167 54 12.5s34.333 3.5 49 3.5c22 0 44.333 -2.33301 67 -7s44.667 -12 66 -22c10 -4.66699 20.167 -10.834 30.5 -18.501s19.5 -16 27.5 -25
s14.5 -18.5 19.5 -28.5s7.5 -19.333 7.5 -28v-10zM618 330.001c0 -3.33301 -0.998047 -7.50098 -2.99805 -12.501s-4.5 -9.66699 -7.5 -14s-6.66699 -8 -11 -11s-8.83301 -4.5 -13.5 -4.5h-435c-9.33301 0 -17.5 5 -24.5 15s-10.5 19 -10.5 27s3.66699 16.833 11 26.5
s17 14.5 29 14.5h254c3.33301 0 7.83301 -0.5 13.5 -1.5s11.5 -2.16699 17.5 -3.5s11.333 -2.66602 16 -3.99902s7.66699 -2.33301 9 -3c3.33301 -1.33301 7 -3.83301 11 -7.5s6.66699 -7.16699 8 -10.5l4 -8l2.5 -5c1 -2 2.16699 -3.66699 3.5 -5
c7.33301 16 19.166 28 35.499 36s31.166 12 44.499 12c11.333 0 21.833 -3.33301 31.5 -10s14.5 -17 14.5 -31zM584.002 254c0 -8.66699 -2.5 -17.8311 -7.5 -27.498s-11.5 -18.667 -19.5 -27s-16.833 -15.166 -26.5 -20.499s-19.167 -8 -28.5 -8h-271
c-10 0 -19.833 2.66699 -29.5 8s-18.5 12.166 -26.5 20.499s-14.333 17.666 -19 27.999s-7 20.166 -7 29.499v7h435v-10zM706.002 -56.9971c0 -8.66699 -2.16211 -13.666 -6.49512 -14.999s-6.5 -2.66602 -6.5 -3.99902s0.666992 -2.5 2 -3.5s2 -3.5 2 -7.5
c0 -6.66699 -1.83301 -11 -5.5 -13s-7.83398 -3 -12.501 -3c-12 0 -18 5.33301 -18 16c0 3.33301 1 6.66602 3 9.99902l-298 106l-298 -106c0.666992 -1.33301 1.33398 -3 2.00098 -5s1 -3.66699 1 -5c0 -6.66699 -1.83301 -11 -5.5 -13s-7.83398 -3 -12.501 -3
c-12 0 -18 5.33301 -18 16c0 2.66699 1.33301 6.66699 4 12c-4.66699 1.33301 -8.33398 3.66602 -11.001 6.99902s-4 7 -4 11c0 5.33301 1.66699 9.5 5 12.5s7.66602 4.5 12.999 4.5c8.66699 0 15 -5.33301 19 -16l271 97l-271 96c-4 -10.667 -10.333 -16 -19 -16
c-5.33301 0 -9.66602 1.66699 -12.999 5s-5 7.66602 -5 12.999c0 7.33301 2.5 11.833 7.5 13.5s7.5 3.16699 7.5 4.5s-0.666992 2.5 -2 3.5s-2 3.5 -2 7.5s1.66699 8 5 12s7.66602 6 12.999 6c6.66699 0 11.667 -2.83301 15 -8.5s3.33301 -11.5 0 -17.5l149 -54.5l149 -52.5
l297 106c-1.33301 4 -2 7 -2 9c0 5.33301 1.66699 9.66602 5 12.999s7.66602 5 12.999 5s9.66602 -1.66699 12.999 -5s5 -7.66602 5 -12.999c0 -1.33301 -0.5 -3.16602 -1.5 -5.49902s-1.83301 -4.5 -2.5 -6.5c6 -2 9.66699 -4.33301 11 -7s2 -6 2 -10
c0 -12 -5.66699 -18 -17 -18c-8.66699 0 -15 5.33301 -19 16l-270 -96l271 -97c4 10.667 10 16 18 16c11.333 0 17 -5.66699 17 -17z" />
    <glyph glyph-name="four" unicode="4" 
d="M585 396l-436 0.000976562v7c0 8.66699 2.33301 18 7 28s9 18 13 24c12 16 26.333 29.167 43 39.5s34 18.5 52 24.5s36 10.167 54 12.5s34.333 3.5 49 3.5c22 0 44.333 -2.33301 67 -7s44.667 -12 66 -22c10 -4.66699 20.167 -10.834 30.5 -18.501s19.5 -16 27.5 -25
s14.5 -18.5 19.5 -28.5s7.5 -19.333 7.5 -28v-10zM618 330.001c0 -3.33301 -0.998047 -7.50098 -2.99805 -12.501s-4.5 -9.66699 -7.5 -14s-6.66699 -8 -11 -11s-8.83301 -4.5 -13.5 -4.5h-435c-9.33301 0 -17.5 5 -24.5 15s-10.5 19 -10.5 27s3.66699 16.833 11 26.5
s17 14.5 29 14.5h254c3.33301 0 7.83301 -0.5 13.5 -1.5s11.5 -2.16699 17.5 -3.5s11.333 -2.66602 16 -3.99902s7.66699 -2.33301 9 -3c3.33301 -1.33301 7 -3.83301 11 -7.5s6.66699 -7.16699 8 -10.5l4 -8l2.5 -5c1 -2 2.16699 -3.66699 3.5 -5
c7.33301 16 19.166 28 35.499 36s31.166 12 44.499 12c11.333 0 21.833 -3.33301 31.5 -10s14.5 -17 14.5 -31zM584.002 254c0 -8.66699 -2.5 -17.8311 -7.5 -27.498s-11.5 -18.667 -19.5 -27s-16.833 -15.166 -26.5 -20.499s-19.167 -8 -28.5 -8h-271
c-10 0 -19.833 2.66699 -29.5 8s-18.5 12.166 -26.5 20.499s-14.333 17.666 -19 27.999s-7 20.166 -7 29.499v7h435v-10zM706.002 -56.9971c0 -8.66699 -2.16211 -13.666 -6.49512 -14.999s-6.5 -2.66602 -6.5 -3.99902s0.666992 -2.5 2 -3.5s2 -3.5 2 -7.5
c0 -6.66699 -1.83301 -11 -5.5 -13s-7.83398 -3 -12.501 -3c-12 0 -18 5.33301 -18 16c0 3.33301 1 6.66602 3 9.99902l-298 106l-298 -106c0.666992 -1.33301 1.33398 -3 2.00098 -5s1 -3.66699 1 -5c0 -6.66699 -1.83301 -11 -5.5 -13s-7.83398 -3 -12.501 -3
c-12 0 -18 5.33301 -18 16c0 2.66699 1.33301 6.66699 4 12c-4.66699 1.33301 -8.33398 3.66602 -11.001 6.99902s-4 7 -4 11c0 5.33301 1.66699 9.5 5 12.5s7.66602 4.5 12.999 4.5c8.66699 0 15 -5.33301 19 -16l271 97l-271 96c-4 -10.667 -10.333 -16 -19 -16
c-5.33301 0 -9.66602 1.66699 -12.999 5s-5 7.66602 -5 12.999c0 7.33301 2.5 11.833 7.5 13.5s7.5 3.16699 7.5 4.5s-0.666992 2.5 -2 3.5s-2 3.5 -2 7.5s1.66699 8 5 12s7.66602 6 12.999 6c6.66699 0 11.667 -2.83301 15 -8.5s3.33301 -11.5 0 -17.5l149 -54.5l149 -52.5
l297 106c-1.33301 4 -2 7 -2 9c0 5.33301 1.66699 9.66602 5 12.999s7.66602 5 12.999 5s9.66602 -1.66699 12.999 -5s5 -7.66602 5 -12.999c0 -1.33301 -0.5 -3.16602 -1.5 -5.49902s-1.83301 -4.5 -2.5 -6.5c6 -2 9.66699 -4.33301 11 -7s2 -6 2 -10
c0 -12 -5.66699 -18 -17 -18c-8.66699 0 -15 5.33301 -19 16l-270 -96l271 -97c4 10.667 10 16 18 16c11.333 0 17 -5.66699 17 -17z" />
    <glyph glyph-name="five" unicode="5" 
d="M585 396l-436 0.000976562v7c0 8.66699 2.33301 18 7 28s9 18 13 24c12 16 26.333 29.167 43 39.5s34 18.5 52 24.5s36 10.167 54 12.5s34.333 3.5 49 3.5c22 0 44.333 -2.33301 67 -7s44.667 -12 66 -22c10 -4.66699 20.167 -10.834 30.5 -18.501s19.5 -16 27.5 -25
s14.5 -18.5 19.5 -28.5s7.5 -19.333 7.5 -28v-10zM618 330.001c0 -3.33301 -0.998047 -7.50098 -2.99805 -12.501s-4.5 -9.66699 -7.5 -14s-6.66699 -8 -11 -11s-8.83301 -4.5 -13.5 -4.5h-435c-9.33301 0 -17.5 5 -24.5 15s-10.5 19 -10.5 27s3.66699 16.833 11 26.5
s17 14.5 29 14.5h254c3.33301 0 7.83301 -0.5 13.5 -1.5s11.5 -2.16699 17.5 -3.5s11.333 -2.66602 16 -3.99902s7.66699 -2.33301 9 -3c3.33301 -1.33301 7 -3.83301 11 -7.5s6.66699 -7.16699 8 -10.5l4 -8l2.5 -5c1 -2 2.16699 -3.66699 3.5 -5
c7.33301 16 19.166 28 35.499 36s31.166 12 44.499 12c11.333 0 21.833 -3.33301 31.5 -10s14.5 -17 14.5 -31zM584.002 254c0 -8.66699 -2.5 -17.8311 -7.5 -27.498s-11.5 -18.667 -19.5 -27s-16.833 -15.166 -26.5 -20.499s-19.167 -8 -28.5 -8h-271
c-10 0 -19.833 2.66699 -29.5 8s-18.5 12.166 -26.5 20.499s-14.333 17.666 -19 27.999s-7 20.166 -7 29.499v7h435v-10zM706.002 -56.9971c0 -8.66699 -2.16211 -13.666 -6.49512 -14.999s-6.5 -2.66602 -6.5 -3.99902s0.666992 -2.5 2 -3.5s2 -3.5 2 -7.5
c0 -6.66699 -1.83301 -11 -5.5 -13s-7.83398 -3 -12.501 -3c-12 0 -18 5.33301 -18 16c0 3.33301 1 6.66602 3 9.99902l-298 106l-298 -106c0.666992 -1.33301 1.33398 -3 2.00098 -5s1 -3.66699 1 -5c0 -6.66699 -1.83301 -11 -5.5 -13s-7.83398 -3 -12.501 -3
c-12 0 -18 5.33301 -18 16c0 2.66699 1.33301 6.66699 4 12c-4.66699 1.33301 -8.33398 3.66602 -11.001 6.99902s-4 7 -4 11c0 5.33301 1.66699 9.5 5 12.5s7.66602 4.5 12.999 4.5c8.66699 0 15 -5.33301 19 -16l271 97l-271 96c-4 -10.667 -10.333 -16 -19 -16
c-5.33301 0 -9.66602 1.66699 -12.999 5s-5 7.66602 -5 12.999c0 7.33301 2.5 11.833 7.5 13.5s7.5 3.16699 7.5 4.5s-0.666992 2.5 -2 3.5s-2 3.5 -2 7.5s1.66699 8 5 12s7.66602 6 12.999 6c6.66699 0 11.667 -2.83301 15 -8.5s3.33301 -11.5 0 -17.5l149 -54.5l149 -52.5
l297 106c-1.33301 4 -2 7 -2 9c0 5.33301 1.66699 9.66602 5 12.999s7.66602 5 12.999 5s9.66602 -1.66699 12.999 -5s5 -7.66602 5 -12.999c0 -1.33301 -0.5 -3.16602 -1.5 -5.49902s-1.83301 -4.5 -2.5 -6.5c6 -2 9.66699 -4.33301 11 -7s2 -6 2 -10
c0 -12 -5.66699 -18 -17 -18c-8.66699 0 -15 5.33301 -19 16l-270 -96l271 -97c4 10.667 10 16 18 16c11.333 0 17 -5.66699 17 -17z" />
    <glyph glyph-name="six" unicode="6" 
d="M585 396l-436 0.000976562v7c0 8.66699 2.33301 18 7 28s9 18 13 24c12 16 26.333 29.167 43 39.5s34 18.5 52 24.5s36 10.167 54 12.5s34.333 3.5 49 3.5c22 0 44.333 -2.33301 67 -7s44.667 -12 66 -22c10 -4.66699 20.167 -10.834 30.5 -18.501s19.5 -16 27.5 -25
s14.5 -18.5 19.5 -28.5s7.5 -19.333 7.5 -28v-10zM618 330.001c0 -3.33301 -0.998047 -7.50098 -2.99805 -12.501s-4.5 -9.66699 -7.5 -14s-6.66699 -8 -11 -11s-8.83301 -4.5 -13.5 -4.5h-435c-9.33301 0 -17.5 5 -24.5 15s-10.5 19 -10.5 27s3.66699 16.833 11 26.5
s17 14.5 29 14.5h254c3.33301 0 7.83301 -0.5 13.5 -1.5s11.5 -2.16699 17.5 -3.5s11.333 -2.66602 16 -3.99902s7.66699 -2.33301 9 -3c3.33301 -1.33301 7 -3.83301 11 -7.5s6.66699 -7.16699 8 -10.5l4 -8l2.5 -5c1 -2 2.16699 -3.66699 3.5 -5
c7.33301 16 19.166 28 35.499 36s31.166 12 44.499 12c11.333 0 21.833 -3.33301 31.5 -10s14.5 -17 14.5 -31zM584.002 254c0 -8.66699 -2.5 -17.8311 -7.5 -27.498s-11.5 -18.667 -19.5 -27s-16.833 -15.166 -26.5 -20.499s-19.167 -8 -28.5 -8h-271
c-10 0 -19.833 2.66699 -29.5 8s-18.5 12.166 -26.5 20.499s-14.333 17.666 -19 27.999s-7 20.166 -7 29.499v7h435v-10zM706.002 -56.9971c0 -8.66699 -2.16211 -13.666 -6.49512 -14.999s-6.5 -2.66602 -6.5 -3.99902s0.666992 -2.5 2 -3.5s2 -3.5 2 -7.5
c0 -6.66699 -1.83301 -11 -5.5 -13s-7.83398 -3 -12.501 -3c-12 0 -18 5.33301 -18 16c0 3.33301 1 6.66602 3 9.99902l-298 106l-298 -106c0.666992 -1.33301 1.33398 -3 2.00098 -5s1 -3.66699 1 -5c0 -6.66699 -1.83301 -11 -5.5 -13s-7.83398 -3 -12.501 -3
c-12 0 -18 5.33301 -18 16c0 2.66699 1.33301 6.66699 4 12c-4.66699 1.33301 -8.33398 3.66602 -11.001 6.99902s-4 7 -4 11c0 5.33301 1.66699 9.5 5 12.5s7.66602 4.5 12.999 4.5c8.66699 0 15 -5.33301 19 -16l271 97l-271 96c-4 -10.667 -10.333 -16 -19 -16
c-5.33301 0 -9.66602 1.66699 -12.999 5s-5 7.66602 -5 12.999c0 7.33301 2.5 11.833 7.5 13.5s7.5 3.16699 7.5 4.5s-0.666992 2.5 -2 3.5s-2 3.5 -2 7.5s1.66699 8 5 12s7.66602 6 12.999 6c6.66699 0 11.667 -2.83301 15 -8.5s3.33301 -11.5 0 -17.5l149 -54.5l149 -52.5
l297 106c-1.33301 4 -2 7 -2 9c0 5.33301 1.66699 9.66602 5 12.999s7.66602 5 12.999 5s9.66602 -1.66699 12.999 -5s5 -7.66602 5 -12.999c0 -1.33301 -0.5 -3.16602 -1.5 -5.49902s-1.83301 -4.5 -2.5 -6.5c6 -2 9.66699 -4.33301 11 -7s2 -6 2 -10
c0 -12 -5.66699 -18 -17 -18c-8.66699 0 -15 5.33301 -19 16l-270 -96l271 -97c4 10.667 10 16 18 16c11.333 0 17 -5.66699 17 -17z" />
    <glyph glyph-name="seven" unicode="7" 
d="M585 396l-436 0.000976562v7c0 8.66699 2.33301 18 7 28s9 18 13 24c12 16 26.333 29.167 43 39.5s34 18.5 52 24.5s36 10.167 54 12.5s34.333 3.5 49 3.5c22 0 44.333 -2.33301 67 -7s44.667 -12 66 -22c10 -4.66699 20.167 -10.834 30.5 -18.501s19.5 -16 27.5 -25
s14.5 -18.5 19.5 -28.5s7.5 -19.333 7.5 -28v-10zM618 330.001c0 -3.33301 -0.998047 -7.50098 -2.99805 -12.501s-4.5 -9.66699 -7.5 -14s-6.66699 -8 -11 -11s-8.83301 -4.5 -13.5 -4.5h-435c-9.33301 0 -17.5 5 -24.5 15s-10.5 19 -10.5 27s3.66699 16.833 11 26.5
s17 14.5 29 14.5h254c3.33301 0 7.83301 -0.5 13.5 -1.5s11.5 -2.16699 17.5 -3.5s11.333 -2.66602 16 -3.99902s7.66699 -2.33301 9 -3c3.33301 -1.33301 7 -3.83301 11 -7.5s6.66699 -7.16699 8 -10.5l4 -8l2.5 -5c1 -2 2.16699 -3.66699 3.5 -5
c7.33301 16 19.166 28 35.499 36s31.166 12 44.499 12c11.333 0 21.833 -3.33301 31.5 -10s14.5 -17 14.5 -31zM584.002 254c0 -8.66699 -2.5 -17.8311 -7.5 -27.498s-11.5 -18.667 -19.5 -27s-16.833 -15.166 -26.5 -20.499s-19.167 -8 -28.5 -8h-271
c-10 0 -19.833 2.66699 -29.5 8s-18.5 12.166 -26.5 20.499s-14.333 17.666 -19 27.999s-7 20.166 -7 29.499v7h435v-10zM706.002 -56.9971c0 -8.66699 -2.16211 -13.666 -6.49512 -14.999s-6.5 -2.66602 -6.5 -3.99902s0.666992 -2.5 2 -3.5s2 -3.5 2 -7.5
c0 -6.66699 -1.83301 -11 -5.5 -13s-7.83398 -3 -12.501 -3c-12 0 -18 5.33301 -18 16c0 3.33301 1 6.66602 3 9.99902l-298 106l-298 -106c0.666992 -1.33301 1.33398 -3 2.00098 -5s1 -3.66699 1 -5c0 -6.66699 -1.83301 -11 -5.5 -13s-7.83398 -3 -12.501 -3
c-12 0 -18 5.33301 -18 16c0 2.66699 1.33301 6.66699 4 12c-4.66699 1.33301 -8.33398 3.66602 -11.001 6.99902s-4 7 -4 11c0 5.33301 1.66699 9.5 5 12.5s7.66602 4.5 12.999 4.5c8.66699 0 15 -5.33301 19 -16l271 97l-271 96c-4 -10.667 -10.333 -16 -19 -16
c-5.33301 0 -9.66602 1.66699 -12.999 5s-5 7.66602 -5 12.999c0 7.33301 2.5 11.833 7.5 13.5s7.5 3.16699 7.5 4.5s-0.666992 2.5 -2 3.5s-2 3.5 -2 7.5s1.66699 8 5 12s7.66602 6 12.999 6c6.66699 0 11.667 -2.83301 15 -8.5s3.33301 -11.5 0 -17.5l149 -54.5l149 -52.5
l297 106c-1.33301 4 -2 7 -2 9c0 5.33301 1.66699 9.66602 5 12.999s7.66602 5 12.999 5s9.66602 -1.66699 12.999 -5s5 -7.66602 5 -12.999c0 -1.33301 -0.5 -3.16602 -1.5 -5.49902s-1.83301 -4.5 -2.5 -6.5c6 -2 9.66699 -4.33301 11 -7s2 -6 2 -10
c0 -12 -5.66699 -18 -17 -18c-8.66699 0 -15 5.33301 -19 16l-270 -96l271 -97c4 10.667 10 16 18 16c11.333 0 17 -5.66699 17 -17z" />
    <glyph glyph-name="eight" unicode="8" 
d="M585 396l-436 0.000976562v7c0 8.66699 2.33301 18 7 28s9 18 13 24c12 16 26.333 29.167 43 39.5s34 18.5 52 24.5s36 10.167 54 12.5s34.333 3.5 49 3.5c22 0 44.333 -2.33301 67 -7s44.667 -12 66 -22c10 -4.66699 20.167 -10.834 30.5 -18.501s19.5 -16 27.5 -25
s14.5 -18.5 19.5 -28.5s7.5 -19.333 7.5 -28v-10zM618 330.001c0 -3.33301 -0.998047 -7.50098 -2.99805 -12.501s-4.5 -9.66699 -7.5 -14s-6.66699 -8 -11 -11s-8.83301 -4.5 -13.5 -4.5h-435c-9.33301 0 -17.5 5 -24.5 15s-10.5 19 -10.5 27s3.66699 16.833 11 26.5
s17 14.5 29 14.5h254c3.33301 0 7.83301 -0.5 13.5 -1.5s11.5 -2.16699 17.5 -3.5s11.333 -2.66602 16 -3.99902s7.66699 -2.33301 9 -3c3.33301 -1.33301 7 -3.83301 11 -7.5s6.66699 -7.16699 8 -10.5l4 -8l2.5 -5c1 -2 2.16699 -3.66699 3.5 -5
c7.33301 16 19.166 28 35.499 36s31.166 12 44.499 12c11.333 0 21.833 -3.33301 31.5 -10s14.5 -17 14.5 -31zM584.002 254c0 -8.66699 -2.5 -17.8311 -7.5 -27.498s-11.5 -18.667 -19.5 -27s-16.833 -15.166 -26.5 -20.499s-19.167 -8 -28.5 -8h-271
c-10 0 -19.833 2.66699 -29.5 8s-18.5 12.166 -26.5 20.499s-14.333 17.666 -19 27.999s-7 20.166 -7 29.499v7h435v-10zM706.002 -56.9971c0 -8.66699 -2.16211 -13.666 -6.49512 -14.999s-6.5 -2.66602 -6.5 -3.99902s0.666992 -2.5 2 -3.5s2 -3.5 2 -7.5
c0 -6.66699 -1.83301 -11 -5.5 -13s-7.83398 -3 -12.501 -3c-12 0 -18 5.33301 -18 16c0 3.33301 1 6.66602 3 9.99902l-298 106l-298 -106c0.666992 -1.33301 1.33398 -3 2.00098 -5s1 -3.66699 1 -5c0 -6.66699 -1.83301 -11 -5.5 -13s-7.83398 -3 -12.501 -3
c-12 0 -18 5.33301 -18 16c0 2.66699 1.33301 6.66699 4 12c-4.66699 1.33301 -8.33398 3.66602 -11.001 6.99902s-4 7 -4 11c0 5.33301 1.66699 9.5 5 12.5s7.66602 4.5 12.999 4.5c8.66699 0 15 -5.33301 19 -16l271 97l-271 96c-4 -10.667 -10.333 -16 -19 -16
c-5.33301 0 -9.66602 1.66699 -12.999 5s-5 7.66602 -5 12.999c0 7.33301 2.5 11.833 7.5 13.5s7.5 3.16699 7.5 4.5s-0.666992 2.5 -2 3.5s-2 3.5 -2 7.5s1.66699 8 5 12s7.66602 6 12.999 6c6.66699 0 11.667 -2.83301 15 -8.5s3.33301 -11.5 0 -17.5l149 -54.5l149 -52.5
l297 106c-1.33301 4 -2 7 -2 9c0 5.33301 1.66699 9.66602 5 12.999s7.66602 5 12.999 5s9.66602 -1.66699 12.999 -5s5 -7.66602 5 -12.999c0 -1.33301 -0.5 -3.16602 -1.5 -5.49902s-1.83301 -4.5 -2.5 -6.5c6 -2 9.66699 -4.33301 11 -7s2 -6 2 -10
c0 -12 -5.66699 -18 -17 -18c-8.66699 0 -15 5.33301 -19 16l-270 -96l271 -97c4 10.667 10 16 18 16c11.333 0 17 -5.66699 17 -17z" />
    <glyph glyph-name="nine" unicode="9" 
d="M585 396l-436 0.000976562v7c0 8.66699 2.33301 18 7 28s9 18 13 24c12 16 26.333 29.167 43 39.5s34 18.5 52 24.5s36 10.167 54 12.5s34.333 3.5 49 3.5c22 0 44.333 -2.33301 67 -7s44.667 -12 66 -22c10 -4.66699 20.167 -10.834 30.5 -18.501s19.5 -16 27.5 -25
s14.5 -18.5 19.5 -28.5s7.5 -19.333 7.5 -28v-10zM618 330.001c0 -3.33301 -0.998047 -7.50098 -2.99805 -12.501s-4.5 -9.66699 -7.5 -14s-6.66699 -8 -11 -11s-8.83301 -4.5 -13.5 -4.5h-435c-9.33301 0 -17.5 5 -24.5 15s-10.5 19 -10.5 27s3.66699 16.833 11 26.5
s17 14.5 29 14.5h254c3.33301 0 7.83301 -0.5 13.5 -1.5s11.5 -2.16699 17.5 -3.5s11.333 -2.66602 16 -3.99902s7.66699 -2.33301 9 -3c3.33301 -1.33301 7 -3.83301 11 -7.5s6.66699 -7.16699 8 -10.5l4 -8l2.5 -5c1 -2 2.16699 -3.66699 3.5 -5
c7.33301 16 19.166 28 35.499 36s31.166 12 44.499 12c11.333 0 21.833 -3.33301 31.5 -10s14.5 -17 14.5 -31zM584.002 254c0 -8.66699 -2.5 -17.8311 -7.5 -27.498s-11.5 -18.667 -19.5 -27s-16.833 -15.166 -26.5 -20.499s-19.167 -8 -28.5 -8h-271
c-10 0 -19.833 2.66699 -29.5 8s-18.5 12.166 -26.5 20.499s-14.333 17.666 -19 27.999s-7 20.166 -7 29.499v7h435v-10zM706.002 -56.9971c0 -8.66699 -2.16211 -13.666 -6.49512 -14.999s-6.5 -2.66602 -6.5 -3.99902s0.666992 -2.5 2 -3.5s2 -3.5 2 -7.5
c0 -6.66699 -1.83301 -11 -5.5 -13s-7.83398 -3 -12.501 -3c-12 0 -18 5.33301 -18 16c0 3.33301 1 6.66602 3 9.99902l-298 106l-298 -106c0.666992 -1.33301 1.33398 -3 2.00098 -5s1 -3.66699 1 -5c0 -6.66699 -1.83301 -11 -5.5 -13s-7.83398 -3 -12.501 -3
c-12 0 -18 5.33301 -18 16c0 2.66699 1.33301 6.66699 4 12c-4.66699 1.33301 -8.33398 3.66602 -11.001 6.99902s-4 7 -4 11c0 5.33301 1.66699 9.5 5 12.5s7.66602 4.5 12.999 4.5c8.66699 0 15 -5.33301 19 -16l271 97l-271 96c-4 -10.667 -10.333 -16 -19 -16
c-5.33301 0 -9.66602 1.66699 -12.999 5s-5 7.66602 -5 12.999c0 7.33301 2.5 11.833 7.5 13.5s7.5 3.16699 7.5 4.5s-0.666992 2.5 -2 3.5s-2 3.5 -2 7.5s1.66699 8 5 12s7.66602 6 12.999 6c6.66699 0 11.667 -2.83301 15 -8.5s3.33301 -11.5 0 -17.5l149 -54.5l149 -52.5
l297 106c-1.33301 4 -2 7 -2 9c0 5.33301 1.66699 9.66602 5 12.999s7.66602 5 12.999 5s9.66602 -1.66699 12.999 -5s5 -7.66602 5 -12.999c0 -1.33301 -0.5 -3.16602 -1.5 -5.49902s-1.83301 -4.5 -2.5 -6.5c6 -2 9.66699 -4.33301 11 -7s2 -6 2 -10
c0 -12 -5.66699 -18 -17 -18c-8.66699 0 -15 5.33301 -19 16l-270 -96l271 -97c4 10.667 10 16 18 16c11.333 0 17 -5.66699 17 -17z" />
    <glyph glyph-name="colon" unicode=":" 
d="M585 396l-436 0.000976562v7c0 8.66699 2.33301 18 7 28s9 18 13 24c12 16 26.333 29.167 43 39.5s34 18.5 52 24.5s36 10.167 54 12.5s34.333 3.5 49 3.5c22 0 44.333 -2.33301 67 -7s44.667 -12 66 -22c10 -4.66699 20.167 -10.834 30.5 -18.501s19.5 -16 27.5 -25
s14.5 -18.5 19.5 -28.5s7.5 -19.333 7.5 -28v-10zM618 330.001c0 -3.33301 -0.998047 -7.50098 -2.99805 -12.501s-4.5 -9.66699 -7.5 -14s-6.66699 -8 -11 -11s-8.83301 -4.5 -13.5 -4.5h-435c-9.33301 0 -17.5 5 -24.5 15s-10.5 19 -10.5 27s3.66699 16.833 11 26.5
s17 14.5 29 14.5h254c3.33301 0 7.83301 -0.5 13.5 -1.5s11.5 -2.16699 17.5 -3.5s11.333 -2.66602 16 -3.99902s7.66699 -2.33301 9 -3c3.33301 -1.33301 7 -3.83301 11 -7.5s6.66699 -7.16699 8 -10.5l4 -8l2.5 -5c1 -2 2.16699 -3.66699 3.5 -5
c7.33301 16 19.166 28 35.499 36s31.166 12 44.499 12c11.333 0 21.833 -3.33301 31.5 -10s14.5 -17 14.5 -31zM584.002 254c0 -8.66699 -2.5 -17.8311 -7.5 -27.498s-11.5 -18.667 -19.5 -27s-16.833 -15.166 -26.5 -20.499s-19.167 -8 -28.5 -8h-271
c-10 0 -19.833 2.66699 -29.5 8s-18.5 12.166 -26.5 20.499s-14.333 17.666 -19 27.999s-7 20.166 -7 29.499v7h435v-10zM706.002 -56.9971c0 -8.66699 -2.16211 -13.666 -6.49512 -14.999s-6.5 -2.66602 -6.5 -3.99902s0.666992 -2.5 2 -3.5s2 -3.5 2 -7.5
c0 -6.66699 -1.83301 -11 -5.5 -13s-7.83398 -3 -12.501 -3c-12 0 -18 5.33301 -18 16c0 3.33301 1 6.66602 3 9.99902l-298 106l-298 -106c0.666992 -1.33301 1.33398 -3 2.00098 -5s1 -3.66699 1 -5c0 -6.66699 -1.83301 -11 -5.5 -13s-7.83398 -3 -12.501 -3
c-12 0 -18 5.33301 -18 16c0 2.66699 1.33301 6.66699 4 12c-4.66699 1.33301 -8.33398 3.66602 -11.001 6.99902s-4 7 -4 11c0 5.33301 1.66699 9.5 5 12.5s7.66602 4.5 12.999 4.5c8.66699 0 15 -5.33301 19 -16l271 97l-271 96c-4 -10.667 -10.333 -16 -19 -16
c-5.33301 0 -9.66602 1.66699 -12.999 5s-5 7.66602 -5 12.999c0 7.33301 2.5 11.833 7.5 13.5s7.5 3.16699 7.5 4.5s-0.666992 2.5 -2 3.5s-2 3.5 -2 7.5s1.66699 8 5 12s7.66602 6 12.999 6c6.66699 0 11.667 -2.83301 15 -8.5s3.33301 -11.5 0 -17.5l149 -54.5l149 -52.5
l297 106c-1.33301 4 -2 7 -2 9c0 5.33301 1.66699 9.66602 5 12.999s7.66602 5 12.999 5s9.66602 -1.66699 12.999 -5s5 -7.66602 5 -12.999c0 -1.33301 -0.5 -3.16602 -1.5 -5.49902s-1.83301 -4.5 -2.5 -6.5c6 -2 9.66699 -4.33301 11 -7s2 -6 2 -10
c0 -12 -5.66699 -18 -17 -18c-8.66699 0 -15 5.33301 -19 16l-270 -96l271 -97c4 10.667 10 16 18 16c11.333 0 17 -5.66699 17 -17z" />
    <glyph glyph-name="semicolon" unicode=";" 
d="M585 396l-436 0.000976562v7c0 8.66699 2.33301 18 7 28s9 18 13 24c12 16 26.333 29.167 43 39.5s34 18.5 52 24.5s36 10.167 54 12.5s34.333 3.5 49 3.5c22 0 44.333 -2.33301 67 -7s44.667 -12 66 -22c10 -4.66699 20.167 -10.834 30.5 -18.501s19.5 -16 27.5 -25
s14.5 -18.5 19.5 -28.5s7.5 -19.333 7.5 -28v-10zM618 330.001c0 -3.33301 -0.998047 -7.50098 -2.99805 -12.501s-4.5 -9.66699 -7.5 -14s-6.66699 -8 -11 -11s-8.83301 -4.5 -13.5 -4.5h-435c-9.33301 0 -17.5 5 -24.5 15s-10.5 19 -10.5 27s3.66699 16.833 11 26.5
s17 14.5 29 14.5h254c3.33301 0 7.83301 -0.5 13.5 -1.5s11.5 -2.16699 17.5 -3.5s11.333 -2.66602 16 -3.99902s7.66699 -2.33301 9 -3c3.33301 -1.33301 7 -3.83301 11 -7.5s6.66699 -7.16699 8 -10.5l4 -8l2.5 -5c1 -2 2.16699 -3.66699 3.5 -5
c7.33301 16 19.166 28 35.499 36s31.166 12 44.499 12c11.333 0 21.833 -3.33301 31.5 -10s14.5 -17 14.5 -31zM584.002 254c0 -8.66699 -2.5 -17.8311 -7.5 -27.498s-11.5 -18.667 -19.5 -27s-16.833 -15.166 -26.5 -20.499s-19.167 -8 -28.5 -8h-271
c-10 0 -19.833 2.66699 -29.5 8s-18.5 12.166 -26.5 20.499s-14.333 17.666 -19 27.999s-7 20.166 -7 29.499v7h435v-10zM706.002 -56.9971c0 -8.66699 -2.16211 -13.666 -6.49512 -14.999s-6.5 -2.66602 -6.5 -3.99902s0.666992 -2.5 2 -3.5s2 -3.5 2 -7.5
c0 -6.66699 -1.83301 -11 -5.5 -13s-7.83398 -3 -12.501 -3c-12 0 -18 5.33301 -18 16c0 3.33301 1 6.66602 3 9.99902l-298 106l-298 -106c0.666992 -1.33301 1.33398 -3 2.00098 -5s1 -3.66699 1 -5c0 -6.66699 -1.83301 -11 -5.5 -13s-7.83398 -3 -12.501 -3
c-12 0 -18 5.33301 -18 16c0 2.66699 1.33301 6.66699 4 12c-4.66699 1.33301 -8.33398 3.66602 -11.001 6.99902s-4 7 -4 11c0 5.33301 1.66699 9.5 5 12.5s7.66602 4.5 12.999 4.5c8.66699 0 15 -5.33301 19 -16l271 97l-271 96c-4 -10.667 -10.333 -16 -19 -16
c-5.33301 0 -9.66602 1.66699 -12.999 5s-5 7.66602 -5 12.999c0 7.33301 2.5 11.833 7.5 13.5s7.5 3.16699 7.5 4.5s-0.666992 2.5 -2 3.5s-2 3.5 -2 7.5s1.66699 8 5 12s7.66602 6 12.999 6c6.66699 0 11.667 -2.83301 15 -8.5s3.33301 -11.5 0 -17.5l149 -54.5l149 -52.5
l297 106c-1.33301 4 -2 7 -2 9c0 5.33301 1.66699 9.66602 5 12.999s7.66602 5 12.999 5s9.66602 -1.66699 12.999 -5s5 -7.66602 5 -12.999c0 -1.33301 -0.5 -3.16602 -1.5 -5.49902s-1.83301 -4.5 -2.5 -6.5c6 -2 9.66699 -4.33301 11 -7s2 -6 2 -10
c0 -12 -5.66699 -18 -17 -18c-8.66699 0 -15 5.33301 -19 16l-270 -96l271 -97c4 10.667 10 16 18 16c11.333 0 17 -5.66699 17 -17z" />
    <glyph glyph-name="less" unicode="&#x3c;" 
d="M585 396l-436 0.000976562v7c0 8.66699 2.33301 18 7 28s9 18 13 24c12 16 26.333 29.167 43 39.5s34 18.5 52 24.5s36 10.167 54 12.5s34.333 3.5 49 3.5c22 0 44.333 -2.33301 67 -7s44.667 -12 66 -22c10 -4.66699 20.167 -10.834 30.5 -18.501s19.5 -16 27.5 -25
s14.5 -18.5 19.5 -28.5s7.5 -19.333 7.5 -28v-10zM618 330.001c0 -3.33301 -0.998047 -7.50098 -2.99805 -12.501s-4.5 -9.66699 -7.5 -14s-6.66699 -8 -11 -11s-8.83301 -4.5 -13.5 -4.5h-435c-9.33301 0 -17.5 5 -24.5 15s-10.5 19 -10.5 27s3.66699 16.833 11 26.5
s17 14.5 29 14.5h254c3.33301 0 7.83301 -0.5 13.5 -1.5s11.5 -2.16699 17.5 -3.5s11.333 -2.66602 16 -3.99902s7.66699 -2.33301 9 -3c3.33301 -1.33301 7 -3.83301 11 -7.5s6.66699 -7.16699 8 -10.5l4 -8l2.5 -5c1 -2 2.16699 -3.66699 3.5 -5
c7.33301 16 19.166 28 35.499 36s31.166 12 44.499 12c11.333 0 21.833 -3.33301 31.5 -10s14.5 -17 14.5 -31zM584.002 254c0 -8.66699 -2.5 -17.8311 -7.5 -27.498s-11.5 -18.667 -19.5 -27s-16.833 -15.166 -26.5 -20.499s-19.167 -8 -28.5 -8h-271
c-10 0 -19.833 2.66699 -29.5 8s-18.5 12.166 -26.5 20.499s-14.333 17.666 -19 27.999s-7 20.166 -7 29.499v7h435v-10zM706.002 -56.9971c0 -8.66699 -2.16211 -13.666 -6.49512 -14.999s-6.5 -2.66602 -6.5 -3.99902s0.666992 -2.5 2 -3.5s2 -3.5 2 -7.5
c0 -6.66699 -1.83301 -11 -5.5 -13s-7.83398 -3 -12.501 -3c-12 0 -18 5.33301 -18 16c0 3.33301 1 6.66602 3 9.99902l-298 106l-298 -106c0.666992 -1.33301 1.33398 -3 2.00098 -5s1 -3.66699 1 -5c0 -6.66699 -1.83301 -11 -5.5 -13s-7.83398 -3 -12.501 -3
c-12 0 -18 5.33301 -18 16c0 2.66699 1.33301 6.66699 4 12c-4.66699 1.33301 -8.33398 3.66602 -11.001 6.99902s-4 7 -4 11c0 5.33301 1.66699 9.5 5 12.5s7.66602 4.5 12.999 4.5c8.66699 0 15 -5.33301 19 -16l271 97l-271 96c-4 -10.667 -10.333 -16 -19 -16
c-5.33301 0 -9.66602 1.66699 -12.999 5s-5 7.66602 -5 12.999c0 7.33301 2.5 11.833 7.5 13.5s7.5 3.16699 7.5 4.5s-0.666992 2.5 -2 3.5s-2 3.5 -2 7.5s1.66699 8 5 12s7.66602 6 12.999 6c6.66699 0 11.667 -2.83301 15 -8.5s3.33301 -11.5 0 -17.5l149 -54.5l149 -52.5
l297 106c-1.33301 4 -2 7 -2 9c0 5.33301 1.66699 9.66602 5 12.999s7.66602 5 12.999 5s9.66602 -1.66699 12.999 -5s5 -7.66602 5 -12.999c0 -1.33301 -0.5 -3.16602 -1.5 -5.49902s-1.83301 -4.5 -2.5 -6.5c6 -2 9.66699 -4.33301 11 -7s2 -6 2 -10
c0 -12 -5.66699 -18 -17 -18c-8.66699 0 -15 5.33301 -19 16l-270 -96l271 -97c4 10.667 10 16 18 16c11.333 0 17 -5.66699 17 -17z" />
    <glyph glyph-name="equal" unicode="=" 
d="M585 396l-436 0.000976562v7c0 8.66699 2.33301 18 7 28s9 18 13 24c12 16 26.333 29.167 43 39.5s34 18.5 52 24.5s36 10.167 54 12.5s34.333 3.5 49 3.5c22 0 44.333 -2.33301 67 -7s44.667 -12 66 -22c10 -4.66699 20.167 -10.834 30.5 -18.501s19.5 -16 27.5 -25
s14.5 -18.5 19.5 -28.5s7.5 -19.333 7.5 -28v-10zM618 330.001c0 -3.33301 -0.998047 -7.50098 -2.99805 -12.501s-4.5 -9.66699 -7.5 -14s-6.66699 -8 -11 -11s-8.83301 -4.5 -13.5 -4.5h-435c-9.33301 0 -17.5 5 -24.5 15s-10.5 19 -10.5 27s3.66699 16.833 11 26.5
s17 14.5 29 14.5h254c3.33301 0 7.83301 -0.5 13.5 -1.5s11.5 -2.16699 17.5 -3.5s11.333 -2.66602 16 -3.99902s7.66699 -2.33301 9 -3c3.33301 -1.33301 7 -3.83301 11 -7.5s6.66699 -7.16699 8 -10.5l4 -8l2.5 -5c1 -2 2.16699 -3.66699 3.5 -5
c7.33301 16 19.166 28 35.499 36s31.166 12 44.499 12c11.333 0 21.833 -3.33301 31.5 -10s14.5 -17 14.5 -31zM584.002 254c0 -8.66699 -2.5 -17.8311 -7.5 -27.498s-11.5 -18.667 -19.5 -27s-16.833 -15.166 -26.5 -20.499s-19.167 -8 -28.5 -8h-271
c-10 0 -19.833 2.66699 -29.5 8s-18.5 12.166 -26.5 20.499s-14.333 17.666 -19 27.999s-7 20.166 -7 29.499v7h435v-10zM706.002 -56.9971c0 -8.66699 -2.16211 -13.666 -6.49512 -14.999s-6.5 -2.66602 -6.5 -3.99902s0.666992 -2.5 2 -3.5s2 -3.5 2 -7.5
c0 -6.66699 -1.83301 -11 -5.5 -13s-7.83398 -3 -12.501 -3c-12 0 -18 5.33301 -18 16c0 3.33301 1 6.66602 3 9.99902l-298 106l-298 -106c0.666992 -1.33301 1.33398 -3 2.00098 -5s1 -3.66699 1 -5c0 -6.66699 -1.83301 -11 -5.5 -13s-7.83398 -3 -12.501 -3
c-12 0 -18 5.33301 -18 16c0 2.66699 1.33301 6.66699 4 12c-4.66699 1.33301 -8.33398 3.66602 -11.001 6.99902s-4 7 -4 11c0 5.33301 1.66699 9.5 5 12.5s7.66602 4.5 12.999 4.5c8.66699 0 15 -5.33301 19 -16l271 97l-271 96c-4 -10.667 -10.333 -16 -19 -16
c-5.33301 0 -9.66602 1.66699 -12.999 5s-5 7.66602 -5 12.999c0 7.33301 2.5 11.833 7.5 13.5s7.5 3.16699 7.5 4.5s-0.666992 2.5 -2 3.5s-2 3.5 -2 7.5s1.66699 8 5 12s7.66602 6 12.999 6c6.66699 0 11.667 -2.83301 15 -8.5s3.33301 -11.5 0 -17.5l149 -54.5l149 -52.5
l297 106c-1.33301 4 -2 7 -2 9c0 5.33301 1.66699 9.66602 5 12.999s7.66602 5 12.999 5s9.66602 -1.66699 12.999 -5s5 -7.66602 5 -12.999c0 -1.33301 -0.5 -3.16602 -1.5 -5.49902s-1.83301 -4.5 -2.5 -6.5c6 -2 9.66699 -4.33301 11 -7s2 -6 2 -10
c0 -12 -5.66699 -18 -17 -18c-8.66699 0 -15 5.33301 -19 16l-270 -96l271 -97c4 10.667 10 16 18 16c11.333 0 17 -5.66699 17 -17z" />
    <glyph glyph-name="greater" unicode="&#x3e;" 
d="M585 396l-436 0.000976562v7c0 8.66699 2.33301 18 7 28s9 18 13 24c12 16 26.333 29.167 43 39.5s34 18.5 52 24.5s36 10.167 54 12.5s34.333 3.5 49 3.5c22 0 44.333 -2.33301 67 -7s44.667 -12 66 -22c10 -4.66699 20.167 -10.834 30.5 -18.501s19.5 -16 27.5 -25
s14.5 -18.5 19.5 -28.5s7.5 -19.333 7.5 -28v-10zM618 330.001c0 -3.33301 -0.998047 -7.50098 -2.99805 -12.501s-4.5 -9.66699 -7.5 -14s-6.66699 -8 -11 -11s-8.83301 -4.5 -13.5 -4.5h-435c-9.33301 0 -17.5 5 -24.5 15s-10.5 19 -10.5 27s3.66699 16.833 11 26.5
s17 14.5 29 14.5h254c3.33301 0 7.83301 -0.5 13.5 -1.5s11.5 -2.16699 17.5 -3.5s11.333 -2.66602 16 -3.99902s7.66699 -2.33301 9 -3c3.33301 -1.33301 7 -3.83301 11 -7.5s6.66699 -7.16699 8 -10.5l4 -8l2.5 -5c1 -2 2.16699 -3.66699 3.5 -5
c7.33301 16 19.166 28 35.499 36s31.166 12 44.499 12c11.333 0 21.833 -3.33301 31.5 -10s14.5 -17 14.5 -31zM584.002 254c0 -8.66699 -2.5 -17.8311 -7.5 -27.498s-11.5 -18.667 -19.5 -27s-16.833 -15.166 -26.5 -20.499s-19.167 -8 -28.5 -8h-271
c-10 0 -19.833 2.66699 -29.5 8s-18.5 12.166 -26.5 20.499s-14.333 17.666 -19 27.999s-7 20.166 -7 29.499v7h435v-10zM706.002 -56.9971c0 -8.66699 -2.16211 -13.666 -6.49512 -14.999s-6.5 -2.66602 -6.5 -3.99902s0.666992 -2.5 2 -3.5s2 -3.5 2 -7.5
c0 -6.66699 -1.83301 -11 -5.5 -13s-7.83398 -3 -12.501 -3c-12 0 -18 5.33301 -18 16c0 3.33301 1 6.66602 3 9.99902l-298 106l-298 -106c0.666992 -1.33301 1.33398 -3 2.00098 -5s1 -3.66699 1 -5c0 -6.66699 -1.83301 -11 -5.5 -13s-7.83398 -3 -12.501 -3
c-12 0 -18 5.33301 -18 16c0 2.66699 1.33301 6.66699 4 12c-4.66699 1.33301 -8.33398 3.66602 -11.001 6.99902s-4 7 -4 11c0 5.33301 1.66699 9.5 5 12.5s7.66602 4.5 12.999 4.5c8.66699 0 15 -5.33301 19 -16l271 97l-271 96c-4 -10.667 -10.333 -16 -19 -16
c-5.33301 0 -9.66602 1.66699 -12.999 5s-5 7.66602 -5 12.999c0 7.33301 2.5 11.833 7.5 13.5s7.5 3.16699 7.5 4.5s-0.666992 2.5 -2 3.5s-2 3.5 -2 7.5s1.66699 8 5 12s7.66602 6 12.999 6c6.66699 0 11.667 -2.83301 15 -8.5s3.33301 -11.5 0 -17.5l149 -54.5l149 -52.5
l297 106c-1.33301 4 -2 7 -2 9c0 5.33301 1.66699 9.66602 5 12.999s7.66602 5 12.999 5s9.66602 -1.66699 12.999 -5s5 -7.66602 5 -12.999c0 -1.33301 -0.5 -3.16602 -1.5 -5.49902s-1.83301 -4.5 -2.5 -6.5c6 -2 9.66699 -4.33301 11 -7s2 -6 2 -10
c0 -12 -5.66699 -18 -17 -18c-8.66699 0 -15 5.33301 -19 16l-270 -96l271 -97c4 10.667 10 16 18 16c11.333 0 17 -5.66699 17 -17z" />
    <glyph glyph-name="question" unicode="?" 
d="M585 396l-436 0.000976562v7c0 8.66699 2.33301 18 7 28s9 18 13 24c12 16 26.333 29.167 43 39.5s34 18.5 52 24.5s36 10.167 54 12.5s34.333 3.5 49 3.5c22 0 44.333 -2.33301 67 -7s44.667 -12 66 -22c10 -4.66699 20.167 -10.834 30.5 -18.501s19.5 -16 27.5 -25
s14.5 -18.5 19.5 -28.5s7.5 -19.333 7.5 -28v-10zM618 330.001c0 -3.33301 -0.998047 -7.50098 -2.99805 -12.501s-4.5 -9.66699 -7.5 -14s-6.66699 -8 -11 -11s-8.83301 -4.5 -13.5 -4.5h-435c-9.33301 0 -17.5 5 -24.5 15s-10.5 19 -10.5 27s3.66699 16.833 11 26.5
s17 14.5 29 14.5h254c3.33301 0 7.83301 -0.5 13.5 -1.5s11.5 -2.16699 17.5 -3.5s11.333 -2.66602 16 -3.99902s7.66699 -2.33301 9 -3c3.33301 -1.33301 7 -3.83301 11 -7.5s6.66699 -7.16699 8 -10.5l4 -8l2.5 -5c1 -2 2.16699 -3.66699 3.5 -5
c7.33301 16 19.166 28 35.499 36s31.166 12 44.499 12c11.333 0 21.833 -3.33301 31.5 -10s14.5 -17 14.5 -31zM584.002 254c0 -8.66699 -2.5 -17.8311 -7.5 -27.498s-11.5 -18.667 -19.5 -27s-16.833 -15.166 -26.5 -20.499s-19.167 -8 -28.5 -8h-271
c-10 0 -19.833 2.66699 -29.5 8s-18.5 12.166 -26.5 20.499s-14.333 17.666 -19 27.999s-7 20.166 -7 29.499v7h435v-10zM706.002 -56.9971c0 -8.66699 -2.16211 -13.666 -6.49512 -14.999s-6.5 -2.66602 -6.5 -3.99902s0.666992 -2.5 2 -3.5s2 -3.5 2 -7.5
c0 -6.66699 -1.83301 -11 -5.5 -13s-7.83398 -3 -12.501 -3c-12 0 -18 5.33301 -18 16c0 3.33301 1 6.66602 3 9.99902l-298 106l-298 -106c0.666992 -1.33301 1.33398 -3 2.00098 -5s1 -3.66699 1 -5c0 -6.66699 -1.83301 -11 -5.5 -13s-7.83398 -3 -12.501 -3
c-12 0 -18 5.33301 -18 16c0 2.66699 1.33301 6.66699 4 12c-4.66699 1.33301 -8.33398 3.66602 -11.001 6.99902s-4 7 -4 11c0 5.33301 1.66699 9.5 5 12.5s7.66602 4.5 12.999 4.5c8.66699 0 15 -5.33301 19 -16l271 97l-271 96c-4 -10.667 -10.333 -16 -19 -16
c-5.33301 0 -9.66602 1.66699 -12.999 5s-5 7.66602 -5 12.999c0 7.33301 2.5 11.833 7.5 13.5s7.5 3.16699 7.5 4.5s-0.666992 2.5 -2 3.5s-2 3.5 -2 7.5s1.66699 8 5 12s7.66602 6 12.999 6c6.66699 0 11.667 -2.83301 15 -8.5s3.33301 -11.5 0 -17.5l149 -54.5l149 -52.5
l297 106c-1.33301 4 -2 7 -2 9c0 5.33301 1.66699 9.66602 5 12.999s7.66602 5 12.999 5s9.66602 -1.66699 12.999 -5s5 -7.66602 5 -12.999c0 -1.33301 -0.5 -3.16602 -1.5 -5.49902s-1.83301 -4.5 -2.5 -6.5c6 -2 9.66699 -4.33301 11 -7s2 -6 2 -10
c0 -12 -5.66699 -18 -17 -18c-8.66699 0 -15 5.33301 -19 16l-270 -96l271 -97c4 10.667 10 16 18 16c11.333 0 17 -5.66699 17 -17z" />
    <glyph glyph-name="at" unicode="@" 
d="M585 396l-436 0.000976562v7c0 8.66699 2.33301 18 7 28s9 18 13 24c12 16 26.333 29.167 43 39.5s34 18.5 52 24.5s36 10.167 54 12.5s34.333 3.5 49 3.5c22 0 44.333 -2.33301 67 -7s44.667 -12 66 -22c10 -4.66699 20.167 -10.834 30.5 -18.501s19.5 -16 27.5 -25
s14.5 -18.5 19.5 -28.5s7.5 -19.333 7.5 -28v-10zM618 330.001c0 -3.33301 -0.998047 -7.50098 -2.99805 -12.501s-4.5 -9.66699 -7.5 -14s-6.66699 -8 -11 -11s-8.83301 -4.5 -13.5 -4.5h-435c-9.33301 0 -17.5 5 -24.5 15s-10.5 19 -10.5 27s3.66699 16.833 11 26.5
s17 14.5 29 14.5h254c3.33301 0 7.83301 -0.5 13.5 -1.5s11.5 -2.16699 17.5 -3.5s11.333 -2.66602 16 -3.99902s7.66699 -2.33301 9 -3c3.33301 -1.33301 7 -3.83301 11 -7.5s6.66699 -7.16699 8 -10.5l4 -8l2.5 -5c1 -2 2.16699 -3.66699 3.5 -5
c7.33301 16 19.166 28 35.499 36s31.166 12 44.499 12c11.333 0 21.833 -3.33301 31.5 -10s14.5 -17 14.5 -31zM584.002 254c0 -8.66699 -2.5 -17.8311 -7.5 -27.498s-11.5 -18.667 -19.5 -27s-16.833 -15.166 -26.5 -20.499s-19.167 -8 -28.5 -8h-271
c-10 0 -19.833 2.66699 -29.5 8s-18.5 12.166 -26.5 20.499s-14.333 17.666 -19 27.999s-7 20.166 -7 29.499v7h435v-10zM706.002 -56.9971c0 -8.66699 -2.16211 -13.666 -6.49512 -14.999s-6.5 -2.66602 -6.5 -3.99902s0.666992 -2.5 2 -3.5s2 -3.5 2 -7.5
c0 -6.66699 -1.83301 -11 -5.5 -13s-7.83398 -3 -12.501 -3c-12 0 -18 5.33301 -18 16c0 3.33301 1 6.66602 3 9.99902l-298 106l-298 -106c0.666992 -1.33301 1.33398 -3 2.00098 -5s1 -3.66699 1 -5c0 -6.66699 -1.83301 -11 -5.5 -13s-7.83398 -3 -12.501 -3
c-12 0 -18 5.33301 -18 16c0 2.66699 1.33301 6.66699 4 12c-4.66699 1.33301 -8.33398 3.66602 -11.001 6.99902s-4 7 -4 11c0 5.33301 1.66699 9.5 5 12.5s7.66602 4.5 12.999 4.5c8.66699 0 15 -5.33301 19 -16l271 97l-271 96c-4 -10.667 -10.333 -16 -19 -16
c-5.33301 0 -9.66602 1.66699 -12.999 5s-5 7.66602 -5 12.999c0 7.33301 2.5 11.833 7.5 13.5s7.5 3.16699 7.5 4.5s-0.666992 2.5 -2 3.5s-2 3.5 -2 7.5s1.66699 8 5 12s7.66602 6 12.999 6c6.66699 0 11.667 -2.83301 15 -8.5s3.33301 -11.5 0 -17.5l149 -54.5l149 -52.5
l297 106c-1.33301 4 -2 7 -2 9c0 5.33301 1.66699 9.66602 5 12.999s7.66602 5 12.999 5s9.66602 -1.66699 12.999 -5s5 -7.66602 5 -12.999c0 -1.33301 -0.5 -3.16602 -1.5 -5.49902s-1.83301 -4.5 -2.5 -6.5c6 -2 9.66699 -4.33301 11 -7s2 -6 2 -10
c0 -12 -5.66699 -18 -17 -18c-8.66699 0 -15 5.33301 -19 16l-270 -96l271 -97c4 10.667 10 16 18 16c11.333 0 17 -5.66699 17 -17z" />
    <glyph glyph-name="A" unicode="A" horiz-adv-x="360" 
d="M281 -4l-35.999 -0.000976562l-22.5 54c-7.66699 18 -14.5 36 -20.5 54c-0.666992 2.66699 -2.5 5.33398 -5.5 8.00098s-6.33301 5.16699 -10 7.5s-7.33398 4.33301 -11.001 6s-6.16699 2.5 -7.5 2.5h-114l-52 -132h-3l122 318h37zM192.001 130.999l-68 177l-70 -177h138
z" />
    <glyph glyph-name="B" unicode="B" horiz-adv-x="327" 
d="M250 82c0 -15.333 -4.83398 -31.001 -14.501 -47.001s-25.167 -27.667 -46.5 -35l-10 -2.5c-4 -1 -6.66699 -1.5 -8 -1.5h-172v318h131c2.66699 0 6.83398 -0.833008 12.501 -2.5s10.5 -3.16699 14.5 -4.5c15.333 -7.33301 26.333 -17.5 33 -30.5s10 -25.167 10 -36.5
c0 -13.333 -4 -26.666 -12 -39.999s-21.667 -23.666 -41 -30.999c3.33301 -0.666992 7.33301 -0.833984 12 -0.500977s9 0.166016 13 -0.500977c13.333 -2 25 -5.83301 35 -11.5s18.167 -12.5 24.5 -20.5s11 -16.667 14 -26s4.5 -18.666 4.5 -27.999zM196.999 239.999
c0 13.333 -4.49902 26.667 -13.499 40s-22.167 22.666 -39.5 27.999c-2.66699 0.666992 -5.5 1.33398 -8.5 2.00098s-5.16699 1 -6.5 1h-93v-142h92c19.333 0 35.666 7.33301 48.999 22s20 31 20 49zM247 82c0 16.667 -5.16797 32.6699 -15.501 48.0029
s-26.166 26.333 -47.499 33c-3.33301 0.666992 -6.5 1.33398 -9.5 2.00098s-5.16699 0.666992 -6.5 0h-132v-142c0 -6 3.16699 -11.5 9.5 -16.5s11.833 -7.5 16.5 -7.5h110c1.33301 0 4.5 0.666992 9.5 2s9.16699 2.66602 12.5 3.99902c10 3.33301 18.333 8.16602 25 14.499
s12 13.166 16 20.499s7 14.666 9 21.999s3 14 3 20z" />
    <glyph glyph-name="C" unicode="C" horiz-adv-x="378" 
d="M295 74c-17.333 -28.667 -38.8369 -48.833 -64.5039 -60.5s-49.834 -17.5 -72.501 -17.5c-22 0 -42.667 4.16699 -62 12.5s-36 19.833 -50 34.5s-25.167 31.667 -33.5 51s-12.5 39.666 -12.5 60.999c0 22 4.16699 42.667 12.5 62s19.833 36.166 34.5 50.499
s31.5 25.666 50.5 33.999s39.167 12.5 60.5 12.5c9.33301 0 18.833 -0.666992 28.5 -2s19.834 -4.33301 30.501 -9c5.33301 -2 11 -4.83301 17 -8.5l17 -10.5c0.666992 -0.666992 3 -2.66699 7 -6s8.33301 -7.16602 13 -11.499s8.66699 -8.5 12 -12.5s5 -7.33301 5 -10
c0 -1.33301 -0.5 -5.66602 -1.5 -12.999s-1.5 -13.666 -1.5 -18.999c0.666992 -1.33301 1 -2.5 1 -3.5s0.333008 -2.16699 1 -3.5c-10 13.333 -17.167 26.166 -21.5 38.499s-9.16602 24.5 -14.499 36.5c-0.666992 1.33301 -2 2.33301 -4 3s-3.66699 1.66699 -5 3l-10.5 6
c-3.66699 2 -7.5 3.66699 -11.5 5c-11.333 5.33301 -22.166 9 -32.499 11s-20.166 3 -29.499 3c-8 0 -16.833 -0.5 -26.5 -1.5s-18.5 -4.16699 -26.5 -9.5c-12.667 -8 -23.167 -18.333 -31.5 -31s-14.833 -25.667 -19.5 -39s-7.83398 -26.666 -9.50098 -39.999
s-2.5 -25 -2.5 -35c0 -12 0.833008 -24.833 2.5 -38.5s4.83398 -27 9.50098 -40s11.167 -25.333 19.5 -37s18.833 -21.5 31.5 -29.5c5.33301 -3.33301 13.333 -6 24 -8s20.334 -3 29.001 -3c22 0 45.5 5.83301 70.5 17.5s46.167 31.5 63.5 59.5
c0 -0.666992 0.333008 -1 1 -1s1 -0.166992 1 -0.5s0.333008 -0.5 1 -0.5z" />
    <glyph glyph-name="D" unicode="D" horiz-adv-x="367" 
d="M272 155c0 -28.667 -8.50195 -57.334 -25.502 -86.001s-44.833 -50.334 -83.5 -65.001l-18 -4.5c-9.33301 -2.33301 -16.333 -3.5 -21 -3.5h-125v318h125c2.66699 0 6.33398 -0.5 11.001 -1.5l14 -3c4.66699 -1 8.66699 -2 12 -3l5 -1.5
c18.667 -7.33301 34.834 -16.666 48.501 -27.999s24.667 -23.666 33 -36.999s14.5 -27.333 18.5 -42s6 -29 6 -43zM268.998 155c0 14 -2.33203 28.834 -6.99902 44.501s-11.834 30.5 -21.501 44.5s-22 26.5 -37 37.5s-32.833 19.167 -53.5 24.5
c-11.333 2.66699 -21.666 4.16699 -30.999 4.5s-18.666 0.5 -27.999 0.5h-15.5c-8.33301 0 -14.833 -0.333008 -19.5 -1c-3.33301 0 -7.5 -2.33301 -12.5 -7s-7.5 -8.66699 -7.5 -12v-292h88c1.33301 0 5.83301 0.666992 13.5 2s13.5 2.66602 17.5 3.99902
c20 5.33301 37.167 13.5 51.5 24.5s26.166 23.5 35.499 37.5s16.166 28.667 20.499 44s6.5 30 6.5 44z" />
    <glyph glyph-name="E" unicode="E" horiz-adv-x="338" 
d="M247 286c-1.33301 6 -5.33398 11.8301 -12.001 17.4971s-12.667 8.5 -18 8.5h-182v-154h112c2.66699 0 5.83398 1 9.50098 3s7.16699 4.5 10.5 7.5s6 6.16699 8 9.5s2.66699 6.33301 2 9v-31h-116c-3.33301 0 -8.5 -2.16699 -15.5 -6.5s-10.5 -9.16602 -10.5 -14.499
v-137h182c2 0 4.83301 0.833008 8.5 2.5s7.16699 3.83398 10.5 6.50098s6 5.83398 8 9.50098s3 7.5 3 11.5v-32h-249v318h249v-28z" />
    <glyph glyph-name="F" unicode="F" horiz-adv-x="353" 
d="M247 286c-1.33301 6 -5.33398 11.833 -12.001 17.5s-12.667 8.5 -18 8.5h-156c-3.33301 0 -8.5 -2.5 -15.5 -7.5s-10.5 -10.167 -10.5 -15.5v-131h112c2.66699 0 5.83398 1 9.50098 3s7.16699 4.5 10.5 7.5s6 6.16699 8 9.5s2.66699 6.33301 2 9v-60
c0.666992 2.66699 0 5.66699 -2 9s-4.5 6.5 -7.5 9.5s-6.5 5.5 -10.5 7.5s-7.33301 3 -10 3h-112v-160h-37v318h249v-28z" />
    <glyph glyph-name="G" unicode="G" horiz-adv-x="404" 
d="M291 -3l-2.99805 0.00195312l-1 71c-8.66699 -13.333 -18.5 -24.666 -29.5 -33.999s-22.5 -16.833 -34.5 -22.5s-23.833 -9.66699 -35.5 -12s-22.834 -3.5 -33.501 -3.5c-22 0 -42.667 4.16699 -62 12.5s-36.166 19.833 -50.499 34.5s-25.666 31.667 -33.999 51
s-12.5 39.666 -12.5 60.999c0 22 4.16699 42.667 12.5 62s19.833 36.166 34.5 50.499s31.667 25.666 51 33.999s39.666 12.5 60.999 12.5c20 0 42 -4.83301 66 -14.5s45 -27.167 63 -52.5l-1 -2c-17.333 24.667 -38 41.834 -62 51.501s-46 14.5 -66 14.5
c-8.66699 0 -17.667 -0.5 -27 -1.5s-18.333 -4.16699 -27 -9.5c-12.667 -8 -23 -18.333 -31 -31s-14.333 -25.667 -19 -39s-7.83398 -26.666 -9.50098 -39.999s-2.5 -25 -2.5 -35c0 -12 0.833008 -24.833 2.5 -38.5s4.83398 -27 9.50098 -40s11 -25.333 19 -37
s18.333 -21.5 31 -29.5c5.33301 -3.33301 13.5 -6 24.5 -8s20.833 -3 29.5 -3c1.33301 0 5 0.166992 11 0.5s11.333 1.16602 16 2.49902c4 0.666992 8.66699 1.66699 14 3s10.666 3 15.999 5l14.5 7.5c5.66699 3 11.167 6.16699 16.5 9.5
c1.33301 0.666992 4.5 3.16699 9.5 7.5s10.167 9.16602 15.5 14.499s10.166 10.5 14.499 15.5s6.5 8.5 6.5 10.5v61h-127v3h130v-142z" />
    <glyph glyph-name="H" unicode="H" horiz-adv-x="364" 
d="M247 -4h-3v163h-207v-163h-37v318h37v-121c0 -7.33301 3.66699 -14.333 11 -21s14 -10 20 -10h175v152h4v-318z" />
    <glyph glyph-name="I" unicode="I" horiz-adv-x="171" 
d="M25 -4l-3 -0.000976562v286c0 5.33301 -2 10.333 -6 15s-8 8.33398 -12 11.001c-6 4 -13 6 -21 6h42v-318z" />
    <glyph glyph-name="J" unicode="J" horiz-adv-x="204" 
d="M35 -144l-3 -0.000976562v426c0 5.33301 -2 10.333 -6 15s-8 8.33398 -12 11.001c-6 4 -13 6 -21 6h42v-458z" />
    <glyph glyph-name="K" unicode="K" horiz-adv-x="353" 
d="M246 314l-157.997 -158.001l158 -159c-0.666992 0 -1.5 -0.166992 -2.5 -0.5s-1.83301 -0.166016 -2.5 0.500977l-77.5 77l-78.5 78c-6.66699 -6 -14.334 -13.333 -23.001 -22l-25 -26v-108h-37v318h37v-108c7.33301 -8 15.166 -16 23.499 -24s16.166 -16 23.499 -24
l157 156h5zM82.0029 155.999l-45 44v-90z" />
    <glyph glyph-name="L" unicode="L" horiz-adv-x="385" 
d="M247 -4h-247v318h37v-289c0 -5.33301 4 -11 12 -17s14 -9 18 -9h180v-3z" />
    <glyph glyph-name="M" unicode="M" horiz-adv-x="462" 
d="M325 -4h-36.999v314l-124 -191l79 -121c-2 0 -3.66699 0.666992 -5 2l-36 56l-39 59l-80 -118l78 122l-50 77.5l-56 85.5c-2.66699 4.66699 -6.33398 7 -11.001 7c-3.33301 0 -5.33301 -2.33301 -6 -7s-1 -7.66699 -1 -9v-277h-36v318h37l125 -192l125 192h37v-318z" />
    <glyph glyph-name="N" unicode="N" horiz-adv-x="422" 
d="M281 -4l-36 0.00195312l-204 314v-314h-36v318h37l18 -28l20 -31l18 -27.5l17 -25.5l52 -82l56 -85c1.33301 -2.66699 3.66602 -4.83398 6.99902 -6.50098l9 -4.5c0.666992 -0.666992 1.83398 -0.833984 3.50098 -0.500977s2.5 -0.166992 2.5 -1.5l-1 292h37v-318z" />
    <glyph glyph-name="O" unicode="O" horiz-adv-x="429" 
d="M312 155c0 -22 -4.33301 -42.668 -13 -62.001s-20.167 -36.166 -34.5 -50.499s-31.166 -25.666 -50.499 -33.999s-39.666 -12.5 -60.999 -12.5c-22 0 -42.667 4.16699 -62 12.5s-36 19.833 -50 34.5s-25.167 31.667 -33.5 51s-12.5 39.666 -12.5 60.999
c0 22 4.16699 42.667 12.5 62s19.833 36.166 34.5 50.499s31.5 25.666 50.5 33.999s39.167 12.5 60.5 12.5c22 0 42.667 -4.33301 62 -13s36.166 -20.167 50.499 -34.5s25.666 -31.166 33.999 -50.499s12.5 -39.666 12.5 -60.999zM310 154.999
c0 21.333 -4.16797 41.501 -12.501 60.501s-19.666 35.667 -33.999 50s-31 25.666 -50 33.999s-39.167 12.5 -60.5 12.5s-41.5 -4.16699 -60.5 -12.5s-35.5 -19.5 -49.5 -33.5s-25.167 -30.5 -33.5 -49.5s-12.5 -39.167 -12.5 -60.5s4 -41.5 12 -60.5s19 -35.667 33 -50
s30.5 -25.833 49.5 -34.5s39.5 -13 61.5 -13c20.667 0 40.5 4 59.5 12s35.667 19.167 50 33.5s25.833 31 34.5 50s13 39.5 13 61.5z" />
    <glyph glyph-name="P" unicode="P" horiz-adv-x="331" 
d="M226 215c0 -8 -1.16797 -16.334 -3.50098 -25.001s-6 -17.167 -11 -25.5s-11.333 -16 -19 -23s-17.167 -12.833 -28.5 -17.5c-3.33301 -1.33301 -8.16602 -2.83301 -14.499 -4.5s-10.166 -2.5 -11.499 -2.5h-70c-6.66699 0 -13.5 -3.33301 -20.5 -10
s-10.5 -13.334 -10.5 -20.001v-91h-36v318h135c1.33301 0 5.16602 -0.666992 11.499 -2s11.833 -3 16.5 -5c22.667 -9.33301 38.667 -22.666 48 -39.999s14 -34.666 14 -51.999zM223.999 215.999c0 14.667 -2.83301 28.001 -8.5 40.001s-13.334 22.167 -23.001 30.5
s-20.667 14.666 -33 18.999s-25.166 6.5 -38.499 6.5h-84v-192h84c17.333 0 34.5 3.66699 51.5 11s31.5 23 43.5 47c2 4 3.83301 10 5.5 18s2.5 14.667 2.5 20z" />
    <glyph glyph-name="Q" unicode="Q" horiz-adv-x="429" 
d="M324 21c-3.33301 -6 -7.16699 -11.5 -11.5 -16.5s-9.83301 -7.5 -16.5 -7.5c-5.33301 0 -10.666 1.16699 -15.999 3.5s-10.166 5 -14.499 8l-11.5 8c-3.33301 2.33301 -6 3.5 -8 3.5c-1.33301 0 -5 -1.66699 -11 -5s-11.667 -6 -17 -8c-18.667 -7.33301 -38 -11 -58 -11
c-22 0 -42.667 4.16699 -62 12.5s-36.166 19.833 -50.499 34.5s-25.666 31.667 -33.999 51s-12.5 39.666 -12.5 60.999c0 22 4.33301 42.667 13 62s20.167 36.166 34.5 50.499s31.166 25.666 50.499 33.999s39.666 12.5 60.999 12.5c22 0 42.667 -4.33301 62 -13
s36.166 -20.167 50.499 -34.5s25.666 -31.166 33.999 -50.499s12.5 -39.666 12.5 -60.999c0 -20 -4.16699 -40.667 -12.5 -62s-23.5 -41.666 -45.5 -60.999c5.33301 -6 11.833 -10 19.5 -12s14.167 -3 19.5 -3c1.33301 0 5 0.333008 11 1s10.333 1.66699 13 3zM316.999 155
c0 21.333 -4.16699 41.5 -12.5 60.5s-19.666 35.667 -33.999 50s-31 25.666 -50 33.999s-39.167 12.5 -60.5 12.5s-41.5 -4.16699 -60.5 -12.5s-35.5 -19.5 -49.5 -33.5s-25.167 -30.5 -33.5 -49.5s-12.5 -39.167 -12.5 -60.5s4 -41.5 12 -60.5s19 -35.667 33 -50
s30.5 -25.833 49.5 -34.5s39.5 -13 61.5 -13c12 0 26.333 2.33301 43 7s29.667 10.334 39 17.001c-3.33301 2 -9.33301 4.16699 -18 6.5s-15.334 3.5 -20.001 3.5c-4 0 -8.66699 -0.666992 -14 -2v2c0 7.33301 3.5 12.5 10.5 15.5s12.167 4.5 15.5 4.5
c6.66699 0 14 -2.33301 22 -7l20 -12c20 16 34.833 35.5 44.5 58.5s14.5 44.167 14.5 63.5z" />
    <glyph glyph-name="R" unicode="R" horiz-adv-x="367" 
d="M229 -4h-36l-70 147h-89v-147h-36v318h149c1.33301 0 4.83301 -0.666992 10.5 -2s10.5 -2.66602 14.5 -3.99902c20 -8 34 -20 42 -36s12 -30.667 12 -44c0 -16.667 -5.33301 -33.334 -16 -50.001s-27.667 -28 -51 -34zM224 228
c0 6.66699 -1.33496 14.3369 -4.00195 23.0039s-6.83398 17 -12.501 25s-12.5 15 -20.5 21s-17.333 10 -28 12c-5.33301 1.33301 -12.333 2.16602 -21 2.49902s-13.667 0.5 -15 0.5s-4.16602 -0.166992 -8.49902 -0.5s-8.16602 -0.5 -11.499 -0.5h-21.5
c-7 0 -13.833 -0.333008 -20.5 -1c-6 0 -12 -3.66699 -18 -11s-9 -13.333 -9 -18v-136h107c10.667 0 21 2.16699 31 6.5s18.833 10.166 26.5 17.499s13.834 16.166 18.501 26.499s7 21.166 7 32.499z" />
    <glyph glyph-name="S" unicode="S" horiz-adv-x="400" 
d="M271 78c0 -19.333 -7.83398 -36.6689 -23.501 -52.002s-35.834 -24.666 -60.501 -27.999c-1.33301 0 -2.83301 -0.333008 -4.5 -1s-3.16699 -1 -4.5 -1h-89c-1.33301 0 -2.83301 0.333008 -4.5 1s-3.16699 1 -4.5 1c-6 0.666992 -12.667 2.16699 -20 4.5
s-14.666 5.66602 -21.999 9.99902s-14.166 9.5 -20.499 15.5s-11.5 13 -15.5 21c-1.33301 2 -2.66602 5.66699 -3.99902 11s-2 8.66602 -2 9.99902v9h1l1 -1c1.33301 -10.667 3.66602 -20 6.99902 -28c4 -9.33301 12 -18.5 24 -27.5s22.667 -14.833 32 -17.5
c3.33301 -1.33301 7.66602 -2.66602 12.999 -3.99902s8.66602 -2 9.99902 -2h83c1.33301 0 2.33301 0.333008 3 1s1.66699 1 3 1c4.66699 0 9.83398 1.66699 15.501 5s11.167 7.5 16.5 12.5s10 10.333 14 16s6.66699 11.167 8 16.5c1.33301 4 2.5 9.16699 3.5 15.5
s1.5 10.166 1.5 11.499s-0.5 5 -1.5 11s-2.16699 11.333 -3.5 16c0 0.666992 -0.333008 1.5 -1 2.5s-1 2.16699 -1 3.5c-0.666992 0.666992 -1.5 1.83398 -2.5 3.50098s-1.83301 3.16699 -2.5 4.5c-1.33301 4 -4.16602 8.16699 -8.49902 12.5s-9.16602 8.5 -14.499 12.5
s-10.833 7.16699 -16.5 9.5s-10.167 3.5 -13.5 3.5h-51c-12.667 0 -25.334 1.66699 -38.001 5s-24.167 8.33301 -34.5 15s-18.666 14.834 -24.999 24.501s-9.5 21.167 -9.5 34.5c0 18.667 7 34.667 21 48s31.667 22.333 53 27c8 2 15.667 3 23 3h22
c8.66699 0 18.167 -0.333008 28.5 -1s20.833 -2.66699 31.5 -6s20.667 -8.66602 30 -15.999s17.333 -18 24 -32c1.33301 -2 2.16602 -4.66699 2.49902 -8s0.833008 -6.33301 1.5 -9h-4c0 6.66699 -1 12 -3 16c-6.66699 12.667 -14.167 22.5 -22.5 29.5
s-16.833 12.167 -25.5 15.5s-17.5 5.5 -26.5 6.5s-17.833 1.5 -26.5 1.5h-12.5c-7 0 -12.833 -0.666992 -17.5 -2c-20 -5.33301 -34.333 -15.166 -43 -29.499s-13 -28.833 -13 -43.5c0 -11.333 3.83301 -24.5 11.5 -39.5s20.167 -25.5 37.5 -31.5
c1.33301 -0.666992 3.33301 -1.5 6 -2.5s4.66699 -1.5 6 -1.5h53c10 0 21 -1.66699 33 -5s23.333 -8.33301 34 -15s19.667 -15.334 27 -26.001s11 -23 11 -37z" />
    <glyph glyph-name="T" unicode="T" horiz-adv-x="418" 
d="M304 312h-101.001c-6 0 -12.833 -3.33301 -20.5 -10s-11.5 -13.667 -11.5 -21v-285h-36v285c0 7.33301 -3.66699 14.333 -11 21s-14.666 10 -21.999 10l-100 1zM1.99902 313h302v-1h-302v1z" />
    <glyph glyph-name="U" unicode="U" horiz-adv-x="397" 
d="M280 103c0 -1.33301 -0.834961 -5.66699 -2.50195 -13s-3.5 -13 -5.5 -17c-7.33301 -15.333 -16.166 -28.166 -26.499 -38.499s-21.5 -18.5 -33.5 -24.5s-24.167 -10.333 -36.5 -13s-24.166 -4 -35.499 -4s-23.166 1.33301 -35.499 4s-24.5 7 -36.5 13
s-23.333 14.167 -34 24.5s-19.334 23.166 -26.001 38.499c-2 4 -3.83301 9.16699 -5.5 15.5s-2.5 11.833 -2.5 16.5v205h39v-212c0 -1.33301 0.666992 -5 2 -11s2.66602 -11 3.99902 -15c8.66699 -26.667 21.334 -46 38.001 -58s34.667 -18 54 -18
c18.667 0 35.5 5.33301 50.5 16s28.167 28.667 39.5 54c2 4 3.83301 9.83301 5.5 17.5s2.5 12.167 2.5 13.5v213h45v-207z" />
    <glyph glyph-name="V" unicode="V" horiz-adv-x="382" 
d="M284 314l-123 -318h-36l-123 318c2 0 3.33301 -0.333008 4 -1l27.5 -71l25.5 -66.5l29 -75l38 -97.5l122 311h36z" />
    <glyph glyph-name="W" unicode="W" horiz-adv-x="545" 
d="M430 314l-124 -318h-36l-57 149l-58 -149h-36l-123 318c2 0 3.33301 -0.333008 4 -1l27.5 -71l25.5 -66.5l29 -75l38 -97.5l75 190l-47 121c2 0 3 -0.333008 3 -1l21 -53.5l24 -61.5l46 116h36l-64 -164l57 -147l122 311h37z" />
    <glyph glyph-name="X" unicode="X" horiz-adv-x="360" 
d="M236 -4h-38l-92 142l-97 -142l95 145l-113 173h38l93 -144l98 144l-96 -147z" />
    <glyph glyph-name="Y" unicode="Y" horiz-adv-x="353" 
d="M246 314l-206.999 -317.999h-38c8 11.333 15.667 23 23 35l22 35c4 6.66699 8.83301 13.834 14.5 21.501s11 15.5 16 23.5s9.33301 15.5 13 22.5s5.5 13.167 5.5 18.5c0 7.33301 -1.33301 14.166 -4 20.499s-5 11.166 -7 14.499l-41 63.5l-42 63.5
c2 0 3.66699 -0.666992 5 -2c17.333 -25.333 33.666 -50.333 48.999 -75l51 -79l102 156h38z" />
    <glyph glyph-name="Z" unicode="Z" horiz-adv-x="378" 
d="M249 314l-204.999 -315h200v-3h-240l95.5 146.5l95.5 146.5c2 2 3 4.66699 3 8s-1.5 6 -4.5 8s-6.33301 3.5 -10 4.5s-7.33398 1.5 -11.001 1.5h-6.5h-169v3h252z" />
    <glyph glyph-name="bracketleft" unicode="[" 
d="M585 396l-436 0.000976562v7c0 8.66699 2.33301 18 7 28s9 18 13 24c12 16 26.333 29.167 43 39.5s34 18.5 52 24.5s36 10.167 54 12.5s34.333 3.5 49 3.5c22 0 44.333 -2.33301 67 -7s44.667 -12 66 -22c10 -4.66699 20.167 -10.834 30.5 -18.501s19.5 -16 27.5 -25
s14.5 -18.5 19.5 -28.5s7.5 -19.333 7.5 -28v-10zM618 330.001c0 -3.33301 -0.998047 -7.50098 -2.99805 -12.501s-4.5 -9.66699 -7.5 -14s-6.66699 -8 -11 -11s-8.83301 -4.5 -13.5 -4.5h-435c-9.33301 0 -17.5 5 -24.5 15s-10.5 19 -10.5 27s3.66699 16.833 11 26.5
s17 14.5 29 14.5h254c3.33301 0 7.83301 -0.5 13.5 -1.5s11.5 -2.16699 17.5 -3.5s11.333 -2.66602 16 -3.99902s7.66699 -2.33301 9 -3c3.33301 -1.33301 7 -3.83301 11 -7.5s6.66699 -7.16699 8 -10.5l4 -8l2.5 -5c1 -2 2.16699 -3.66699 3.5 -5
c7.33301 16 19.166 28 35.499 36s31.166 12 44.499 12c11.333 0 21.833 -3.33301 31.5 -10s14.5 -17 14.5 -31zM584.002 254c0 -8.66699 -2.5 -17.8311 -7.5 -27.498s-11.5 -18.667 -19.5 -27s-16.833 -15.166 -26.5 -20.499s-19.167 -8 -28.5 -8h-271
c-10 0 -19.833 2.66699 -29.5 8s-18.5 12.166 -26.5 20.499s-14.333 17.666 -19 27.999s-7 20.166 -7 29.499v7h435v-10zM706.002 -56.9971c0 -8.66699 -2.16211 -13.666 -6.49512 -14.999s-6.5 -2.66602 -6.5 -3.99902s0.666992 -2.5 2 -3.5s2 -3.5 2 -7.5
c0 -6.66699 -1.83301 -11 -5.5 -13s-7.83398 -3 -12.501 -3c-12 0 -18 5.33301 -18 16c0 3.33301 1 6.66602 3 9.99902l-298 106l-298 -106c0.666992 -1.33301 1.33398 -3 2.00098 -5s1 -3.66699 1 -5c0 -6.66699 -1.83301 -11 -5.5 -13s-7.83398 -3 -12.501 -3
c-12 0 -18 5.33301 -18 16c0 2.66699 1.33301 6.66699 4 12c-4.66699 1.33301 -8.33398 3.66602 -11.001 6.99902s-4 7 -4 11c0 5.33301 1.66699 9.5 5 12.5s7.66602 4.5 12.999 4.5c8.66699 0 15 -5.33301 19 -16l271 97l-271 96c-4 -10.667 -10.333 -16 -19 -16
c-5.33301 0 -9.66602 1.66699 -12.999 5s-5 7.66602 -5 12.999c0 7.33301 2.5 11.833 7.5 13.5s7.5 3.16699 7.5 4.5s-0.666992 2.5 -2 3.5s-2 3.5 -2 7.5s1.66699 8 5 12s7.66602 6 12.999 6c6.66699 0 11.667 -2.83301 15 -8.5s3.33301 -11.5 0 -17.5l149 -54.5l149 -52.5
l297 106c-1.33301 4 -2 7 -2 9c0 5.33301 1.66699 9.66602 5 12.999s7.66602 5 12.999 5s9.66602 -1.66699 12.999 -5s5 -7.66602 5 -12.999c0 -1.33301 -0.5 -3.16602 -1.5 -5.49902s-1.83301 -4.5 -2.5 -6.5c6 -2 9.66699 -4.33301 11 -7s2 -6 2 -10
c0 -12 -5.66699 -18 -17 -18c-8.66699 0 -15 5.33301 -19 16l-270 -96l271 -97c4 10.667 10 16 18 16c11.333 0 17 -5.66699 17 -17z" />
    <glyph glyph-name="backslash" unicode="\" 
d="M585 396l-436 0.000976562v7c0 8.66699 2.33301 18 7 28s9 18 13 24c12 16 26.333 29.167 43 39.5s34 18.5 52 24.5s36 10.167 54 12.5s34.333 3.5 49 3.5c22 0 44.333 -2.33301 67 -7s44.667 -12 66 -22c10 -4.66699 20.167 -10.834 30.5 -18.501s19.5 -16 27.5 -25
s14.5 -18.5 19.5 -28.5s7.5 -19.333 7.5 -28v-10zM618 330.001c0 -3.33301 -0.998047 -7.50098 -2.99805 -12.501s-4.5 -9.66699 -7.5 -14s-6.66699 -8 -11 -11s-8.83301 -4.5 -13.5 -4.5h-435c-9.33301 0 -17.5 5 -24.5 15s-10.5 19 -10.5 27s3.66699 16.833 11 26.5
s17 14.5 29 14.5h254c3.33301 0 7.83301 -0.5 13.5 -1.5s11.5 -2.16699 17.5 -3.5s11.333 -2.66602 16 -3.99902s7.66699 -2.33301 9 -3c3.33301 -1.33301 7 -3.83301 11 -7.5s6.66699 -7.16699 8 -10.5l4 -8l2.5 -5c1 -2 2.16699 -3.66699 3.5 -5
c7.33301 16 19.166 28 35.499 36s31.166 12 44.499 12c11.333 0 21.833 -3.33301 31.5 -10s14.5 -17 14.5 -31zM584.002 254c0 -8.66699 -2.5 -17.8311 -7.5 -27.498s-11.5 -18.667 -19.5 -27s-16.833 -15.166 -26.5 -20.499s-19.167 -8 -28.5 -8h-271
c-10 0 -19.833 2.66699 -29.5 8s-18.5 12.166 -26.5 20.499s-14.333 17.666 -19 27.999s-7 20.166 -7 29.499v7h435v-10zM706.002 -56.9971c0 -8.66699 -2.16211 -13.666 -6.49512 -14.999s-6.5 -2.66602 -6.5 -3.99902s0.666992 -2.5 2 -3.5s2 -3.5 2 -7.5
c0 -6.66699 -1.83301 -11 -5.5 -13s-7.83398 -3 -12.501 -3c-12 0 -18 5.33301 -18 16c0 3.33301 1 6.66602 3 9.99902l-298 106l-298 -106c0.666992 -1.33301 1.33398 -3 2.00098 -5s1 -3.66699 1 -5c0 -6.66699 -1.83301 -11 -5.5 -13s-7.83398 -3 -12.501 -3
c-12 0 -18 5.33301 -18 16c0 2.66699 1.33301 6.66699 4 12c-4.66699 1.33301 -8.33398 3.66602 -11.001 6.99902s-4 7 -4 11c0 5.33301 1.66699 9.5 5 12.5s7.66602 4.5 12.999 4.5c8.66699 0 15 -5.33301 19 -16l271 97l-271 96c-4 -10.667 -10.333 -16 -19 -16
c-5.33301 0 -9.66602 1.66699 -12.999 5s-5 7.66602 -5 12.999c0 7.33301 2.5 11.833 7.5 13.5s7.5 3.16699 7.5 4.5s-0.666992 2.5 -2 3.5s-2 3.5 -2 7.5s1.66699 8 5 12s7.66602 6 12.999 6c6.66699 0 11.667 -2.83301 15 -8.5s3.33301 -11.5 0 -17.5l149 -54.5l149 -52.5
l297 106c-1.33301 4 -2 7 -2 9c0 5.33301 1.66699 9.66602 5 12.999s7.66602 5 12.999 5s9.66602 -1.66699 12.999 -5s5 -7.66602 5 -12.999c0 -1.33301 -0.5 -3.16602 -1.5 -5.49902s-1.83301 -4.5 -2.5 -6.5c6 -2 9.66699 -4.33301 11 -7s2 -6 2 -10
c0 -12 -5.66699 -18 -17 -18c-8.66699 0 -15 5.33301 -19 16l-270 -96l271 -97c4 10.667 10 16 18 16c11.333 0 17 -5.66699 17 -17z" />
    <glyph glyph-name="bracketright" unicode="]" 
d="M585 396l-436 0.000976562v7c0 8.66699 2.33301 18 7 28s9 18 13 24c12 16 26.333 29.167 43 39.5s34 18.5 52 24.5s36 10.167 54 12.5s34.333 3.5 49 3.5c22 0 44.333 -2.33301 67 -7s44.667 -12 66 -22c10 -4.66699 20.167 -10.834 30.5 -18.501s19.5 -16 27.5 -25
s14.5 -18.5 19.5 -28.5s7.5 -19.333 7.5 -28v-10zM618 330.001c0 -3.33301 -0.998047 -7.50098 -2.99805 -12.501s-4.5 -9.66699 -7.5 -14s-6.66699 -8 -11 -11s-8.83301 -4.5 -13.5 -4.5h-435c-9.33301 0 -17.5 5 -24.5 15s-10.5 19 -10.5 27s3.66699 16.833 11 26.5
s17 14.5 29 14.5h254c3.33301 0 7.83301 -0.5 13.5 -1.5s11.5 -2.16699 17.5 -3.5s11.333 -2.66602 16 -3.99902s7.66699 -2.33301 9 -3c3.33301 -1.33301 7 -3.83301 11 -7.5s6.66699 -7.16699 8 -10.5l4 -8l2.5 -5c1 -2 2.16699 -3.66699 3.5 -5
c7.33301 16 19.166 28 35.499 36s31.166 12 44.499 12c11.333 0 21.833 -3.33301 31.5 -10s14.5 -17 14.5 -31zM584.002 254c0 -8.66699 -2.5 -17.8311 -7.5 -27.498s-11.5 -18.667 -19.5 -27s-16.833 -15.166 -26.5 -20.499s-19.167 -8 -28.5 -8h-271
c-10 0 -19.833 2.66699 -29.5 8s-18.5 12.166 -26.5 20.499s-14.333 17.666 -19 27.999s-7 20.166 -7 29.499v7h435v-10zM706.002 -56.9971c0 -8.66699 -2.16211 -13.666 -6.49512 -14.999s-6.5 -2.66602 -6.5 -3.99902s0.666992 -2.5 2 -3.5s2 -3.5 2 -7.5
c0 -6.66699 -1.83301 -11 -5.5 -13s-7.83398 -3 -12.501 -3c-12 0 -18 5.33301 -18 16c0 3.33301 1 6.66602 3 9.99902l-298 106l-298 -106c0.666992 -1.33301 1.33398 -3 2.00098 -5s1 -3.66699 1 -5c0 -6.66699 -1.83301 -11 -5.5 -13s-7.83398 -3 -12.501 -3
c-12 0 -18 5.33301 -18 16c0 2.66699 1.33301 6.66699 4 12c-4.66699 1.33301 -8.33398 3.66602 -11.001 6.99902s-4 7 -4 11c0 5.33301 1.66699 9.5 5 12.5s7.66602 4.5 12.999 4.5c8.66699 0 15 -5.33301 19 -16l271 97l-271 96c-4 -10.667 -10.333 -16 -19 -16
c-5.33301 0 -9.66602 1.66699 -12.999 5s-5 7.66602 -5 12.999c0 7.33301 2.5 11.833 7.5 13.5s7.5 3.16699 7.5 4.5s-0.666992 2.5 -2 3.5s-2 3.5 -2 7.5s1.66699 8 5 12s7.66602 6 12.999 6c6.66699 0 11.667 -2.83301 15 -8.5s3.33301 -11.5 0 -17.5l149 -54.5l149 -52.5
l297 106c-1.33301 4 -2 7 -2 9c0 5.33301 1.66699 9.66602 5 12.999s7.66602 5 12.999 5s9.66602 -1.66699 12.999 -5s5 -7.66602 5 -12.999c0 -1.33301 -0.5 -3.16602 -1.5 -5.49902s-1.83301 -4.5 -2.5 -6.5c6 -2 9.66699 -4.33301 11 -7s2 -6 2 -10
c0 -12 -5.66699 -18 -17 -18c-8.66699 0 -15 5.33301 -19 16l-270 -96l271 -97c4 10.667 10 16 18 16c11.333 0 17 -5.66699 17 -17z" />
    <glyph glyph-name="asciicircum" unicode="^" 
d="M585 396l-436 0.000976562v7c0 8.66699 2.33301 18 7 28s9 18 13 24c12 16 26.333 29.167 43 39.5s34 18.5 52 24.5s36 10.167 54 12.5s34.333 3.5 49 3.5c22 0 44.333 -2.33301 67 -7s44.667 -12 66 -22c10 -4.66699 20.167 -10.834 30.5 -18.501s19.5 -16 27.5 -25
s14.5 -18.5 19.5 -28.5s7.5 -19.333 7.5 -28v-10zM618 330.001c0 -3.33301 -0.998047 -7.50098 -2.99805 -12.501s-4.5 -9.66699 -7.5 -14s-6.66699 -8 -11 -11s-8.83301 -4.5 -13.5 -4.5h-435c-9.33301 0 -17.5 5 -24.5 15s-10.5 19 -10.5 27s3.66699 16.833 11 26.5
s17 14.5 29 14.5h254c3.33301 0 7.83301 -0.5 13.5 -1.5s11.5 -2.16699 17.5 -3.5s11.333 -2.66602 16 -3.99902s7.66699 -2.33301 9 -3c3.33301 -1.33301 7 -3.83301 11 -7.5s6.66699 -7.16699 8 -10.5l4 -8l2.5 -5c1 -2 2.16699 -3.66699 3.5 -5
c7.33301 16 19.166 28 35.499 36s31.166 12 44.499 12c11.333 0 21.833 -3.33301 31.5 -10s14.5 -17 14.5 -31zM584.002 254c0 -8.66699 -2.5 -17.8311 -7.5 -27.498s-11.5 -18.667 -19.5 -27s-16.833 -15.166 -26.5 -20.499s-19.167 -8 -28.5 -8h-271
c-10 0 -19.833 2.66699 -29.5 8s-18.5 12.166 -26.5 20.499s-14.333 17.666 -19 27.999s-7 20.166 -7 29.499v7h435v-10zM706.002 -56.9971c0 -8.66699 -2.16211 -13.666 -6.49512 -14.999s-6.5 -2.66602 -6.5 -3.99902s0.666992 -2.5 2 -3.5s2 -3.5 2 -7.5
c0 -6.66699 -1.83301 -11 -5.5 -13s-7.83398 -3 -12.501 -3c-12 0 -18 5.33301 -18 16c0 3.33301 1 6.66602 3 9.99902l-298 106l-298 -106c0.666992 -1.33301 1.33398 -3 2.00098 -5s1 -3.66699 1 -5c0 -6.66699 -1.83301 -11 -5.5 -13s-7.83398 -3 -12.501 -3
c-12 0 -18 5.33301 -18 16c0 2.66699 1.33301 6.66699 4 12c-4.66699 1.33301 -8.33398 3.66602 -11.001 6.99902s-4 7 -4 11c0 5.33301 1.66699 9.5 5 12.5s7.66602 4.5 12.999 4.5c8.66699 0 15 -5.33301 19 -16l271 97l-271 96c-4 -10.667 -10.333 -16 -19 -16
c-5.33301 0 -9.66602 1.66699 -12.999 5s-5 7.66602 -5 12.999c0 7.33301 2.5 11.833 7.5 13.5s7.5 3.16699 7.5 4.5s-0.666992 2.5 -2 3.5s-2 3.5 -2 7.5s1.66699 8 5 12s7.66602 6 12.999 6c6.66699 0 11.667 -2.83301 15 -8.5s3.33301 -11.5 0 -17.5l149 -54.5l149 -52.5
l297 106c-1.33301 4 -2 7 -2 9c0 5.33301 1.66699 9.66602 5 12.999s7.66602 5 12.999 5s9.66602 -1.66699 12.999 -5s5 -7.66602 5 -12.999c0 -1.33301 -0.5 -3.16602 -1.5 -5.49902s-1.83301 -4.5 -2.5 -6.5c6 -2 9.66699 -4.33301 11 -7s2 -6 2 -10
c0 -12 -5.66699 -18 -17 -18c-8.66699 0 -15 5.33301 -19 16l-270 -96l271 -97c4 10.667 10 16 18 16c11.333 0 17 -5.66699 17 -17z" />
    <glyph glyph-name="underscore" unicode="_" 
d="M585 396l-436 0.000976562v7c0 8.66699 2.33301 18 7 28s9 18 13 24c12 16 26.333 29.167 43 39.5s34 18.5 52 24.5s36 10.167 54 12.5s34.333 3.5 49 3.5c22 0 44.333 -2.33301 67 -7s44.667 -12 66 -22c10 -4.66699 20.167 -10.834 30.5 -18.501s19.5 -16 27.5 -25
s14.5 -18.5 19.5 -28.5s7.5 -19.333 7.5 -28v-10zM618 330.001c0 -3.33301 -0.998047 -7.50098 -2.99805 -12.501s-4.5 -9.66699 -7.5 -14s-6.66699 -8 -11 -11s-8.83301 -4.5 -13.5 -4.5h-435c-9.33301 0 -17.5 5 -24.5 15s-10.5 19 -10.5 27s3.66699 16.833 11 26.5
s17 14.5 29 14.5h254c3.33301 0 7.83301 -0.5 13.5 -1.5s11.5 -2.16699 17.5 -3.5s11.333 -2.66602 16 -3.99902s7.66699 -2.33301 9 -3c3.33301 -1.33301 7 -3.83301 11 -7.5s6.66699 -7.16699 8 -10.5l4 -8l2.5 -5c1 -2 2.16699 -3.66699 3.5 -5
c7.33301 16 19.166 28 35.499 36s31.166 12 44.499 12c11.333 0 21.833 -3.33301 31.5 -10s14.5 -17 14.5 -31zM584.002 254c0 -8.66699 -2.5 -17.8311 -7.5 -27.498s-11.5 -18.667 -19.5 -27s-16.833 -15.166 -26.5 -20.499s-19.167 -8 -28.5 -8h-271
c-10 0 -19.833 2.66699 -29.5 8s-18.5 12.166 -26.5 20.499s-14.333 17.666 -19 27.999s-7 20.166 -7 29.499v7h435v-10zM706.002 -56.9971c0 -8.66699 -2.16211 -13.666 -6.49512 -14.999s-6.5 -2.66602 -6.5 -3.99902s0.666992 -2.5 2 -3.5s2 -3.5 2 -7.5
c0 -6.66699 -1.83301 -11 -5.5 -13s-7.83398 -3 -12.501 -3c-12 0 -18 5.33301 -18 16c0 3.33301 1 6.66602 3 9.99902l-298 106l-298 -106c0.666992 -1.33301 1.33398 -3 2.00098 -5s1 -3.66699 1 -5c0 -6.66699 -1.83301 -11 -5.5 -13s-7.83398 -3 -12.501 -3
c-12 0 -18 5.33301 -18 16c0 2.66699 1.33301 6.66699 4 12c-4.66699 1.33301 -8.33398 3.66602 -11.001 6.99902s-4 7 -4 11c0 5.33301 1.66699 9.5 5 12.5s7.66602 4.5 12.999 4.5c8.66699 0 15 -5.33301 19 -16l271 97l-271 96c-4 -10.667 -10.333 -16 -19 -16
c-5.33301 0 -9.66602 1.66699 -12.999 5s-5 7.66602 -5 12.999c0 7.33301 2.5 11.833 7.5 13.5s7.5 3.16699 7.5 4.5s-0.666992 2.5 -2 3.5s-2 3.5 -2 7.5s1.66699 8 5 12s7.66602 6 12.999 6c6.66699 0 11.667 -2.83301 15 -8.5s3.33301 -11.5 0 -17.5l149 -54.5l149 -52.5
l297 106c-1.33301 4 -2 7 -2 9c0 5.33301 1.66699 9.66602 5 12.999s7.66602 5 12.999 5s9.66602 -1.66699 12.999 -5s5 -7.66602 5 -12.999c0 -1.33301 -0.5 -3.16602 -1.5 -5.49902s-1.83301 -4.5 -2.5 -6.5c6 -2 9.66699 -4.33301 11 -7s2 -6 2 -10
c0 -12 -5.66699 -18 -17 -18c-8.66699 0 -15 5.33301 -19 16l-270 -96l271 -97c4 10.667 10 16 18 16c11.333 0 17 -5.66699 17 -17z" />
    <glyph glyph-name="grave" unicode="`" 
d="M585 396l-436 0.000976562v7c0 8.66699 2.33301 18 7 28s9 18 13 24c12 16 26.333 29.167 43 39.5s34 18.5 52 24.5s36 10.167 54 12.5s34.333 3.5 49 3.5c22 0 44.333 -2.33301 67 -7s44.667 -12 66 -22c10 -4.66699 20.167 -10.834 30.5 -18.501s19.5 -16 27.5 -25
s14.5 -18.5 19.5 -28.5s7.5 -19.333 7.5 -28v-10zM618 330.001c0 -3.33301 -0.998047 -7.50098 -2.99805 -12.501s-4.5 -9.66699 -7.5 -14s-6.66699 -8 -11 -11s-8.83301 -4.5 -13.5 -4.5h-435c-9.33301 0 -17.5 5 -24.5 15s-10.5 19 -10.5 27s3.66699 16.833 11 26.5
s17 14.5 29 14.5h254c3.33301 0 7.83301 -0.5 13.5 -1.5s11.5 -2.16699 17.5 -3.5s11.333 -2.66602 16 -3.99902s7.66699 -2.33301 9 -3c3.33301 -1.33301 7 -3.83301 11 -7.5s6.66699 -7.16699 8 -10.5l4 -8l2.5 -5c1 -2 2.16699 -3.66699 3.5 -5
c7.33301 16 19.166 28 35.499 36s31.166 12 44.499 12c11.333 0 21.833 -3.33301 31.5 -10s14.5 -17 14.5 -31zM584.002 254c0 -8.66699 -2.5 -17.8311 -7.5 -27.498s-11.5 -18.667 -19.5 -27s-16.833 -15.166 -26.5 -20.499s-19.167 -8 -28.5 -8h-271
c-10 0 -19.833 2.66699 -29.5 8s-18.5 12.166 -26.5 20.499s-14.333 17.666 -19 27.999s-7 20.166 -7 29.499v7h435v-10zM706.002 -56.9971c0 -8.66699 -2.16211 -13.666 -6.49512 -14.999s-6.5 -2.66602 -6.5 -3.99902s0.666992 -2.5 2 -3.5s2 -3.5 2 -7.5
c0 -6.66699 -1.83301 -11 -5.5 -13s-7.83398 -3 -12.501 -3c-12 0 -18 5.33301 -18 16c0 3.33301 1 6.66602 3 9.99902l-298 106l-298 -106c0.666992 -1.33301 1.33398 -3 2.00098 -5s1 -3.66699 1 -5c0 -6.66699 -1.83301 -11 -5.5 -13s-7.83398 -3 -12.501 -3
c-12 0 -18 5.33301 -18 16c0 2.66699 1.33301 6.66699 4 12c-4.66699 1.33301 -8.33398 3.66602 -11.001 6.99902s-4 7 -4 11c0 5.33301 1.66699 9.5 5 12.5s7.66602 4.5 12.999 4.5c8.66699 0 15 -5.33301 19 -16l271 97l-271 96c-4 -10.667 -10.333 -16 -19 -16
c-5.33301 0 -9.66602 1.66699 -12.999 5s-5 7.66602 -5 12.999c0 7.33301 2.5 11.833 7.5 13.5s7.5 3.16699 7.5 4.5s-0.666992 2.5 -2 3.5s-2 3.5 -2 7.5s1.66699 8 5 12s7.66602 6 12.999 6c6.66699 0 11.667 -2.83301 15 -8.5s3.33301 -11.5 0 -17.5l149 -54.5l149 -52.5
l297 106c-1.33301 4 -2 7 -2 9c0 5.33301 1.66699 9.66602 5 12.999s7.66602 5 12.999 5s9.66602 -1.66699 12.999 -5s5 -7.66602 5 -12.999c0 -1.33301 -0.5 -3.16602 -1.5 -5.49902s-1.83301 -4.5 -2.5 -6.5c6 -2 9.66699 -4.33301 11 -7s2 -6 2 -10
c0 -12 -5.66699 -18 -17 -18c-8.66699 0 -15 5.33301 -19 16l-270 -96l271 -97c4 10.667 10 16 18 16c11.333 0 17 -5.66699 17 -17z" />
    <glyph glyph-name="a" unicode="a" horiz-adv-x="360" 
d="M281 -4l-35.999 -0.000976562l-22.5 54c-7.66699 18 -14.5 36 -20.5 54c-0.666992 2.66699 -2.5 5.33398 -5.5 8.00098s-6.33301 5.16699 -10 7.5s-7.33398 4.33301 -11.001 6s-6.16699 2.5 -7.5 2.5h-114l-52 -132h-3l122 318h37zM192.001 130.999l-68 177l-70 -177h138
z" />
    <glyph glyph-name="b" unicode="b" horiz-adv-x="327" 
d="M250 82c0 -15.333 -4.83398 -31.001 -14.501 -47.001s-25.167 -27.667 -46.5 -35l-10 -2.5c-4 -1 -6.66699 -1.5 -8 -1.5h-172v318h131c2.66699 0 6.83398 -0.833008 12.501 -2.5s10.5 -3.16699 14.5 -4.5c15.333 -7.33301 26.333 -17.5 33 -30.5s10 -25.167 10 -36.5
c0 -13.333 -4 -26.666 -12 -39.999s-21.667 -23.666 -41 -30.999c3.33301 -0.666992 7.33301 -0.833984 12 -0.500977s9 0.166016 13 -0.500977c13.333 -2 25 -5.83301 35 -11.5s18.167 -12.5 24.5 -20.5s11 -16.667 14 -26s4.5 -18.666 4.5 -27.999zM196.999 239.999
c0 13.333 -4.49902 26.667 -13.499 40s-22.167 22.666 -39.5 27.999c-2.66699 0.666992 -5.5 1.33398 -8.5 2.00098s-5.16699 1 -6.5 1h-93v-142h92c19.333 0 35.666 7.33301 48.999 22s20 31 20 49zM247 82c0 16.667 -5.16797 32.6699 -15.501 48.0029
s-26.166 26.333 -47.499 33c-3.33301 0.666992 -6.5 1.33398 -9.5 2.00098s-5.16699 0.666992 -6.5 0h-132v-142c0 -6 3.16699 -11.5 9.5 -16.5s11.833 -7.5 16.5 -7.5h110c1.33301 0 4.5 0.666992 9.5 2s9.16699 2.66602 12.5 3.99902c10 3.33301 18.333 8.16602 25 14.499
s12 13.166 16 20.499s7 14.666 9 21.999s3 14 3 20z" />
    <glyph glyph-name="c" unicode="c" horiz-adv-x="378" 
d="M295 74c-17.333 -28.667 -38.8369 -48.833 -64.5039 -60.5s-49.834 -17.5 -72.501 -17.5c-22 0 -42.667 4.16699 -62 12.5s-36 19.833 -50 34.5s-25.167 31.667 -33.5 51s-12.5 39.666 -12.5 60.999c0 22 4.16699 42.667 12.5 62s19.833 36.166 34.5 50.499
s31.5 25.666 50.5 33.999s39.167 12.5 60.5 12.5c9.33301 0 18.833 -0.666992 28.5 -2s19.834 -4.33301 30.501 -9c5.33301 -2 11 -4.83301 17 -8.5l17 -10.5c0.666992 -0.666992 3 -2.66699 7 -6s8.33301 -7.16602 13 -11.499s8.66699 -8.5 12 -12.5s5 -7.33301 5 -10
c0 -1.33301 -0.5 -5.66602 -1.5 -12.999s-1.5 -13.666 -1.5 -18.999c0.666992 -1.33301 1 -2.5 1 -3.5s0.333008 -2.16699 1 -3.5c-10 13.333 -17.167 26.166 -21.5 38.499s-9.16602 24.5 -14.499 36.5c-0.666992 1.33301 -2 2.33301 -4 3s-3.66699 1.66699 -5 3l-10.5 6
c-3.66699 2 -7.5 3.66699 -11.5 5c-11.333 5.33301 -22.166 9 -32.499 11s-20.166 3 -29.499 3c-8 0 -16.833 -0.5 -26.5 -1.5s-18.5 -4.16699 -26.5 -9.5c-12.667 -8 -23.167 -18.333 -31.5 -31s-14.833 -25.667 -19.5 -39s-7.83398 -26.666 -9.50098 -39.999
s-2.5 -25 -2.5 -35c0 -12 0.833008 -24.833 2.5 -38.5s4.83398 -27 9.50098 -40s11.167 -25.333 19.5 -37s18.833 -21.5 31.5 -29.5c5.33301 -3.33301 13.333 -6 24 -8s20.334 -3 29.001 -3c22 0 45.5 5.83301 70.5 17.5s46.167 31.5 63.5 59.5
c0 -0.666992 0.333008 -1 1 -1s1 -0.166992 1 -0.5s0.333008 -0.5 1 -0.5z" />
    <glyph glyph-name="d" unicode="d" horiz-adv-x="367" 
d="M272 155c0 -28.667 -8.50195 -57.334 -25.502 -86.001s-44.833 -50.334 -83.5 -65.001l-18 -4.5c-9.33301 -2.33301 -16.333 -3.5 -21 -3.5h-125v318h125c2.66699 0 6.33398 -0.5 11.001 -1.5l14 -3c4.66699 -1 8.66699 -2 12 -3l5 -1.5
c18.667 -7.33301 34.834 -16.666 48.501 -27.999s24.667 -23.666 33 -36.999s14.5 -27.333 18.5 -42s6 -29 6 -43zM268.998 155c0 14 -2.33203 28.834 -6.99902 44.501s-11.834 30.5 -21.501 44.5s-22 26.5 -37 37.5s-32.833 19.167 -53.5 24.5
c-11.333 2.66699 -21.666 4.16699 -30.999 4.5s-18.666 0.5 -27.999 0.5h-15.5c-8.33301 0 -14.833 -0.333008 -19.5 -1c-3.33301 0 -7.5 -2.33301 -12.5 -7s-7.5 -8.66699 -7.5 -12v-292h88c1.33301 0 5.83301 0.666992 13.5 2s13.5 2.66602 17.5 3.99902
c20 5.33301 37.167 13.5 51.5 24.5s26.166 23.5 35.499 37.5s16.166 28.667 20.499 44s6.5 30 6.5 44z" />
    <glyph glyph-name="e" unicode="e" horiz-adv-x="338" 
d="M247 286c-1.33301 6 -5.33398 11.8301 -12.001 17.4971s-12.667 8.5 -18 8.5h-182v-154h112c2.66699 0 5.83398 1 9.50098 3s7.16699 4.5 10.5 7.5s6 6.16699 8 9.5s2.66699 6.33301 2 9v-31h-116c-3.33301 0 -8.5 -2.16699 -15.5 -6.5s-10.5 -9.16602 -10.5 -14.499
v-137h182c2 0 4.83301 0.833008 8.5 2.5s7.16699 3.83398 10.5 6.50098s6 5.83398 8 9.50098s3 7.5 3 11.5v-32h-249v318h249v-28z" />
    <glyph glyph-name="f" unicode="f" horiz-adv-x="353" 
d="M247 286c-1.33301 6 -5.33398 11.833 -12.001 17.5s-12.667 8.5 -18 8.5h-156c-3.33301 0 -8.5 -2.5 -15.5 -7.5s-10.5 -10.167 -10.5 -15.5v-131h112c2.66699 0 5.83398 1 9.50098 3s7.16699 4.5 10.5 7.5s6 6.16699 8 9.5s2.66699 6.33301 2 9v-60
c0.666992 2.66699 0 5.66699 -2 9s-4.5 6.5 -7.5 9.5s-6.5 5.5 -10.5 7.5s-7.33301 3 -10 3h-112v-160h-37v318h249v-28z" />
    <glyph glyph-name="g" unicode="g" horiz-adv-x="404" 
d="M291 -3l-2.99805 0.00195312l-1 71c-8.66699 -13.333 -18.5 -24.666 -29.5 -33.999s-22.5 -16.833 -34.5 -22.5s-23.833 -9.66699 -35.5 -12s-22.834 -3.5 -33.501 -3.5c-22 0 -42.667 4.16699 -62 12.5s-36.166 19.833 -50.499 34.5s-25.666 31.667 -33.999 51
s-12.5 39.666 -12.5 60.999c0 22 4.16699 42.667 12.5 62s19.833 36.166 34.5 50.499s31.667 25.666 51 33.999s39.666 12.5 60.999 12.5c20 0 42 -4.83301 66 -14.5s45 -27.167 63 -52.5l-1 -2c-17.333 24.667 -38 41.834 -62 51.501s-46 14.5 -66 14.5
c-8.66699 0 -17.667 -0.5 -27 -1.5s-18.333 -4.16699 -27 -9.5c-12.667 -8 -23 -18.333 -31 -31s-14.333 -25.667 -19 -39s-7.83398 -26.666 -9.50098 -39.999s-2.5 -25 -2.5 -35c0 -12 0.833008 -24.833 2.5 -38.5s4.83398 -27 9.50098 -40s11 -25.333 19 -37
s18.333 -21.5 31 -29.5c5.33301 -3.33301 13.5 -6 24.5 -8s20.833 -3 29.5 -3c1.33301 0 5 0.166992 11 0.5s11.333 1.16602 16 2.49902c4 0.666992 8.66699 1.66699 14 3s10.666 3 15.999 5l14.5 7.5c5.66699 3 11.167 6.16699 16.5 9.5
c1.33301 0.666992 4.5 3.16699 9.5 7.5s10.167 9.16602 15.5 14.499s10.166 10.5 14.499 15.5s6.5 8.5 6.5 10.5v61h-127v3h130v-142z" />
    <glyph glyph-name="h" unicode="h" horiz-adv-x="364" 
d="M247 -4h-3v163h-207v-163h-37v318h37v-121c0 -7.33301 3.66699 -14.333 11 -21s14 -10 20 -10h175v152h4v-318z" />
    <glyph glyph-name="i" unicode="i" horiz-adv-x="171" 
d="M25 -4l-3 -0.000976562v286c0 5.33301 -2 10.333 -6 15s-8 8.33398 -12 11.001c-6 4 -13 6 -21 6h42v-318z" />
    <glyph glyph-name="j" unicode="j" horiz-adv-x="204" 
d="M35 -144l-3 -0.000976562v426c0 5.33301 -2 10.333 -6 15s-8 8.33398 -12 11.001c-6 4 -13 6 -21 6h42v-458z" />
    <glyph glyph-name="k" unicode="k" horiz-adv-x="353" 
d="M246 314l-157.997 -158.001l158 -159c-0.666992 0 -1.5 -0.166992 -2.5 -0.5s-1.83301 -0.166016 -2.5 0.500977l-77.5 77l-78.5 78c-6.66699 -6 -14.334 -13.333 -23.001 -22l-25 -26v-108h-37v318h37v-108c7.33301 -8 15.166 -16 23.499 -24s16.166 -16 23.499 -24
l157 156h5zM82.0029 155.999l-45 44v-90z" />
    <glyph glyph-name="l" unicode="l" horiz-adv-x="385" 
d="M247 -4h-247v318h37v-289c0 -5.33301 4 -11 12 -17s14 -9 18 -9h180v-3z" />
    <glyph glyph-name="m" unicode="m" horiz-adv-x="462" 
d="M325 -4h-36.999v314l-124 -191l79 -121c-2 0 -3.66699 0.666992 -5 2l-36 56l-39 59l-80 -118l78 122l-50 77.5l-56 85.5c-2.66699 4.66699 -6.33398 7 -11.001 7c-3.33301 0 -5.33301 -2.33301 -6 -7s-1 -7.66699 -1 -9v-277h-36v318h37l125 -192l125 192h37v-318z" />
    <glyph glyph-name="n" unicode="n" horiz-adv-x="422" 
d="M281 -4l-36 0.00195312l-204 314v-314h-36v318h37l18 -28l20 -31l18 -27.5l17 -25.5l52 -82l56 -85c1.33301 -2.66699 3.66602 -4.83398 6.99902 -6.50098l9 -4.5c0.666992 -0.666992 1.83398 -0.833984 3.50098 -0.500977s2.5 -0.166992 2.5 -1.5l-1 292h37v-318z" />
    <glyph glyph-name="o" unicode="o" horiz-adv-x="429" 
d="M312 155c0 -22 -4.33301 -42.668 -13 -62.001s-20.167 -36.166 -34.5 -50.499s-31.166 -25.666 -50.499 -33.999s-39.666 -12.5 -60.999 -12.5c-22 0 -42.667 4.16699 -62 12.5s-36 19.833 -50 34.5s-25.167 31.667 -33.5 51s-12.5 39.666 -12.5 60.999
c0 22 4.16699 42.667 12.5 62s19.833 36.166 34.5 50.499s31.5 25.666 50.5 33.999s39.167 12.5 60.5 12.5c22 0 42.667 -4.33301 62 -13s36.166 -20.167 50.499 -34.5s25.666 -31.166 33.999 -50.499s12.5 -39.666 12.5 -60.999zM310 154.999
c0 21.333 -4.16797 41.501 -12.501 60.501s-19.666 35.667 -33.999 50s-31 25.666 -50 33.999s-39.167 12.5 -60.5 12.5s-41.5 -4.16699 -60.5 -12.5s-35.5 -19.5 -49.5 -33.5s-25.167 -30.5 -33.5 -49.5s-12.5 -39.167 -12.5 -60.5s4 -41.5 12 -60.5s19 -35.667 33 -50
s30.5 -25.833 49.5 -34.5s39.5 -13 61.5 -13c20.667 0 40.5 4 59.5 12s35.667 19.167 50 33.5s25.833 31 34.5 50s13 39.5 13 61.5z" />
    <glyph glyph-name="p" unicode="p" horiz-adv-x="331" 
d="M226 215c0 -8 -1.16797 -16.334 -3.50098 -25.001s-6 -17.167 -11 -25.5s-11.333 -16 -19 -23s-17.167 -12.833 -28.5 -17.5c-3.33301 -1.33301 -8.16602 -2.83301 -14.499 -4.5s-10.166 -2.5 -11.499 -2.5h-70c-6.66699 0 -13.5 -3.33301 -20.5 -10
s-10.5 -13.334 -10.5 -20.001v-91h-36v318h135c1.33301 0 5.16602 -0.666992 11.499 -2s11.833 -3 16.5 -5c22.667 -9.33301 38.667 -22.666 48 -39.999s14 -34.666 14 -51.999zM223.999 215.999c0 14.667 -2.83301 28.001 -8.5 40.001s-13.334 22.167 -23.001 30.5
s-20.667 14.666 -33 18.999s-25.166 6.5 -38.499 6.5h-84v-192h84c17.333 0 34.5 3.66699 51.5 11s31.5 23 43.5 47c2 4 3.83301 10 5.5 18s2.5 14.667 2.5 20z" />
    <glyph glyph-name="q" unicode="q" horiz-adv-x="429" 
d="M324 21c-3.33301 -6 -7.16699 -11.5 -11.5 -16.5s-9.83301 -7.5 -16.5 -7.5c-5.33301 0 -10.666 1.16699 -15.999 3.5s-10.166 5 -14.499 8l-11.5 8c-3.33301 2.33301 -6 3.5 -8 3.5c-1.33301 0 -5 -1.66699 -11 -5s-11.667 -6 -17 -8c-18.667 -7.33301 -38 -11 -58 -11
c-22 0 -42.667 4.16699 -62 12.5s-36.166 19.833 -50.499 34.5s-25.666 31.667 -33.999 51s-12.5 39.666 -12.5 60.999c0 22 4.33301 42.667 13 62s20.167 36.166 34.5 50.499s31.166 25.666 50.499 33.999s39.666 12.5 60.999 12.5c22 0 42.667 -4.33301 62 -13
s36.166 -20.167 50.499 -34.5s25.666 -31.166 33.999 -50.499s12.5 -39.666 12.5 -60.999c0 -20 -4.16699 -40.667 -12.5 -62s-23.5 -41.666 -45.5 -60.999c5.33301 -6 11.833 -10 19.5 -12s14.167 -3 19.5 -3c1.33301 0 5 0.333008 11 1s10.333 1.66699 13 3zM316.999 155
c0 21.333 -4.16699 41.5 -12.5 60.5s-19.666 35.667 -33.999 50s-31 25.666 -50 33.999s-39.167 12.5 -60.5 12.5s-41.5 -4.16699 -60.5 -12.5s-35.5 -19.5 -49.5 -33.5s-25.167 -30.5 -33.5 -49.5s-12.5 -39.167 -12.5 -60.5s4 -41.5 12 -60.5s19 -35.667 33 -50
s30.5 -25.833 49.5 -34.5s39.5 -13 61.5 -13c12 0 26.333 2.33301 43 7s29.667 10.334 39 17.001c-3.33301 2 -9.33301 4.16699 -18 6.5s-15.334 3.5 -20.001 3.5c-4 0 -8.66699 -0.666992 -14 -2v2c0 7.33301 3.5 12.5 10.5 15.5s12.167 4.5 15.5 4.5
c6.66699 0 14 -2.33301 22 -7l20 -12c20 16 34.833 35.5 44.5 58.5s14.5 44.167 14.5 63.5z" />
    <glyph glyph-name="r" unicode="r" horiz-adv-x="367" 
d="M229 -4h-36l-70 147h-89v-147h-36v318h149c1.33301 0 4.83301 -0.666992 10.5 -2s10.5 -2.66602 14.5 -3.99902c20 -8 34 -20 42 -36s12 -30.667 12 -44c0 -16.667 -5.33301 -33.334 -16 -50.001s-27.667 -28 -51 -34zM224 228
c0 6.66699 -1.33496 14.3369 -4.00195 23.0039s-6.83398 17 -12.501 25s-12.5 15 -20.5 21s-17.333 10 -28 12c-5.33301 1.33301 -12.333 2.16602 -21 2.49902s-13.667 0.5 -15 0.5s-4.16602 -0.166992 -8.49902 -0.5s-8.16602 -0.5 -11.499 -0.5h-21.5
c-7 0 -13.833 -0.333008 -20.5 -1c-6 0 -12 -3.66699 -18 -11s-9 -13.333 -9 -18v-136h107c10.667 0 21 2.16699 31 6.5s18.833 10.166 26.5 17.499s13.834 16.166 18.501 26.499s7 21.166 7 32.499z" />
    <glyph glyph-name="s" unicode="s" horiz-adv-x="400" 
d="M271 78c0 -19.333 -7.83398 -36.6689 -23.501 -52.002s-35.834 -24.666 -60.501 -27.999c-1.33301 0 -2.83301 -0.333008 -4.5 -1s-3.16699 -1 -4.5 -1h-89c-1.33301 0 -2.83301 0.333008 -4.5 1s-3.16699 1 -4.5 1c-6 0.666992 -12.667 2.16699 -20 4.5
s-14.666 5.66602 -21.999 9.99902s-14.166 9.5 -20.499 15.5s-11.5 13 -15.5 21c-1.33301 2 -2.66602 5.66699 -3.99902 11s-2 8.66602 -2 9.99902v9h1l1 -1c1.33301 -10.667 3.66602 -20 6.99902 -28c4 -9.33301 12 -18.5 24 -27.5s22.667 -14.833 32 -17.5
c3.33301 -1.33301 7.66602 -2.66602 12.999 -3.99902s8.66602 -2 9.99902 -2h83c1.33301 0 2.33301 0.333008 3 1s1.66699 1 3 1c4.66699 0 9.83398 1.66699 15.501 5s11.167 7.5 16.5 12.5s10 10.333 14 16s6.66699 11.167 8 16.5c1.33301 4 2.5 9.16699 3.5 15.5
s1.5 10.166 1.5 11.499s-0.5 5 -1.5 11s-2.16699 11.333 -3.5 16c0 0.666992 -0.333008 1.5 -1 2.5s-1 2.16699 -1 3.5c-0.666992 0.666992 -1.5 1.83398 -2.5 3.50098s-1.83301 3.16699 -2.5 4.5c-1.33301 4 -4.16602 8.16699 -8.49902 12.5s-9.16602 8.5 -14.499 12.5
s-10.833 7.16699 -16.5 9.5s-10.167 3.5 -13.5 3.5h-51c-12.667 0 -25.334 1.66699 -38.001 5s-24.167 8.33301 -34.5 15s-18.666 14.834 -24.999 24.501s-9.5 21.167 -9.5 34.5c0 18.667 7 34.667 21 48s31.667 22.333 53 27c8 2 15.667 3 23 3h22
c8.66699 0 18.167 -0.333008 28.5 -1s20.833 -2.66699 31.5 -6s20.667 -8.66602 30 -15.999s17.333 -18 24 -32c1.33301 -2 2.16602 -4.66699 2.49902 -8s0.833008 -6.33301 1.5 -9h-4c0 6.66699 -1 12 -3 16c-6.66699 12.667 -14.167 22.5 -22.5 29.5
s-16.833 12.167 -25.5 15.5s-17.5 5.5 -26.5 6.5s-17.833 1.5 -26.5 1.5h-12.5c-7 0 -12.833 -0.666992 -17.5 -2c-20 -5.33301 -34.333 -15.166 -43 -29.499s-13 -28.833 -13 -43.5c0 -11.333 3.83301 -24.5 11.5 -39.5s20.167 -25.5 37.5 -31.5
c1.33301 -0.666992 3.33301 -1.5 6 -2.5s4.66699 -1.5 6 -1.5h53c10 0 21 -1.66699 33 -5s23.333 -8.33301 34 -15s19.667 -15.334 27 -26.001s11 -23 11 -37z" />
    <glyph glyph-name="t" unicode="t" horiz-adv-x="418" 
d="M304 312h-101.001c-6 0 -12.833 -3.33301 -20.5 -10s-11.5 -13.667 -11.5 -21v-285h-36v285c0 7.33301 -3.66699 14.333 -11 21s-14.666 10 -21.999 10l-100 1zM1.99902 313h302v-1h-302v1z" />
    <glyph glyph-name="u" unicode="u" horiz-adv-x="397" 
d="M280 103c0 -1.33301 -0.834961 -5.66699 -2.50195 -13s-3.5 -13 -5.5 -17c-7.33301 -15.333 -16.166 -28.166 -26.499 -38.499s-21.5 -18.5 -33.5 -24.5s-24.167 -10.333 -36.5 -13s-24.166 -4 -35.499 -4s-23.166 1.33301 -35.499 4s-24.5 7 -36.5 13
s-23.333 14.167 -34 24.5s-19.334 23.166 -26.001 38.499c-2 4 -3.83301 9.16699 -5.5 15.5s-2.5 11.833 -2.5 16.5v205h39v-212c0 -1.33301 0.666992 -5 2 -11s2.66602 -11 3.99902 -15c8.66699 -26.667 21.334 -46 38.001 -58s34.667 -18 54 -18
c18.667 0 35.5 5.33301 50.5 16s28.167 28.667 39.5 54c2 4 3.83301 9.83301 5.5 17.5s2.5 12.167 2.5 13.5v213h45v-207z" />
    <glyph glyph-name="v" unicode="v" horiz-adv-x="382" 
d="M284 314l-123 -318h-36l-123 318c2 0 3.33301 -0.333008 4 -1l27.5 -71l25.5 -66.5l29 -75l38 -97.5l122 311h36z" />
    <glyph glyph-name="w" unicode="w" horiz-adv-x="545" 
d="M430 314l-124 -318h-36l-57 149l-58 -149h-36l-123 318c2 0 3.33301 -0.333008 4 -1l27.5 -71l25.5 -66.5l29 -75l38 -97.5l75 190l-47 121c2 0 3 -0.333008 3 -1l21 -53.5l24 -61.5l46 116h36l-64 -164l57 -147l122 311h37z" />
    <glyph glyph-name="x" unicode="x" horiz-adv-x="360" 
d="M236 -4h-38l-92 142l-97 -142l95 145l-113 173h38l93 -144l98 144l-96 -147z" />
    <glyph glyph-name="y" unicode="y" horiz-adv-x="353" 
d="M246 314l-206.999 -317.999h-38c8 11.333 15.667 23 23 35l22 35c4 6.66699 8.83301 13.834 14.5 21.501s11 15.5 16 23.5s9.33301 15.5 13 22.5s5.5 13.167 5.5 18.5c0 7.33301 -1.33301 14.166 -4 20.499s-5 11.166 -7 14.499l-41 63.5l-42 63.5
c2 0 3.66699 -0.666992 5 -2c17.333 -25.333 33.666 -50.333 48.999 -75l51 -79l102 156h38z" />
    <glyph glyph-name="z" unicode="z" horiz-adv-x="378" 
d="M249 314l-204.999 -315h200v-3h-240l95.5 146.5l95.5 146.5c2 2 3 4.66699 3 8s-1.5 6 -4.5 8s-6.33301 3.5 -10 4.5s-7.33398 1.5 -11.001 1.5h-6.5h-169v3h252z" />
    <glyph glyph-name="braceleft" unicode="{" 
d="M585 396l-436 0.000976562v7c0 8.66699 2.33301 18 7 28s9 18 13 24c12 16 26.333 29.167 43 39.5s34 18.5 52 24.5s36 10.167 54 12.5s34.333 3.5 49 3.5c22 0 44.333 -2.33301 67 -7s44.667 -12 66 -22c10 -4.66699 20.167 -10.834 30.5 -18.501s19.5 -16 27.5 -25
s14.5 -18.5 19.5 -28.5s7.5 -19.333 7.5 -28v-10zM618 330.001c0 -3.33301 -0.998047 -7.50098 -2.99805 -12.501s-4.5 -9.66699 -7.5 -14s-6.66699 -8 -11 -11s-8.83301 -4.5 -13.5 -4.5h-435c-9.33301 0 -17.5 5 -24.5 15s-10.5 19 -10.5 27s3.66699 16.833 11 26.5
s17 14.5 29 14.5h254c3.33301 0 7.83301 -0.5 13.5 -1.5s11.5 -2.16699 17.5 -3.5s11.333 -2.66602 16 -3.99902s7.66699 -2.33301 9 -3c3.33301 -1.33301 7 -3.83301 11 -7.5s6.66699 -7.16699 8 -10.5l4 -8l2.5 -5c1 -2 2.16699 -3.66699 3.5 -5
c7.33301 16 19.166 28 35.499 36s31.166 12 44.499 12c11.333 0 21.833 -3.33301 31.5 -10s14.5 -17 14.5 -31zM584.002 254c0 -8.66699 -2.5 -17.8311 -7.5 -27.498s-11.5 -18.667 -19.5 -27s-16.833 -15.166 -26.5 -20.499s-19.167 -8 -28.5 -8h-271
c-10 0 -19.833 2.66699 -29.5 8s-18.5 12.166 -26.5 20.499s-14.333 17.666 -19 27.999s-7 20.166 -7 29.499v7h435v-10zM706.002 -56.9971c0 -8.66699 -2.16211 -13.666 -6.49512 -14.999s-6.5 -2.66602 -6.5 -3.99902s0.666992 -2.5 2 -3.5s2 -3.5 2 -7.5
c0 -6.66699 -1.83301 -11 -5.5 -13s-7.83398 -3 -12.501 -3c-12 0 -18 5.33301 -18 16c0 3.33301 1 6.66602 3 9.99902l-298 106l-298 -106c0.666992 -1.33301 1.33398 -3 2.00098 -5s1 -3.66699 1 -5c0 -6.66699 -1.83301 -11 -5.5 -13s-7.83398 -3 -12.501 -3
c-12 0 -18 5.33301 -18 16c0 2.66699 1.33301 6.66699 4 12c-4.66699 1.33301 -8.33398 3.66602 -11.001 6.99902s-4 7 -4 11c0 5.33301 1.66699 9.5 5 12.5s7.66602 4.5 12.999 4.5c8.66699 0 15 -5.33301 19 -16l271 97l-271 96c-4 -10.667 -10.333 -16 -19 -16
c-5.33301 0 -9.66602 1.66699 -12.999 5s-5 7.66602 -5 12.999c0 7.33301 2.5 11.833 7.5 13.5s7.5 3.16699 7.5 4.5s-0.666992 2.5 -2 3.5s-2 3.5 -2 7.5s1.66699 8 5 12s7.66602 6 12.999 6c6.66699 0 11.667 -2.83301 15 -8.5s3.33301 -11.5 0 -17.5l149 -54.5l149 -52.5
l297 106c-1.33301 4 -2 7 -2 9c0 5.33301 1.66699 9.66602 5 12.999s7.66602 5 12.999 5s9.66602 -1.66699 12.999 -5s5 -7.66602 5 -12.999c0 -1.33301 -0.5 -3.16602 -1.5 -5.49902s-1.83301 -4.5 -2.5 -6.5c6 -2 9.66699 -4.33301 11 -7s2 -6 2 -10
c0 -12 -5.66699 -18 -17 -18c-8.66699 0 -15 5.33301 -19 16l-270 -96l271 -97c4 10.667 10 16 18 16c11.333 0 17 -5.66699 17 -17z" />
    <glyph glyph-name="bar" unicode="|" 
d="M585 396l-436 0.000976562v7c0 8.66699 2.33301 18 7 28s9 18 13 24c12 16 26.333 29.167 43 39.5s34 18.5 52 24.5s36 10.167 54 12.5s34.333 3.5 49 3.5c22 0 44.333 -2.33301 67 -7s44.667 -12 66 -22c10 -4.66699 20.167 -10.834 30.5 -18.501s19.5 -16 27.5 -25
s14.5 -18.5 19.5 -28.5s7.5 -19.333 7.5 -28v-10zM618 330.001c0 -3.33301 -0.998047 -7.50098 -2.99805 -12.501s-4.5 -9.66699 -7.5 -14s-6.66699 -8 -11 -11s-8.83301 -4.5 -13.5 -4.5h-435c-9.33301 0 -17.5 5 -24.5 15s-10.5 19 -10.5 27s3.66699 16.833 11 26.5
s17 14.5 29 14.5h254c3.33301 0 7.83301 -0.5 13.5 -1.5s11.5 -2.16699 17.5 -3.5s11.333 -2.66602 16 -3.99902s7.66699 -2.33301 9 -3c3.33301 -1.33301 7 -3.83301 11 -7.5s6.66699 -7.16699 8 -10.5l4 -8l2.5 -5c1 -2 2.16699 -3.66699 3.5 -5
c7.33301 16 19.166 28 35.499 36s31.166 12 44.499 12c11.333 0 21.833 -3.33301 31.5 -10s14.5 -17 14.5 -31zM584.002 254c0 -8.66699 -2.5 -17.8311 -7.5 -27.498s-11.5 -18.667 -19.5 -27s-16.833 -15.166 -26.5 -20.499s-19.167 -8 -28.5 -8h-271
c-10 0 -19.833 2.66699 -29.5 8s-18.5 12.166 -26.5 20.499s-14.333 17.666 -19 27.999s-7 20.166 -7 29.499v7h435v-10zM706.002 -56.9971c0 -8.66699 -2.16211 -13.666 -6.49512 -14.999s-6.5 -2.66602 -6.5 -3.99902s0.666992 -2.5 2 -3.5s2 -3.5 2 -7.5
c0 -6.66699 -1.83301 -11 -5.5 -13s-7.83398 -3 -12.501 -3c-12 0 -18 5.33301 -18 16c0 3.33301 1 6.66602 3 9.99902l-298 106l-298 -106c0.666992 -1.33301 1.33398 -3 2.00098 -5s1 -3.66699 1 -5c0 -6.66699 -1.83301 -11 -5.5 -13s-7.83398 -3 -12.501 -3
c-12 0 -18 5.33301 -18 16c0 2.66699 1.33301 6.66699 4 12c-4.66699 1.33301 -8.33398 3.66602 -11.001 6.99902s-4 7 -4 11c0 5.33301 1.66699 9.5 5 12.5s7.66602 4.5 12.999 4.5c8.66699 0 15 -5.33301 19 -16l271 97l-271 96c-4 -10.667 -10.333 -16 -19 -16
c-5.33301 0 -9.66602 1.66699 -12.999 5s-5 7.66602 -5 12.999c0 7.33301 2.5 11.833 7.5 13.5s7.5 3.16699 7.5 4.5s-0.666992 2.5 -2 3.5s-2 3.5 -2 7.5s1.66699 8 5 12s7.66602 6 12.999 6c6.66699 0 11.667 -2.83301 15 -8.5s3.33301 -11.5 0 -17.5l149 -54.5l149 -52.5
l297 106c-1.33301 4 -2 7 -2 9c0 5.33301 1.66699 9.66602 5 12.999s7.66602 5 12.999 5s9.66602 -1.66699 12.999 -5s5 -7.66602 5 -12.999c0 -1.33301 -0.5 -3.16602 -1.5 -5.49902s-1.83301 -4.5 -2.5 -6.5c6 -2 9.66699 -4.33301 11 -7s2 -6 2 -10
c0 -12 -5.66699 -18 -17 -18c-8.66699 0 -15 5.33301 -19 16l-270 -96l271 -97c4 10.667 10 16 18 16c11.333 0 17 -5.66699 17 -17z" />
    <glyph glyph-name="braceright" unicode="}" 
d="M585 396l-436 0.000976562v7c0 8.66699 2.33301 18 7 28s9 18 13 24c12 16 26.333 29.167 43 39.5s34 18.5 52 24.5s36 10.167 54 12.5s34.333 3.5 49 3.5c22 0 44.333 -2.33301 67 -7s44.667 -12 66 -22c10 -4.66699 20.167 -10.834 30.5 -18.501s19.5 -16 27.5 -25
s14.5 -18.5 19.5 -28.5s7.5 -19.333 7.5 -28v-10zM618 330.001c0 -3.33301 -0.998047 -7.50098 -2.99805 -12.501s-4.5 -9.66699 -7.5 -14s-6.66699 -8 -11 -11s-8.83301 -4.5 -13.5 -4.5h-435c-9.33301 0 -17.5 5 -24.5 15s-10.5 19 -10.5 27s3.66699 16.833 11 26.5
s17 14.5 29 14.5h254c3.33301 0 7.83301 -0.5 13.5 -1.5s11.5 -2.16699 17.5 -3.5s11.333 -2.66602 16 -3.99902s7.66699 -2.33301 9 -3c3.33301 -1.33301 7 -3.83301 11 -7.5s6.66699 -7.16699 8 -10.5l4 -8l2.5 -5c1 -2 2.16699 -3.66699 3.5 -5
c7.33301 16 19.166 28 35.499 36s31.166 12 44.499 12c11.333 0 21.833 -3.33301 31.5 -10s14.5 -17 14.5 -31zM584.002 254c0 -8.66699 -2.5 -17.8311 -7.5 -27.498s-11.5 -18.667 -19.5 -27s-16.833 -15.166 -26.5 -20.499s-19.167 -8 -28.5 -8h-271
c-10 0 -19.833 2.66699 -29.5 8s-18.5 12.166 -26.5 20.499s-14.333 17.666 -19 27.999s-7 20.166 -7 29.499v7h435v-10zM706.002 -56.9971c0 -8.66699 -2.16211 -13.666 -6.49512 -14.999s-6.5 -2.66602 -6.5 -3.99902s0.666992 -2.5 2 -3.5s2 -3.5 2 -7.5
c0 -6.66699 -1.83301 -11 -5.5 -13s-7.83398 -3 -12.501 -3c-12 0 -18 5.33301 -18 16c0 3.33301 1 6.66602 3 9.99902l-298 106l-298 -106c0.666992 -1.33301 1.33398 -3 2.00098 -5s1 -3.66699 1 -5c0 -6.66699 -1.83301 -11 -5.5 -13s-7.83398 -3 -12.501 -3
c-12 0 -18 5.33301 -18 16c0 2.66699 1.33301 6.66699 4 12c-4.66699 1.33301 -8.33398 3.66602 -11.001 6.99902s-4 7 -4 11c0 5.33301 1.66699 9.5 5 12.5s7.66602 4.5 12.999 4.5c8.66699 0 15 -5.33301 19 -16l271 97l-271 96c-4 -10.667 -10.333 -16 -19 -16
c-5.33301 0 -9.66602 1.66699 -12.999 5s-5 7.66602 -5 12.999c0 7.33301 2.5 11.833 7.5 13.5s7.5 3.16699 7.5 4.5s-0.666992 2.5 -2 3.5s-2 3.5 -2 7.5s1.66699 8 5 12s7.66602 6 12.999 6c6.66699 0 11.667 -2.83301 15 -8.5s3.33301 -11.5 0 -17.5l149 -54.5l149 -52.5
l297 106c-1.33301 4 -2 7 -2 9c0 5.33301 1.66699 9.66602 5 12.999s7.66602 5 12.999 5s9.66602 -1.66699 12.999 -5s5 -7.66602 5 -12.999c0 -1.33301 -0.5 -3.16602 -1.5 -5.49902s-1.83301 -4.5 -2.5 -6.5c6 -2 9.66699 -4.33301 11 -7s2 -6 2 -10
c0 -12 -5.66699 -18 -17 -18c-8.66699 0 -15 5.33301 -19 16l-270 -96l271 -97c4 10.667 10 16 18 16c11.333 0 17 -5.66699 17 -17z" />
    <glyph glyph-name="asciitilde" unicode="~" 
d="M585 396l-436 0.000976562v7c0 8.66699 2.33301 18 7 28s9 18 13 24c12 16 26.333 29.167 43 39.5s34 18.5 52 24.5s36 10.167 54 12.5s34.333 3.5 49 3.5c22 0 44.333 -2.33301 67 -7s44.667 -12 66 -22c10 -4.66699 20.167 -10.834 30.5 -18.501s19.5 -16 27.5 -25
s14.5 -18.5 19.5 -28.5s7.5 -19.333 7.5 -28v-10zM618 330.001c0 -3.33301 -0.998047 -7.50098 -2.99805 -12.501s-4.5 -9.66699 -7.5 -14s-6.66699 -8 -11 -11s-8.83301 -4.5 -13.5 -4.5h-435c-9.33301 0 -17.5 5 -24.5 15s-10.5 19 -10.5 27s3.66699 16.833 11 26.5
s17 14.5 29 14.5h254c3.33301 0 7.83301 -0.5 13.5 -1.5s11.5 -2.16699 17.5 -3.5s11.333 -2.66602 16 -3.99902s7.66699 -2.33301 9 -3c3.33301 -1.33301 7 -3.83301 11 -7.5s6.66699 -7.16699 8 -10.5l4 -8l2.5 -5c1 -2 2.16699 -3.66699 3.5 -5
c7.33301 16 19.166 28 35.499 36s31.166 12 44.499 12c11.333 0 21.833 -3.33301 31.5 -10s14.5 -17 14.5 -31zM584.002 254c0 -8.66699 -2.5 -17.8311 -7.5 -27.498s-11.5 -18.667 -19.5 -27s-16.833 -15.166 -26.5 -20.499s-19.167 -8 -28.5 -8h-271
c-10 0 -19.833 2.66699 -29.5 8s-18.5 12.166 -26.5 20.499s-14.333 17.666 -19 27.999s-7 20.166 -7 29.499v7h435v-10zM706.002 -56.9971c0 -8.66699 -2.16211 -13.666 -6.49512 -14.999s-6.5 -2.66602 -6.5 -3.99902s0.666992 -2.5 2 -3.5s2 -3.5 2 -7.5
c0 -6.66699 -1.83301 -11 -5.5 -13s-7.83398 -3 -12.501 -3c-12 0 -18 5.33301 -18 16c0 3.33301 1 6.66602 3 9.99902l-298 106l-298 -106c0.666992 -1.33301 1.33398 -3 2.00098 -5s1 -3.66699 1 -5c0 -6.66699 -1.83301 -11 -5.5 -13s-7.83398 -3 -12.501 -3
c-12 0 -18 5.33301 -18 16c0 2.66699 1.33301 6.66699 4 12c-4.66699 1.33301 -8.33398 3.66602 -11.001 6.99902s-4 7 -4 11c0 5.33301 1.66699 9.5 5 12.5s7.66602 4.5 12.999 4.5c8.66699 0 15 -5.33301 19 -16l271 97l-271 96c-4 -10.667 -10.333 -16 -19 -16
c-5.33301 0 -9.66602 1.66699 -12.999 5s-5 7.66602 -5 12.999c0 7.33301 2.5 11.833 7.5 13.5s7.5 3.16699 7.5 4.5s-0.666992 2.5 -2 3.5s-2 3.5 -2 7.5s1.66699 8 5 12s7.66602 6 12.999 6c6.66699 0 11.667 -2.83301 15 -8.5s3.33301 -11.5 0 -17.5l149 -54.5l149 -52.5
l297 106c-1.33301 4 -2 7 -2 9c0 5.33301 1.66699 9.66602 5 12.999s7.66602 5 12.999 5s9.66602 -1.66699 12.999 -5s5 -7.66602 5 -12.999c0 -1.33301 -0.5 -3.16602 -1.5 -5.49902s-1.83301 -4.5 -2.5 -6.5c6 -2 9.66699 -4.33301 11 -7s2 -6 2 -10
c0 -12 -5.66699 -18 -17 -18c-8.66699 0 -15 5.33301 -19 16l-270 -96l271 -97c4 10.667 10 16 18 16c11.333 0 17 -5.66699 17 -17z" />
  </font>
</defs>
</svg>
